<?xml version="1.0" standalone="no"?>
<!DOCTYPE svg PUBLIC "-//W3C//DTD SVG 1.1//EN" "http://www.w3.org/Graphics/SVG/1.1/DTD/svg11.dtd" >
<svg xmlns="http://www.w3.org/2000/svg" xmlns:xlink="http://www.w3.org/1999/xlink" version="1.1">
<metadata></metadata>
<defs>
<font id="proxima_novablack_italic" horiz-adv-x="1220" >
<font-face units-per-em="2048" ascent="1618" descent="-430" />
<missing-glyph horiz-adv-x="522" />
<glyph unicode="&#xfb01;" horiz-adv-x="1333" d="M51 670l72 319h162l12 51q18 72 54 135.5t89.5 110.5t123 73.5t153.5 26.5q59 0 126.5 -11t125.5 -46l-121 -239q-29 25 -80 24q-47 0 -71.5 -22.5t-30.5 -51.5l-13 -51h203l-72 -319h-200l-148 -670h-368l147 670h-164zM752 0l219 989h369l-220 -989h-368zM1006 1237 q0 57 21.5 101t55 75t75.5 46.5t81 15.5q82 0 134.5 -52.5t52.5 -124.5q0 -57 -21.5 -101t-55.5 -74.5t-76 -46t-81 -15.5q-82 0 -134 52t-52 124z" />
<glyph unicode="&#xfb02;" horiz-adv-x="1333" d="M51 670l72 319h162l12 51q18 72 54 135.5t89.5 110.5t123 73.5t153.5 26.5q59 0 126.5 -11t125.5 -46l-121 -239q-29 25 -80 24q-47 0 -71.5 -22.5t-30.5 -51.5l-13 -51h203l-72 -319h-200l-148 -670h-368l147 670h-164zM752 0l301 1366h369l-302 -1366h-368z" />
<glyph unicode="&#xfb03;" horiz-adv-x="2093" d="M51 670l72 319h162l12 53q16 70 50 133.5t86 109.5t125 73.5t167 27.5q82 0 166 -24.5t139 -81.5l-172 -205q-37 39 -98 39q-41 0 -64.5 -23.5t-31.5 -58.5l-11 -43h203l-72 -319h-200l-148 -670h-368l147 670h-164zM811 670l72 319h162l12 51q18 72 54 135.5t89.5 110.5 t123 73.5t153.5 26.5q59 0 126.5 -11t125.5 -46l-121 -239q-29 25 -80 24q-47 0 -71.5 -22.5t-30.5 -51.5l-13 -51h203l-72 -319h-200l-148 -670h-368l147 670h-164zM1512 0l219 989h369l-220 -989h-368zM1766 1237q0 57 21.5 101t55 75t75.5 46.5t81 15.5q82 0 134.5 -52.5 t52.5 -124.5q0 -57 -21.5 -101t-55.5 -74.5t-76 -46t-81 -15.5q-82 0 -134 52t-52 124z" />
<glyph unicode="&#xfb04;" horiz-adv-x="2093" d="M51 670l72 319h162l12 53q16 70 50 133.5t86 109.5t125 73.5t167 27.5q82 0 166 -24.5t139 -81.5l-172 -205q-37 39 -98 39q-41 0 -64.5 -23.5t-31.5 -58.5l-11 -43h203l-72 -319h-200l-148 -670h-368l147 670h-164zM811 670l72 319h162l12 51q18 72 54 135.5t89.5 110.5 t123 73.5t153.5 26.5q59 0 126.5 -11t125.5 -46l-121 -239q-29 25 -80 24q-47 0 -71.5 -22.5t-30.5 -51.5l-13 -51h203l-72 -319h-200l-148 -670h-368l147 670h-164zM1512 0l301 1366h369l-302 -1366h-368z" />
<glyph horiz-adv-x="0" />
<glyph horiz-adv-x="0" />
<glyph unicode="&#xd;" horiz-adv-x="0" />
<glyph unicode=" "  horiz-adv-x="522" />
<glyph unicode="&#x09;" horiz-adv-x="522" />
<glyph unicode="&#xa0;" horiz-adv-x="522" />
<glyph unicode="!" horiz-adv-x="579" d="M2 176q0 49 19.5 92t52 75t76 51.5t92.5 19.5q84 0 141 -59.5t57 -143.5q0 -49 -19.5 -92t-52 -75t-75.5 -51.5t-92 -19.5q-84 0 -141.5 59.5t-57.5 143.5zM123 508l135 858h438l-241 -858h-332z" />
<glyph unicode="&#x22;" horiz-adv-x="960" d="M219 1074v60.5v34.5q0 45 17.5 85t47 70t68.5 46t84 16q66 0 116 -48t50 -121q0 -23 -7 -44.5t-11 -31.5t-14.5 -34t-26 -56.5t-33.5 -72.5t-37 -79q-43 -94 -96 -205h-152q-2 121 -4 219q0 43 -1 84t-1 77zM666 1074v60.5v34.5q0 45 17 85t47 70t69 46t84 16 q66 0 116 -48t50 -121q0 -23 -7.5 -44.5t-11.5 -31.5t-14 -34t-25.5 -56.5t-34 -72.5t-36.5 -79q-43 -94 -97 -205h-151q-2 121 -4 219q0 43 -1 84t-1 77z" />
<glyph unicode="#" horiz-adv-x="1323" d="M-18 0l180 324h-176l120 223h181l147 270h-178l119 221h184l180 328h260l-180 -328h160l180 328h260l-182 -328h180l-117 -221h-186l-149 -270h186l-119 -223h-192l-178 -324h-261l181 324h-162l-178 -324h-260zM547 547h158l149 270h-160z" />
<glyph unicode="$" horiz-adv-x="1300" d="M-6 242l246 295q35 -47 87 -85t114.5 -66t131 -43t138.5 -15q59 0 83.5 20.5t24.5 38.5q0 29 -48 50.5t-120.5 45t-157.5 53t-158 76.5t-121 116t-48 169q0 88 36 174t106.5 154.5t176 112.5t246.5 48l43 187h262l-49 -217q104 -27 196.5 -76t164.5 -121l-248 -287 q-86 86 -202 126t-214 40q-41 0 -62.5 -16t-21.5 -39q0 -27 48 -48.5t122 -45t158 -54t157.5 -78.5t121.5 -117t48 -167q0 -109 -39.5 -199t-114.5 -156.5t-181.5 -104.5t-237.5 -38l-41 -180h-262l47 207q-139 31 -249.5 92.5t-182.5 147.5z" />
<glyph unicode="%" horiz-adv-x="1605" d="M156 989q0 88 31.5 162t85 126t125 80.5t151.5 28.5q68 0 131 -19t112.5 -56t78 -91.5t28.5 -123.5q0 -88 -31.5 -162t-85 -126t-125 -81t-151.5 -29q-68 0 -131.5 19.5t-112.5 56.5t-77.5 91.5t-28.5 123.5zM158 0l1173 1366h201l-1176 -1366h-198zM406 1012 q0 -41 29.5 -69t78.5 -28q57 0 96 41t39 117q0 41 -29.5 68.5t-78.5 27.5q-57 0 -96 -41t-39 -116zM786 266q0 88 32 162t85 126t125 81t152 29q68 0 131 -19.5t112.5 -56.5t78 -91.5t28.5 -123.5q0 -88 -32 -162t-85 -126t-124.5 -81t-151.5 -29q-68 0 -131.5 19.5 t-112.5 56.5t-78 91.5t-29 123.5zM1036 289q0 -41 30 -68.5t79 -27.5q57 0 96 40.5t39 116.5q0 41 -29.5 68.5t-79.5 27.5q-57 0 -96 -40.5t-39 -116.5z" />
<glyph unicode="&#x26;" horiz-adv-x="1335" d="M-12 354q0 98 31.5 171t85 125t123 88t145.5 63q-12 49 -19.5 96t-7.5 94q0 86 35 159t95.5 125t143 81.5t181.5 29.5q78 0 151.5 -19t131 -57t92 -96.5t34.5 -136.5q0 -90 -34.5 -151.5t-93 -104.5t-132 -71.5t-149.5 -51.5q10 -23 21.5 -44t23.5 -44l63 -121 q90 96 150 203l254 -164q-57 -76 -122 -147.5t-136 -136.5q39 -59 79 -120t85 -124h-424q-8 10 -15.5 21.5t-17.5 23.5q-150 -70 -301 -70q-100 0 -186.5 20.5t-150 65.5t-100 117t-36.5 176zM387 397q0 -70 40 -104.5t99 -34.5q41 0 82 14q-23 37 -43 71t-33 60 q-20 37 -38.5 75t-34.5 77q-72 -61 -72 -158zM711 993q0 -47 12 -92q74 25 121 56.5t47 84.5q0 45 -20.5 66.5t-55.5 21.5q-41 0 -72.5 -33.5t-31.5 -103.5z" />
<glyph unicode="'" horiz-adv-x="516" d="M219 1074v60.5v34.5q0 45 17.5 85t47 70t68.5 46t84 16q66 0 116 -48t50 -121q0 -23 -7 -44.5t-11 -31.5t-14.5 -34t-26 -56.5t-33.5 -72.5t-37 -79q-43 -94 -96 -205h-152q-2 121 -4 219q0 43 -1 84t-1 77z" />
<glyph unicode="(" horiz-adv-x="708" d="M45 252q0 162 43 324.5t121 313t186.5 283t241.5 230.5l194 -199q-94 -102 -167.5 -223t-126 -255t-80 -275.5t-27.5 -284.5q0 -113 23.5 -222.5t58.5 -195.5l-270 -156q-49 59 -86 136t-61.5 163t-37 178.5t-12.5 182.5z" />
<glyph unicode=")" horiz-adv-x="710" d="M-125 -209q94 102 168 223t126 255t79.5 275.5t27.5 284.5q0 113 -23.5 222.5t-57.5 195.5l270 156q49 -59 86 -136t61.5 -163t37 -178t12.5 -183q0 -162 -43.5 -324.5t-121 -313t-187 -282.5t-240.5 -231z" />
<glyph unicode="*" horiz-adv-x="743" d="M135 985l209 76l-168 117l115 131l153 -131l39 208h168l-61 -225l207 94l49 -151l-207 -76l166 -117l-117 -131l-153 131l-35 -209h-170l59 226l-207 -92z" />
<glyph unicode="+" horiz-adv-x="1044" d="M78 584l47 215h344l84 379h238l-84 -379h344l-47 -215h-345l-88 -396h-237l88 396h-344z" />
<glyph unicode="," horiz-adv-x="579" d="M-37 -162q27 10 59.5 27.5t65.5 40t60.5 49.5t44.5 55q-4 -2 -13.5 -2h-13.5q-66 0 -116 42t-50 132q0 47 20.5 89t54.5 74t78 50.5t89 18.5q39 0 76.5 -13.5t67.5 -41t47.5 -67.5t17.5 -93q0 -70 -27 -140.5t-76 -135t-115.5 -120t-146.5 -92.5z" />
<glyph unicode="-" horiz-adv-x="614" d="M27 342l67 307h492l-68 -307h-491z" />
<glyph unicode="." horiz-adv-x="579" d="M2 176q0 49 19.5 92t52 75t76 51.5t92.5 19.5q84 0 141 -59.5t57 -143.5q0 -49 -19.5 -92t-52 -75t-75.5 -51.5t-92 -19.5q-84 0 -141.5 59.5t-57.5 143.5z" />
<glyph unicode="/" horiz-adv-x="741" d="M-125 -41l805 1448h268l-807 -1448h-266z" />
<glyph unicode="0" horiz-adv-x="1286" d="M57 545q0 178 54.5 331.5t150.5 267t226 178t284 64.5q115 0 212 -35.5t169 -106t113 -177t41 -248.5q0 -178 -54.5 -331.5t-149.5 -267.5t-225 -179.5t-284 -65.5q-115 0 -213 36t-170 106.5t-113 178t-41 249.5zM471 526q0 -86 39 -136t123 -50q63 0 112.5 48t81 122 t48 161t16.5 167q0 86 -38 135t-122 49q-66 0 -114 -48t-80.5 -121t-49 -160t-16.5 -167z" />
<glyph unicode="1" horiz-adv-x="989" d="M78 854l635 512h356l-301 -1366h-414l185 840l-281 -230z" />
<glyph unicode="2" horiz-adv-x="1255" d="M-27 0l80 375q227 119 382 200.5t250 143t136 107.5t41 94q0 49 -55 77.5t-141 28.5q-111 0 -192 -35t-140 -78l-164 299q104 84 244.5 129t283.5 45q119 0 227.5 -29.5t189.5 -84.5t129 -136t48 -186q0 -86 -31.5 -162.5t-101 -148.5t-177.5 -140.5t-257 -138.5h444 l-79 -360h-1117z" />
<glyph unicode="3" horiz-adv-x="1263" d="M-45 260l264 256q39 -47 90 -80t105.5 -54.5t109 -31.5t99.5 -10q88 0 123.5 26.5t35.5 65.5q0 12 -5 25.5t-24.5 24t-59.5 17.5t-107 7h-53.5t-60.5 -1t-53.5 -2t-31.5 -1l82 366q8 0 33.5 -1t55.5 -1h59.5h48.5q98 0 151 13.5t53 60.5q0 43 -57 63.5t-168 20.5 q-88 0 -171 -23.5t-148 -64.5l-138 278q90 78 218.5 125t281.5 47q141 0 254 -24.5t192.5 -72.5t121.5 -116.5t42 -154.5q0 -59 -32.5 -113.5t-85 -98.5t-118 -74t-132.5 -40q55 -14 102 -37.5t83 -59.5t55.5 -87t19.5 -121q0 -94 -46 -170t-124 -130t-180 -83t-213 -29 q-102 0 -201.5 17.5t-187.5 52.5t-161 89t-122 126z" />
<glyph unicode="4" horiz-adv-x="1302" d="M-27 219l80 352l649 795h596l-174 -786h158l-80 -361h-158l-47 -219h-413l47 219h-658zM453 580h258l96 430z" />
<glyph unicode="5" horiz-adv-x="1282" d="M4 229l285 265q57 -66 147 -110t207 -44q96 0 135 36t39 81q0 51 -55 79.5t-152 28.5q-78 0 -124 -15t-93 -52l-264 96l168 772h1044l-79 -360h-631l-41 -193q59 47 115.5 65.5t142.5 18.5t158.5 -26.5t127 -76t85 -122t30.5 -164.5q0 -111 -43 -207t-122.5 -169 t-192.5 -115t-250 -42q-217 0 -378 69t-259 185z" />
<glyph unicode="6" horiz-adv-x="1280" d="M49 530q0 186 56.5 344t160 272t250 177t328.5 63q160 0 282.5 -45t219.5 -120l-244 -297q-55 51 -132 74.5t-153 23.5q-100 0 -183 -44t-118 -114q-8 -14 -13 -31.5t-9 -33.5q53 53 137 82.5t178 29.5q92 0 174 -27.5t143.5 -78.5t97.5 -124t36 -163q0 -115 -49.5 -213 t-132.5 -172t-193.5 -116t-231.5 -42q-139 0 -251.5 38t-190.5 110t-120 174t-42 233zM453 504q0 -41 17 -72t46 -51.5t63.5 -30.5t71.5 -10q74 0 125 34t51 93q0 27 -18 48.5t-49 36.5t-71 23.5t-83 8.5q-45 0 -84 -10.5t-67 -26.5q-2 -10 -2 -21.5v-21.5z" />
<glyph unicode="7" horiz-adv-x="1177" d="M119 0l649 1006h-621l80 360h1116l-63 -287l-688 -1079h-473z" />
<glyph unicode="8" horiz-adv-x="1290" d="M-2 358q0 57 20.5 113.5t62.5 108t106.5 93.5t154.5 70q-78 41 -127 110t-49 153q0 102 52 174.5t137 119t190.5 66.5t210.5 20q104 0 210.5 -20t192.5 -63t140.5 -113t54.5 -168q0 -123 -86 -220t-236 -134q104 -61 151.5 -140t47.5 -157q0 -98 -53.5 -173t-140.5 -124 t-197.5 -74t-227.5 -25q-115 0 -224 20.5t-196.5 67t-140.5 119t-53 176.5zM434 412q0 -47 48.5 -74t144.5 -27q86 0 135 28t49 64q0 41 -43 72t-121 47q-43 -2 -81 -9t-67.5 -20.5t-47 -34t-17.5 -46.5zM582 965q0 -35 45 -63t98 -40q86 4 136 28.5t50 59.5q0 45 -50 73 t-128 28q-61 0 -106 -25t-45 -61z" />
<glyph unicode="9" horiz-adv-x="1280" d="M12 143l244 297q55 -51 132 -74.5t153 -23.5q100 0 183 44t118 114q8 14 13 31.5t9 33.5q-53 -53 -137 -82.5t-178 -29.5q-92 0 -174 27.5t-143.5 78.5t-97.5 124t-36 163q0 113 49.5 212t132 173t193.5 116t232 42q139 0 250.5 -38t190.5 -110t121 -174t42 -233 q0 -188 -56.5 -345t-160 -271t-250 -177.5t-328.5 -63.5q-160 0 -282.5 45.5t-219.5 120.5zM530 897q0 -27 18.5 -48.5t49.5 -36.5t71 -23.5t83 -8.5q45 0 83.5 10.5t67.5 26.5q2 10 2 21.5v21.5q0 41 -17.5 72t-46 51.5t-63 30.5t-71.5 10q-74 0 -125.5 -34t-51.5 -93z" />
<glyph unicode=":" horiz-adv-x="579" d="M2 176q0 49 19.5 92t52 75t76 51.5t92.5 19.5q84 0 141 -59.5t57 -143.5q0 -49 -19.5 -92t-52 -75t-75.5 -51.5t-92 -19.5q-84 0 -141.5 59.5t-57.5 143.5zM131 768q0 49 19.5 92t52.5 75t76 51.5t92 19.5q84 0 141 -59.5t57 -143.5q0 -49 -19.5 -92t-52 -75t-75.5 -51.5 t-92 -19.5q-84 0 -141.5 59.5t-57.5 143.5z" />
<glyph unicode=";" horiz-adv-x="579" d="M-37 -162q27 10 59.5 27.5t65.5 40t60.5 49.5t44.5 55q-4 -2 -13.5 -2h-13.5q-66 0 -116 42t-50 132q0 47 20.5 89t54.5 74t78 50.5t89 18.5q39 0 76.5 -13.5t67.5 -41t47.5 -67.5t17.5 -93q0 -70 -27 -140.5t-76 -135t-115.5 -120t-146.5 -92.5zM131 768q0 49 19.5 92 t52.5 75t76 51.5t92 19.5q84 0 141 -59.5t57 -143.5q0 -49 -19.5 -92t-52 -75t-75.5 -51.5t-92 -19.5q-84 0 -141.5 59.5t-57.5 143.5z" />
<glyph unicode="&#x3c;" horiz-adv-x="1044" d="M70 553l59 266l1008 369l-60 -266l-737 -248l629 -244l-56 -246z" />
<glyph unicode="=" horiz-adv-x="1044" d="M35 389l47 215h926l-47 -215h-926zM117 764l47 215h926l-48 -215h-925z" />
<glyph unicode="&#x3e;" horiz-adv-x="1044" d="M-12 184l59 267l739 243l-630 248l55 246l844 -369l-60 -266z" />
<glyph unicode="?" horiz-adv-x="921" d="M154 1247q100 76 208.5 107.5t210.5 31.5q88 0 170 -19t145.5 -58t101.5 -95.5t38 -132.5q0 -90 -29.5 -149.5t-72.5 -101.5t-95.5 -69.5t-95.5 -55t-72.5 -59.5t-29.5 -79q0 -4 2 -14t8 -21l-340 -73q-10 29 -15 63.5t-5 77.5q0 76 22.5 129t57 89t74.5 60.5t75 42 t57.5 32t22.5 32.5q0 20 -19.5 30.5t-66.5 10.5q-41 0 -91 -15.5t-91 -47.5zM180 176q0 49 19.5 92t52.5 75t76 51.5t92 19.5q84 0 141 -59.5t57 -143.5q0 -49 -19 -92t-52 -75t-76 -51.5t-92 -19.5q-84 0 -141.5 59.5t-57.5 143.5z" />
<glyph unicode="@" horiz-adv-x="1603" d="M113 500q0 162 67.5 308t179 257t259 176.5t307.5 65.5q150 0 268.5 -49.5t202.5 -132.5t129 -192.5t45 -230.5q0 -137 -45 -237t-114 -164.5t-148.5 -95.5t-149.5 -31q-98 0 -146 41t-65 94l-4 15q-53 -78 -125 -114t-139 -36q-78 0 -137.5 27.5t-100.5 76t-62.5 114 t-21.5 138.5q0 98 37 186.5t98.5 155t141.5 106.5t168 40q86 0 150.5 -31t99.5 -84l18 90h324l-95 -444q-2 -8 -4 -27.5t-2 -27.5q0 -43 15.5 -60.5t42.5 -17.5q31 0 59.5 18.5t51 55t36.5 90t14 122.5q0 117 -37.5 212.5t-109.5 163t-173 103.5t-230 36 q-143 0 -272.5 -57.5t-228 -155t-155.5 -226.5t-57 -272q0 -119 43 -221.5t117.5 -178t179 -118.5t227.5 -43q98 0 190.5 28.5t176.5 81.5l49 -69q-96 -61 -203.5 -95t-222.5 -34q-139 0 -258 49t-206 136t-136 205t-49 253zM645 559q0 -59 35 -95t94 -36q57 0 93 27.5 t59 56.5l39 195q-14 20 -43 38.5t-76 18.5t-84 -17.5t-63.5 -46t-40 -65.5t-13.5 -76z" />
<glyph unicode="A" horiz-adv-x="1454" d="M-147 0l804 1366h521l202 -1366h-448l-14 160h-492l-84 -160h-489zM616 520h271l-39 441z" />
<glyph unicode="B" horiz-adv-x="1427" d="M0 0l301 1366h760q104 0 179 -29.5t123 -79t70.5 -110t22.5 -121.5q0 -66 -25.5 -126t-67.5 -108.5t-97.5 -78t-116.5 -35.5q49 -14 86 -42t61.5 -64.5t35.5 -78.5t11 -85q0 -68 -25.5 -139.5t-81.5 -132t-149.5 -98.5t-228.5 -38h-858zM489 344h326q53 0 85 26.5 t32 69.5q0 35 -21.5 56.5t-56.5 21.5h-326zM604 862h311q59 0 80 30t21 62q0 29 -18.5 48.5t-55.5 19.5h-299z" />
<glyph unicode="C" horiz-adv-x="1427" d="M57 602q0 178 64.5 322.5t176.5 248t261.5 160t319.5 56.5q150 0 262 -40t191 -104.5t128 -145.5t74 -163l-397 -125q-18 96 -93 154.5t-184 58.5q-84 0 -152.5 -33t-117.5 -87t-77 -125.5t-28 -147.5q0 -59 21.5 -111.5t61.5 -92.5t96.5 -63.5t128.5 -23.5 q39 0 80.5 12.5t79.5 34t68 50t48 61.5l324 -209q-63 -92 -142.5 -152.5t-163 -96.5t-165.5 -50.5t-152 -14.5q-147 0 -276 44t-226.5 125t-154 197t-56.5 261z" />
<glyph unicode="D" horiz-adv-x="1507" d="M0 0l301 1366h600q113 0 224.5 -41t198.5 -118t141.5 -186.5t54.5 -244.5q0 -129 -45 -267t-151.5 -251t-281 -185.5t-434.5 -72.5h-608zM494 360h182h8q96 0 172 31t128 83t80 123t28 148q0 55 -19.5 102.5t-54.5 82.5t-84 55.5t-109 20.5h-190z" />
<glyph unicode="E" d="M0 0l301 1366h1036l-80 -360h-622l-29 -136h608l-79 -360h-609l-32 -150h622l-80 -360h-1036z" />
<glyph unicode="F" horiz-adv-x="1212" d="M0 0l301 1366h1036l-80 -360h-622l-29 -136h608l-79 -360h-609l-112 -510h-414z" />
<glyph unicode="G" horiz-adv-x="1486" d="M57 602q0 168 61.5 312.5t175.5 250t272.5 165t353.5 59.5q123 0 220 -34t170.5 -88.5t123 -122t73.5 -134.5l-381 -156q-8 31 -31.5 61.5t-59.5 55t-81 39t-94 14.5q-78 0 -146.5 -30.5t-119.5 -84t-80 -125t-29 -153.5q0 -53 20.5 -105.5t59.5 -93.5t96.5 -66.5 t131.5 -25.5q102 0 186 61l10 52h-254l82 360h666l-125 -561q-98 -129 -250 -203t-338 -74q-141 0 -270 42t-227.5 122t-157 197t-58.5 266z" />
<glyph unicode="H" horiz-adv-x="1538" d="M0 0l301 1366h414l-107 -483h490l106 483h414l-301 -1366h-414l115 522h-490l-114 -522h-414z" />
<glyph unicode="I" horiz-adv-x="634" d="M0 0l301 1366h414l-301 -1366h-414z" />
<glyph unicode="J" horiz-adv-x="1019" d="M-74 111l213 313q29 -35 78 -59.5t102 -24.5q72 0 115 41t60 113l192 872h414l-195 -879q-29 -131 -75 -227t-112.5 -159.5t-157.5 -94.5t-210 -31q-113 0 -229.5 32t-194.5 104z" />
<glyph unicode="K" horiz-adv-x="1374" d="M0 0l301 1366h414l-107 -483l445 483h526l-655 -635l376 -731h-483l-211 494l-108 -115l-84 -379h-414z" />
<glyph unicode="L" horiz-adv-x="1097" d="M0 0l301 1366h414l-221 -1006h518l-80 -360h-932z" />
<glyph unicode="M" horiz-adv-x="1843" d="M0 0l301 1366h557l94 -655l385 655h586l-301 -1366h-414l181 821l-486 -821h-184l-125 821l-180 -821h-414z" />
<glyph unicode="N" horiz-adv-x="1536" d="M0 0l301 1366h426l328 -664l147 664h414l-301 -1366h-397l-349 709l-155 -709h-414z" />
<glyph unicode="O" horiz-adv-x="1568" d="M57 602q0 164 61.5 307.5t171 250t260 168t329.5 61.5q152 0 281.5 -45.5t225 -128t149.5 -197.5t54 -252q0 -164 -61.5 -307.5t-170 -251t-259 -170t-328.5 -62.5q-152 0 -283 46.5t-226 129t-149.5 197.5t-54.5 254zM485 631q0 -63 22.5 -116.5t62.5 -92.5t96.5 -60.5 t126.5 -21.5q82 0 149.5 31.5t116.5 86t75.5 126t26.5 149.5q0 63 -22.5 116.5t-62.5 92.5t-96 60.5t-126 21.5q-82 0 -149.5 -31.5t-116.5 -86t-76 -126t-27 -149.5z" />
<glyph unicode="P" horiz-adv-x="1355" d="M0 0l301 1366h721q86 0 159.5 -31.5t127 -86t84 -128t30.5 -157.5q0 -74 -27.5 -167.5t-97 -174t-185.5 -136t-294 -55.5h-311l-94 -430h-414zM588 791h252q57 0 106 32.5t49 91.5q0 47 -29.5 69t-82.5 22h-248z" />
<glyph unicode="Q" horiz-adv-x="1568" d="M57 602q0 164 61.5 307.5t171 250t260 168t329.5 61.5q152 0 281.5 -45.5t225 -128t149.5 -197.5t54 -252q0 -190 -81 -351t-222 -270l57 -98l-329 -149l-56 98q-47 -10 -93 -15.5t-95 -5.5q-152 0 -283 46.5t-226 129t-149.5 197.5t-54.5 254zM485 631q0 -119 75 -200 t200 -91l-68 119l330 149l63 -114q35 51 55.5 112.5t20.5 126.5q0 63 -22.5 116.5t-62.5 92.5t-96 60.5t-126 21.5q-82 0 -149.5 -31.5t-116.5 -86t-76 -126t-27 -149.5z" />
<glyph unicode="R" horiz-adv-x="1388" d="M0 0l301 1366h664q92 0 176 -29.5t146.5 -83t99 -130t36.5 -171.5q0 -90 -27.5 -170t-73.5 -143.5t-106.5 -108.5t-128.5 -69l136 -461h-455l-94 430h-166l-94 -430h-414zM588 791h246h6q68 0 111.5 28.5t43.5 87.5q0 43 -33.5 71t-80.5 28h-246z" />
<glyph unicode="S" horiz-adv-x="1255" d="M-37 242l246 295q35 -47 87 -85t114.5 -66t131 -43t138.5 -15q59 0 83.5 20.5t24.5 38.5q0 29 -48 50.5t-120.5 45t-157.5 53t-158 76.5t-121 116t-48 169q0 88 37 176t110.5 157.5t183 112.5t255.5 43q168 0 325.5 -57t270.5 -170l-248 -287q-86 86 -201.5 126 t-214.5 40q-41 0 -62.5 -16t-21.5 -39q0 -27 48.5 -48.5t122 -45t157.5 -54t157.5 -78.5t122 -117t48.5 -167q0 -109 -41 -200t-116 -156.5t-182.5 -103.5t-238.5 -38q-109 0 -210 18.5t-190 53.5t-161 84t-123 111z" />
<glyph unicode="T" horiz-adv-x="1218" d="M147 1006l80 360h1145l-80 -360h-364l-221 -1006h-414l221 1006h-367z" />
<glyph unicode="U" horiz-adv-x="1570" d="M113 475q0 12 3 41t7 45l178 805h420l-176 -795q-4 -20 -4 -49q0 -33 14 -66.5t43 -60t71 -43t101 -16.5q127 0 194.5 68.5t90.5 166.5l176 795h420l-178 -803q-27 -123 -78.5 -230.5t-135 -187t-203.5 -125t-286 -45.5q-168 0 -292 37t-204.5 103.5t-120.5 158 t-40 201.5z" />
<glyph unicode="V" horiz-adv-x="1454" d="M154 1366h448l92 -920l498 920h489l-804 -1366h-521z" />
<glyph unicode="W" horiz-adv-x="1953" d="M166 1366h452l-8 -836l391 836h312l22 -836l359 836h475l-692 -1366h-435l-6 774l-346 -774h-434z" />
<glyph unicode="X" horiz-adv-x="1400" d="M-147 0l628 725l-297 641h465l154 -365l284 365h510l-589 -688l319 -678h-467l-176 393l-324 -393h-507z" />
<glyph unicode="Y" horiz-adv-x="1359" d="M154 1366h444l152 -461l352 461h485l-690 -823l-119 -543h-413l118 543z" />
<glyph unicode="Z" horiz-adv-x="1228" d="M-37 0l72 328l649 678h-500l80 360h1067l-71 -326l-652 -680h516l-80 -360h-1081z" />
<glyph unicode="[" horiz-adv-x="649" d="M-88 -389l395 1778h502l-51 -234h-246l-291 -1311h246l-53 -233h-502z" />
<glyph unicode="\" horiz-adv-x="741" d="M201 1407h256l164 -1448h-256z" />
<glyph unicode="]" horiz-adv-x="649" d="M-160 -389l51 233h246l291 1311h-246l51 234h502l-395 -1778h-500z" />
<glyph unicode="^" horiz-adv-x="921" d="M78 682l444 684h264l136 -684h-246l-66 440l-260 -440h-272z" />
<glyph unicode="_" horiz-adv-x="1155" d="M-186 -315l53 233h1165l-53 -233h-1165z" />
<glyph unicode="`" horiz-adv-x="563" d="M207 1434h317l181 -295h-246z" />
<glyph unicode="a" d="M27 387q0 102 31.5 213t97 203t163 151.5t230.5 59.5q86 0 162.5 -32t124.5 -97l22 104h369l-219 -989h-369l25 104q-66 -72 -128.5 -100.5t-140.5 -28.5q-166 0 -267 105.5t-101 306.5zM408 465q0 -74 49 -119t114 -45q82 0 150 68l57 252q-62 67 -164 67 q-88 0 -147 -63.5t-59 -159.5z" />
<glyph unicode="b" d="M-8 0l301 1366h369l-107 -481q66 72 128 100.5t140 28.5q166 0 267.5 -105.5t101.5 -306.5q0 -102 -32 -212.5t-97.5 -203t-163.5 -152t-229 -59.5q-86 0 -163 32t-124 97l-23 -104h-368zM440 369q62 -68 164 -68q88 0 147.5 63.5t59.5 159.5q0 74 -49 119t-115 45 q-82 0 -149 -67z" />
<glyph unicode="c" horiz-adv-x="1028" d="M31 434q0 123 46 228.5t126 183.5t188.5 123t235.5 45q170 0 276.5 -60.5t157.5 -144.5l-275 -211q-23 37 -63.5 63.5t-99.5 26.5q-96 0 -158 -64.5t-62 -164.5q0 -72 54.5 -115t128.5 -43q51 0 94 22.5t72 57.5l196 -244q-25 -27 -63.5 -55.5t-89 -52t-112.5 -39 t-134 -15.5q-121 0 -217 35t-163 96.5t-102.5 145.5t-35.5 182z" />
<glyph unicode="d" d="M27 387q0 102 31.5 213t97 203t163 151.5t230.5 59.5q86 0 162.5 -32t124.5 -97l106 481h369l-303 -1366h-369l25 104q-66 -72 -128.5 -100.5t-140.5 -28.5q-166 0 -267 105.5t-101 306.5zM408 465q0 -74 49 -119t114 -45q82 0 150 68l57 252q-62 67 -164 67 q-88 0 -147 -63.5t-59 -159.5z" />
<glyph unicode="e" horiz-adv-x="1112" d="M31 426q0 119 43 225.5t120.5 187.5t186 128t237.5 47q92 0 176.5 -28t148 -84t101 -141t37.5 -198q0 -51 -7 -102t-15 -80h-664v-2q0 -6 11.5 -25.5t36 -41t63.5 -39t92 -17.5q59 0 119.5 13.5t95.5 35.5l113 -239q-76 -47 -170.5 -69t-184.5 -22q-121 0 -220 30 t-169.5 87.5t-110.5 141t-40 192.5zM430 614h326v7q0 10 -7.5 29.5t-24.5 38t-47 31.5t-73 13q-37 0 -66.5 -12t-52 -30.5t-37 -39t-18.5 -37.5z" />
<glyph unicode="f" horiz-adv-x="759" d="M51 670l72 319h162l12 53q16 70 50 133.5t86 109.5t125 73.5t167 27.5q82 0 166 -24.5t139 -81.5l-172 -205q-37 39 -98 39q-41 0 -64.5 -23.5t-31.5 -58.5l-11 -43h203l-72 -319h-200l-148 -670h-368l147 670h-164z" />
<glyph unicode="g" horiz-adv-x="1218" d="M-80 -225l207 243q23 -29 57.5 -50t75.5 -36.5t84 -23.5t84 -8q35 0 69.5 8t65.5 30.5t55.5 63.5t40.5 107l13 51q-53 -66 -123 -99.5t-148 -33.5q-72 0 -138 20.5t-118.5 66.5t-84 121.5t-31.5 184.5t33.5 215t99 190t161 136.5t218.5 52.5q78 0 157.5 -32t132.5 -97 l25 104h369l-197 -880q-37 -160 -103.5 -259.5t-149.5 -155.5t-172 -75.5t-169 -19.5q-154 0 -285 41t-229 135zM410 496q0 -61 48 -102.5t124 -41.5q43 0 80.5 18.5t66.5 51.5l41 186q-55 80 -174 80q-76 0 -131 -47t-55 -145z" />
<glyph unicode="h" horiz-adv-x="1245" d="M-6 0l301 1366h369l-111 -489q27 25 57.5 49t68.5 43.5t84 32t101 12.5q156 0 241 -75t85 -185q0 -16 -3 -41t-7 -39l-148 -674h-368l114 530q4 14 7 34t3 32q0 51 -38.5 71.5t-94.5 20.5q-49 0 -90 -24.5t-69 -51.5l-134 -612h-368z" />
<glyph unicode="i" horiz-adv-x="573" d="M-8 0l219 989h369l-220 -989h-368zM246 1237q0 57 21.5 101t55 75t75.5 46.5t81 15.5q82 0 134.5 -52.5t52.5 -124.5q0 -57 -21.5 -101t-55.5 -74.5t-76 -46t-81 -15.5q-82 0 -134 52t-52 124z" />
<glyph unicode="j" horiz-adv-x="573" d="M-393 -319l143 262q23 -25 52.5 -34t62.5 -9q102 0 135 143l211 946h369l-211 -946q-20 -96 -55 -177t-88.5 -140.5t-128.5 -93t-177 -33.5q-113 0 -186.5 19.5t-126.5 62.5zM246 1237q0 57 21.5 101t55 75t75.5 46.5t81 15.5q82 0 134.5 -52.5t52.5 -124.5 q0 -57 -21.5 -101t-55.5 -74.5t-76 -46t-81 -15.5q-82 0 -134 52t-52 124z" />
<glyph unicode="k" horiz-adv-x="1140" d="M-8 0l301 1366h369l-158 -709l291 332h456l-440 -450l244 -539h-443l-104 326l-98 -103l-50 -223h-368z" />
<glyph unicode="l" horiz-adv-x="573" d="M-8 0l301 1366h369l-302 -1366h-368z" />
<glyph unicode="m" horiz-adv-x="1837" d="M-8 0l219 989h369l-27 -112q20 20 48 44.5t63.5 45t79.5 34t100 13.5q80 0 137 -25.5t93 -57.5t52.5 -62.5t16.5 -43.5v-2q29 35 62.5 69t73.5 61.5t89 44t109 16.5q59 0 114.5 -17.5t98.5 -50.5t68.5 -81t25.5 -111q0 -23 -4 -48.5t-6 -31.5l-150 -674h-369l115 520 q4 14 8 37t4 39q0 47 -33.5 69.5t-80.5 22.5t-82 -23.5t-60 -52.5l-135 -612h-368l114 520q4 14 9.5 39t5.5 37q0 43 -31 67.5t-86 24.5q-47 0 -82 -25.5t-57 -50.5l-136 -612h-368z" />
<glyph unicode="n" horiz-adv-x="1243" d="M-8 0l219 989h369l-27 -112q27 25 57.5 49t68.5 43.5t84 32t101 12.5q156 0 241 -75t85 -185q0 -12 -3 -39t-7 -41l-150 -674h-368l114 520q4 14 8 36t4 40q0 51 -36.5 71.5t-81.5 20.5q-59 0 -102.5 -24.5t-71.5 -51.5l-136 -612h-368z" />
<glyph unicode="o" horiz-adv-x="1181" d="M29 436q0 113 43 217.5t121.5 184.5t187 128t240.5 48q131 0 230 -36t164.5 -98.5t99.5 -146.5t34 -180q0 -115 -43 -219.5t-122 -184t-187.5 -127t-239.5 -47.5t-230.5 36t-165 98.5t-99 146.5t-33.5 180zM406 455q0 -74 43.5 -114t121.5 -40q45 0 83 19.5t63.5 51 t40 73.5t14.5 90q0 74 -44 113.5t-122 39.5q-47 0 -84 -19.5t-62.5 -51t-39.5 -74.5t-14 -88z" />
<glyph unicode="p" horiz-adv-x="1218" d="M-92 -377l303 1366h369l-25 -104q66 72 128 100.5t140 28.5q166 0 267.5 -105.5t101.5 -306.5q0 -102 -32 -212.5t-97.5 -203t-163.5 -152t-229 -59.5q-86 0 -163 32t-124 97l-107 -481h-368zM440 369q62 -68 164 -68q88 0 147.5 63.5t59.5 159.5q0 74 -49 119t-115 45 q-82 0 -149 -67z" />
<glyph unicode="q" horiz-adv-x="1218" d="M27 387q0 102 31.5 213t97 203t163 151.5t230.5 59.5q86 0 162.5 -32t124.5 -97l22 104h369l-303 -1366h-369l109 481q-66 -72 -128.5 -100.5t-140.5 -28.5q-166 0 -267 105.5t-101 306.5zM408 465q0 -74 49 -119t114 -45q82 0 150 68l57 252q-62 67 -164 67 q-88 0 -147 -63.5t-59 -159.5z" />
<glyph unicode="r" horiz-adv-x="798" d="M-8 0l219 989h369l-25 -108q57 59 141 98t193 39l-80 -361q-14 4 -45 10.5t-66 6.5q-59 0 -112.5 -19.5t-93.5 -56.5l-132 -598h-368z" />
<glyph unicode="s" horiz-adv-x="1003" d="M-41 158l188 231q25 -23 65 -49.5t88 -49t102.5 -37.5t105.5 -15q29 0 46 10t17 26q0 29 -35.5 45.5t-89 32t-116 33.5t-115.5 51t-89 84t-36 131q0 68 28.5 133.5t84 116.5t137.5 82t190 31q125 0 247 -41t214 -119l-172 -223q-18 18 -49 39.5t-68.5 39t-80.5 29 t-86 11.5q-41 0 -58.5 -15.5t-17.5 -27.5q0 -20 35.5 -34t89 -28t116 -33.5t115.5 -53.5t89 -86t36 -130t-31.5 -144.5t-92 -115.5t-146.5 -78t-197 -29q-68 0 -138.5 11.5t-138 35t-128 57.5t-109.5 79z" />
<glyph unicode="t" horiz-adv-x="782" d="M51 670l72 319h164l59 271h369l-60 -271h201l-72 -319h-200l-54 -242q-4 -14 -5 -27.5t-1 -19.5q0 -35 22.5 -57.5t69.5 -22.5q14 0 31 3t21 7v-295q-29 -20 -77 -30.5t-99 -10.5q-160 0 -262.5 60.5t-102.5 189.5q0 10 2 33t6 45l80 367h-164z" />
<glyph unicode="u" horiz-adv-x="1241" d="M49 236q0 12 3 38.5t7 40.5l150 674h369l-121 -547q-6 -29 -6 -47q0 -51 37.5 -72.5t86.5 -21.5q55 0 97.5 25.5t70.5 52.5l136 610h368l-219 -989h-369l27 113q-27 -25 -57.5 -49.5t-68.5 -44t-84 -32t-101 -12.5q-156 0 -241 75t-85 186z" />
<glyph unicode="v" horiz-adv-x="1095" d="M78 989h379l61 -565l318 565h399l-602 -989h-391z" />
<glyph unicode="w" horiz-adv-x="1648" d="M84 989h369l10 -545l295 545h329l52 -545l252 545h391l-506 -989h-402l-40 553l-281 -553h-401z" />
<glyph unicode="x" horiz-adv-x="1067" d="M-135 0l434 508l-195 481h394l82 -231l184 231h414l-412 -481l215 -508h-393l-96 262l-216 -262h-411z" />
<glyph unicode="y" horiz-adv-x="1095" d="M-100 -375l116 314q18 -8 47 -11.5t58 -3.5q74 0 100 39l21 33l-164 993h379l61 -565l318 565h399l-678 -1112q-49 -80 -98 -133t-104.5 -86t-118 -46t-136.5 -13q-53 0 -105 6t-95 20z" />
<glyph unicode="z" horiz-adv-x="995" d="M-43 0l59 270l426 400h-338l72 319h852l-57 -258l-439 -412h355l-70 -319h-860z" />
<glyph unicode="{" horiz-adv-x="647" d="M-18 403l43 193q59 0 90.5 37t44.5 94l63 283q45 199 166 289t297 90h123l-51 -234h-123q-123 0 -156 -143l-78 -353q-16 -66 -47.5 -118t-87.5 -68q59 -35 60 -117q0 -16 -2 -33.5t-7 -35.5l-65 -297q-2 -10 -3 -18.5t-1 -16.5q0 -51 31.5 -81t78.5 -30h109l-53 -233 h-88q-70 0 -131.5 22.5t-107.5 63.5t-72.5 97t-26.5 124q0 37 8 70l63 284q2 10 3 19.5t1 17.5q0 43 -21.5 68.5t-59.5 25.5z" />
<glyph unicode="|" horiz-adv-x="454" d="M152 -41v1448h233v-1448h-233z" />
<glyph unicode="}" horiz-adv-x="647" d="M-164 -389l51 233h123q123 0 156 144l78 352q16 66 48 118t87 68q-59 35 -60 117q0 16 2.5 33.5t6.5 36.5l65 297q2 10 3 18t1 16q0 51 -31.5 81t-78.5 30h-109l53 234h88q70 0 131.5 -23t107.5 -63.5t72.5 -97t26.5 -124.5q0 -37 -8 -69l-63 -285q-2 -10 -3 -19.5 t-1 -17.5q0 -43 21.5 -68.5t60.5 -25.5l-43 -193q-59 0 -91 -36.5t-45 -94.5l-63 -282q-45 -199 -166 -289t-297 -90h-123z" />
<glyph unicode="~" horiz-adv-x="1060" d="M127 848q18 94 49 187t79 167t116.5 119t165.5 45q78 0 121.5 -24.5t65 -61.5t29 -81t10.5 -81t9 -61.5t29 -24.5q25 0 49 34t47 84t40 108.5t26 107.5l231 -29q-18 -90 -49 -182t-78 -166t-115.5 -121t-165.5 -47q-78 0 -121.5 24.5t-65 61.5t-29 80t-10.5 80t-9 61.5 t-29 24.5q-25 0 -49 -33t-45.5 -82t-39 -107.5t-26.5 -109.5z" />
<glyph unicode="&#xa1;" horiz-adv-x="579" d="M-125 -377l242 858h332l-136 -858h-438zM131 778q0 49 19.5 92t52.5 75t76 51.5t92 19.5q84 0 141 -59.5t57 -143.5q0 -49 -19.5 -92t-52 -75t-75.5 -51.5t-92 -19.5q-84 0 -141.5 59.5t-57.5 143.5z" />
<glyph unicode="&#xa2;" horiz-adv-x="1028" d="M31 434q0 117 42 218.5t115.5 178t174 125t219.5 56.5l32 145h258l-41 -176q82 -29 138.5 -74t91.5 -98l-275 -211q-23 37 -63.5 63.5t-99.5 26.5q-96 0 -158 -64.5t-62 -164.5q0 -72 54.5 -115t128.5 -43q51 0 94 22.5t72 57.5l196 -244q-45 -47 -131 -96t-207 -61 l-41 -185h-258l45 207q-156 47 -240.5 163t-84.5 269z" />
<glyph unicode="&#xa3;" horiz-adv-x="1189" d="M39 256q98 47 161.5 125t63.5 170v2h-201l52 223h96q-14 37 -23.5 77t-9.5 87q0 98 46 180t125 141.5t183.5 92t221.5 32.5q100 0 188 -18t158.5 -56t121 -95.5t74.5 -133.5l-370 -151q-10 66 -52.5 94.5t-99.5 28.5q-68 0 -107.5 -49.5t-39.5 -116.5q0 -31 5 -57.5 t11 -55.5h277l-52 -223h-231q-23 -63 -62.5 -111.5t-78.5 -64.5q29 10 49 12t37 2q41 0 72.5 -8t60 -17.5t59.5 -17.5t68 -8q51 0 85 19.5t60 48.5l84 -326q-35 -45 -98.5 -76t-165.5 -31q-66 0 -134.5 13.5t-131 30t-116.5 29.5t-89 13q-53 0 -105.5 -17t-115.5 -58z" />
<glyph unicode="&#xa4;" horiz-adv-x="1327" d="M-2 295l176 143q-31 68 -38 146t11 157q29 137 119 244l-112 150l241 192l125 -166q66 23 137.5 31t151.5 0q121 -14 211 -62l192 156l187 -223l-174 -141q29 -68 36 -145t-10 -154q-31 -139 -123 -250l113 -140l-240 -192l-129 160q-66 -23 -137 -31t-149 2 q-113 12 -201 53l-201 -164zM512 702q-18 -82 16.5 -141t126.5 -69t153.5 39t80.5 131q16 80 -21 139t-129 69t-151.5 -39t-75.5 -129z" />
<glyph unicode="&#xa5;" horiz-adv-x="1359" d="M-12 219l47 215h424l24 109h-424l50 215h288l-243 608h444l152 -461l352 461h485l-510 -608h293l-49 -215h-424l-25 -109h424l-47 -215h-424l-47 -219h-413l47 219h-424z" />
<glyph unicode="&#xa6;" horiz-adv-x="454" d="M152 -41v647h233v-647h-233zM152 760v647h233v-647h-233z" />
<glyph unicode="&#xa7;" horiz-adv-x="1024" d="M-88 10l192 217q63 -66 158.5 -104.5t188.5 -38.5q45 0 67.5 17.5t22.5 37.5q0 31 -35 51.5t-88 38t-114.5 38t-115 53t-88 84t-34.5 128.5q0 207 225 299q-53 31 -83 87.5t-30 121.5q0 82 35 145.5t94.5 108.5t141 68.5t174.5 23.5q166 0 279.5 -39.5t191.5 -107.5 l-181 -201q-43 41 -118.5 70t-157.5 29q-57 0 -76.5 -18.5t-19.5 -41.5q0 -29 35.5 -45t88 -32.5t115 -36t114.5 -52t88 -81.5t36 -125q0 -53 -17.5 -102.5t-48 -89.5t-70.5 -70.5t-83 -49.5q53 -31 79.5 -84t26.5 -112q0 -80 -34.5 -147.5t-95 -115t-143.5 -74t-181 -26.5 q-160 0 -302.5 45t-236.5 131zM436 604q0 -37 32 -62.5t75 -35.5q47 10 70.5 43.5t23.5 68.5q0 41 -28.5 66t-61.5 33q-57 -10 -84 -41t-27 -72z" />
<glyph unicode="&#xa8;" horiz-adv-x="651" d="M90 1245q0 39 17.5 76t46 65.5t65.5 45t78 16.5q70 0 116 -46t46 -116q0 -41 -17.5 -76.5t-46 -64.5t-66.5 -45.5t-77 -16.5q-70 0 -116 46.5t-46 115.5zM532 1245q0 39 17.5 76t46.5 65.5t65.5 45t77.5 16.5q70 0 116 -46t46 -116q0 -41 -17.5 -76.5t-46 -64.5 t-66.5 -45.5t-77 -16.5q-70 0 -116 46.5t-46 115.5z" />
<glyph unicode="&#xa9;" horiz-adv-x="1593" d="M131 684q0 147 55.5 275t150.5 224.5t224 152t275 55.5q147 0 276 -55.5t225.5 -152t151.5 -224.5t55 -275q0 -145 -55 -274t-151.5 -225.5t-225.5 -152t-276 -55.5q-145 0 -274.5 55.5t-224.5 152t-150.5 225.5t-55.5 274zM217 684q0 -127 49 -240.5t133 -197.5 t197 -133.5t240 -49.5q129 0 241.5 49.5t197.5 133.5t134 197.5t49 240.5q0 129 -49 241.5t-134 196.5t-197.5 133.5t-241.5 49.5q-127 0 -240 -49.5t-197 -133.5t-133 -196.5t-49 -241.5zM418 629q0 104 39 192t104.5 152.5t151.5 101.5t178 37q104 0 192 -41t142 -125 l-92 -65q-37 66 -100.5 100.5t-147.5 34.5q-66 0 -129.5 -29t-113.5 -79t-81 -120.5t-31 -154.5q0 -55 18.5 -106.5t54.5 -89.5t88 -61.5t120 -23.5t127 30t102 71l62 -82q-55 -47 -133 -81t-160 -34q-88 0 -161 27.5t-124 78t-78.5 119t-27.5 148.5z" />
<glyph unicode="&#xaa;" horiz-adv-x="854" d="M139 920q0 88 28 163.5t75 129t108.5 84t130.5 30.5q59 0 109.5 -16.5t85.5 -63.5l14 64h260l-141 -643h-262l12 63q-41 -45 -81 -62.5t-87 -17.5q-51 0 -96 17.5t-80 51.5t-55.5 84t-20.5 116zM408 954q0 -53 29.5 -75.5t72.5 -22.5q20 0 45 9t43 26l45 207 q-18 14 -43 20t-45 6q-66 0 -106.5 -51t-40.5 -119z" />
<glyph unicode="&#xab;" horiz-adv-x="1259" d="M59 498l410 362h336l-418 -373l238 -358h-320zM541 498l409 362h336l-418 -373l238 -358h-320z" />
<glyph unicode="&#xac;" horiz-adv-x="1079" d="M117 764l47 215h926l-129 -590h-222l82 375h-704z" />
<glyph unicode="&#xad;" horiz-adv-x="614" d="M27 342l67 307h492l-68 -307h-491z" />
<glyph unicode="&#xae;" horiz-adv-x="1011" d="M172 952q0 90 34 170t93 138.5t138 92t169 33.5t170 -33.5t138.5 -92t92 -138.5t33.5 -170t-33.5 -168.5t-93 -138t-139.5 -93.5t-170 -34t-169 34t-137 93.5t-92 138t-34 168.5zM244 952q0 -74 27.5 -140.5t76.5 -115.5t114.5 -77.5t141.5 -28.5t142.5 28.5t115.5 77.5 t78 115.5t29 140.5q0 76 -29 142.5t-78 116t-115.5 77t-142.5 27.5t-141.5 -27.5t-114.5 -77t-76.5 -116t-27.5 -142.5zM383 702l109 498h192q72 0 111 -40t39 -91q0 -35 -13.5 -65.5t-37 -53t-53.5 -36t-60 -13.5l90 -199h-88l-86 197h-84l-43 -197h-76zM516 965h127 q53 0 82 29.5t29 70.5q0 29 -19.5 50.5t-68.5 21.5h-111z" />
<glyph unicode="&#xaf;" horiz-adv-x="743" d="M139 1128l43 199h742l-43 -199h-742z" />
<glyph unicode="&#xb0;" horiz-adv-x="677" d="M164 1081q0 63 23.5 118.5t64.5 96.5t96 65.5t119 24.5q63 0 118.5 -24.5t96.5 -65.5t65.5 -96.5t24.5 -118.5t-24.5 -118.5t-65.5 -96.5t-96.5 -64.5t-118.5 -23.5t-118.5 23.5t-96.5 64.5t-64.5 96.5t-23.5 118.5zM350 1081q0 -49 33 -82.5t82 -33.5t86 33.5t37 82.5 t-36 85t-85 36t-83 -36t-34 -85z" />
<glyph unicode="&#xb1;" horiz-adv-x="1044" d="M-51 0l47 215h926l-48 -215h-925zM96 672l47 215h344l86 379h238l-86 -379h344l-47 -215h-344l-88 -396h-238l88 396h-344z" />
<glyph unicode="&#xb2;" horiz-adv-x="833" d="M165 862l45 203q170 96 267.5 154.5t146.5 94t61.5 56t12.5 43.5q0 31 -26.5 49t-78.5 18q-66 0 -129 -25.5t-98 -57.5l-106 180q33 29 75.5 50t89 36.5t93.5 22.5t88 7q86 0 154.5 -19t116.5 -53t73.5 -80t25.5 -101q0 -45 -19 -87t-62 -86.5t-114 -90.5t-175 -101h299 l-47 -213h-693z" />
<glyph unicode="&#xb3;" horiz-adv-x="833" d="M167 999l162 168q45 -57 109.5 -81.5t120.5 -24.5q53 0 72.5 17t19.5 40q0 53 -162 53h-41t-35 -2l45 209q6 0 25.5 -1t41 -1h42h33.5q59 0 82.5 13.5t23.5 37.5q0 29 -41 41t-94 12t-106.5 -14t-98.5 -49l-84 168q61 53 146.5 80.5t171.5 27.5q182 0 282.5 -61 t100.5 -166q0 -33 -12.5 -66.5t-40 -62.5t-70.5 -48t-103 -24q72 -18 116 -61t44 -117q0 -43 -22.5 -86t-66.5 -76.5t-108.5 -55t-146.5 -21.5q-135 0 -244.5 42t-161.5 109z" />
<glyph unicode="&#xb4;" horiz-adv-x="563" d="M137 1139l312 295h321l-383 -295h-250z" />
<glyph unicode="&#xb5;" horiz-adv-x="1269" d="M-94 -377l311 1366h369l-125 -549q-16 -68 14.5 -103.5t95.5 -35.5q61 0 103.5 25.5t70.5 52.5l134 610h368l-137 -624q-8 -33 9.5 -48.5t45.5 -15.5q23 0 41 6l-47 -311q-35 -10 -81 -15.5t-85 -5.5q-123 0 -192.5 43t-85.5 136q-51 -78 -123 -128.5t-158 -50.5 q-20 0 -43.5 5.5t-32.5 9.5l-84 -367h-368z" />
<glyph unicode="&#xb6;" horiz-adv-x="919" d="M162 981q0 72 29.5 141.5t83 123.5t126 87t158.5 33h506l-348 -1571h-164l313 1407h-139l-313 -1407h-164l192 867q-57 0 -108 23.5t-89 66.5t-60.5 101t-22.5 128z" />
<glyph unicode="&#xb7;" horiz-adv-x="579" d="M70 485q0 49 19.5 92.5t52 75t75.5 51t92 19.5q84 0 141.5 -59.5t57.5 -143.5q0 -49 -19.5 -92t-52.5 -74.5t-76 -51t-92 -19.5q-84 0 -141 59t-57 143z" />
<glyph unicode="&#xb8;" horiz-adv-x="485" d="M-182 -319l88 122q39 -33 84 -53t92 -20q33 0 55.5 11t22.5 38q0 14 -11.5 24.5t-33.5 10.5q-29 0 -49 -25l-107 70l98 164h164l-78 -119q27 18 60 18q51 0 87 -36t36 -97q0 -47 -19.5 -84t-52.5 -62.5t-77 -39t-93 -13.5q-90 0 -160.5 28t-105.5 63z" />
<glyph unicode="&#xb9;" horiz-adv-x="688" d="M188 1358l405 323h232l-180 -819h-271l103 469l-170 -135z" />
<glyph unicode="&#xba;" horiz-adv-x="829" d="M143 956q0 82 34 151t91.5 118t129 75.5t149.5 26.5q84 0 149.5 -23.5t111.5 -64.5t70.5 -96.5t24.5 -120.5q0 -84 -33.5 -151.5t-91 -116.5t-130 -76t-148.5 -27q-84 0 -149.5 23.5t-111.5 64.5t-71 96.5t-25 120.5zM410 948q0 -92 96 -92q37 0 61.5 16.5t40 42t22.5 55 t7 56.5q0 92 -96 92q-37 0 -62.5 -16.5t-41 -42t-21.5 -55t-6 -56.5z" />
<glyph unicode="&#xbb;" horiz-adv-x="1259" d="M-23 129l418 373l-237 358h319l246 -368l-410 -363h-336zM459 129l418 373l-238 358h319l246 -368l-409 -363h-336z" />
<glyph unicode="&#xbc;" horiz-adv-x="1837" d="M119 1043l405 323h232l-180 -819h-271l103 469l-170 -135zM233 0l1174 1366h200l-1175 -1366h-199zM963 145l41 179l401 495h379l-102 -465h96l-47 -209h-96l-31 -145h-268l30 145h-403zM1276 354h138l51 234z" />
<glyph unicode="&#xbd;" horiz-adv-x="1898" d="M119 1043l405 323h232l-180 -819h-271l103 469l-170 -135zM233 0l1174 1366h200l-1175 -1366h-199zM1040 0l45 203q170 96 267.5 154.5t146.5 94t61.5 56t12.5 43.5q0 31 -26.5 49t-78.5 18q-66 0 -129 -25.5t-98 -57.5l-106 180q33 29 75.5 50t89 36.5t93.5 22.5t88 7 q86 0 154.5 -19t116.5 -53t73.5 -80t25.5 -101q0 -45 -19 -87t-62 -86.5t-114 -90.5t-175 -101h299l-47 -213h-693z" />
<glyph unicode="&#xbe;" horiz-adv-x="1974" d="M98 684l162 168q45 -57 109.5 -81.5t120.5 -24.5q53 0 72.5 17t19.5 40q0 53 -162 53h-41t-35 -2l45 209q6 0 25.5 -1t41 -1h42h33.5q59 0 82.5 13.5t23.5 37.5q0 29 -41 41t-94 12t-106.5 -14t-98.5 -49l-84 168q61 53 146.5 80.5t171.5 27.5q182 0 282.5 -61 t100.5 -166q0 -33 -12.5 -66.5t-40 -62.5t-70.5 -48t-103 -24q72 -18 116 -61t44 -117q0 -43 -22.5 -86t-66.5 -76.5t-108.5 -55t-146.5 -21.5q-135 0 -244.5 42t-161.5 109zM371 0l1174 1366h200l-1175 -1366h-199zM1100 145l41 179l401 495h379l-102 -465h96l-47 -209h-96 l-31 -145h-268l30 145h-403zM1413 354h138l51 234z" />
<glyph unicode="&#xbf;" horiz-adv-x="821" d="M-109 -94q0 90 30 149.5t73 101.5t95 69.5t95 55t73 59.5t30 79q0 4 -2 14t-9 21l340 73q10 -29 15.5 -63.5t5.5 -77.5q0 -76 -22.5 -129t-57.5 -89t-75 -60.5t-74.5 -42t-57 -32t-22.5 -32.5q0 -20 19.5 -30.5t66.5 -10.5q41 0 91 15.5t91 48.5l170 -285 q-100 -76 -208.5 -107.5t-211.5 -31.5q-88 0 -170 19.5t-145.5 57t-101.5 95t-38 133.5zM301 776q0 49 19.5 92t52.5 75t76 51.5t92 19.5q84 0 141 -59.5t57 -143.5q0 -49 -19.5 -92t-52 -75t-75.5 -51.5t-92 -19.5q-84 0 -141.5 59.5t-57.5 143.5z" />
<glyph unicode="&#xc0;" horiz-adv-x="1454" d="M-147 0l804 1366h521l202 -1366h-448l-14 160h-492l-84 -160h-489zM590 1776h317l181 -295h-246zM616 520h271l-39 441z" />
<glyph unicode="&#xc1;" horiz-adv-x="1454" d="M-147 0l804 1366h521l202 -1366h-448l-14 160h-492l-84 -160h-489zM616 520h271l-39 441zM799 1481l312 295h321l-383 -295h-250z" />
<glyph unicode="&#xc2;" horiz-adv-x="1454" d="M-147 0l804 1366h521l202 -1366h-448l-14 160h-492l-84 -160h-489zM604 1481l246 295h320l120 -295h-211l-98 149l-158 -149h-219zM616 520h271l-39 441z" />
<glyph unicode="&#xc3;" horiz-adv-x="1454" d="M-147 0l804 1366h521l202 -1366h-448l-14 160h-492l-84 -160h-489zM598 1489q29 141 85.5 207.5t174.5 66.5q51 0 87 -13t64 -30.5t51.5 -31t51.5 -13.5q39 0 58 76h184q-31 -141 -87 -207.5t-175 -66.5q-51 0 -86 13t-62.5 30.5t-51 31t-52.5 13.5q-43 0 -57 -76h-185z M616 520h271l-39 441z" />
<glyph unicode="&#xc4;" horiz-adv-x="1454" d="M-147 0l804 1366h521l202 -1366h-448l-14 160h-492l-84 -160h-489zM567 1587q0 39 17.5 76t46 65.5t65.5 45t78 16.5q70 0 116 -46t46 -116q0 -41 -17.5 -76.5t-46 -64.5t-66.5 -45.5t-77 -16.5q-70 0 -116 46.5t-46 115.5zM616 520h271l-39 441zM1009 1587q0 39 17.5 76 t46.5 65.5t65.5 45t77.5 16.5q70 0 116 -46t46 -116q0 -41 -17.5 -76.5t-46 -64.5t-66.5 -45.5t-77 -16.5q-70 0 -116 46.5t-46 115.5z" />
<glyph unicode="&#xc5;" horiz-adv-x="1454" d="M-147 0l804 1366h521l202 -1366h-448l-14 160h-492l-84 -160h-489zM616 520h271l-39 441zM745 1614q0 51 20.5 96t54.5 79t79 54.5t96 20.5q94 0 151.5 -57.5t57.5 -151.5q0 -51 -20.5 -96.5t-54.5 -79t-79 -54t-96 -20.5q-94 0 -151.5 57.5t-57.5 151.5zM905 1630 q0 -29 18 -47t47 -18t51.5 22.5t22.5 50.5q0 29 -18.5 47.5t-46.5 18.5q-29 0 -51.5 -22.5t-22.5 -51.5z" />
<glyph unicode="&#xc6;" horiz-adv-x="2025" d="M-162 0l1110 1366h1206l-79 -360h-623l-29 -136h609l-80 -360h-609l-32 -150h622l-80 -360h-1036l35 160h-414l-119 -160h-481zM711 520h221l92 422z" />
<glyph unicode="&#xc7;" horiz-adv-x="1427" d="M57 602q0 178 64.5 322.5t176.5 248t261.5 160t319.5 56.5q150 0 262 -40t191 -104.5t128 -145.5t74 -163l-397 -125q-18 96 -93 154.5t-184 58.5q-84 0 -152.5 -33t-117.5 -87t-77 -125.5t-28 -147.5q0 -59 21.5 -111.5t61.5 -92.5t96.5 -63.5t128.5 -23.5 q39 0 80.5 12.5t79.5 34t68 50t48 61.5l324 -209q-63 -92 -142.5 -152.5t-163 -96.5t-165.5 -50.5t-152 -14.5h-23.5t-23.5 2l-47 -73q27 18 59 18q51 0 87 -36t36 -97q0 -47 -19.5 -84t-52 -62.5t-77 -39t-93.5 -13.5q-90 0 -160.5 28t-105.5 63l88 122q39 -33 84 -53 t92 -20q33 0 55.5 11t22.5 38q0 14 -11 24.5t-34 10.5q-29 0 -49 -25l-106 70l81 139q-111 25 -206 77t-163.5 130t-107.5 177t-39 220z" />
<glyph unicode="&#xc8;" d="M0 0l301 1366h1036l-80 -360h-622l-29 -136h608l-79 -360h-609l-32 -150h622l-80 -360h-1036zM488 1776h317l181 -295h-246z" />
<glyph unicode="&#xc9;" d="M0 0l301 1366h1036l-80 -360h-622l-29 -136h608l-79 -360h-609l-32 -150h622l-80 -360h-1036zM698 1481l312 295h321l-383 -295h-250z" />
<glyph unicode="&#xca;" d="M0 0l301 1366h1036l-80 -360h-622l-29 -136h608l-79 -360h-609l-32 -150h622l-80 -360h-1036zM499 1481l246 295h320l120 -295h-211l-98 149l-158 -149h-219z" />
<glyph unicode="&#xcb;" d="M0 0l301 1366h1036l-80 -360h-622l-29 -136h608l-79 -360h-609l-32 -150h622l-80 -360h-1036zM467 1587q0 39 17.5 76t46 65.5t65.5 45t78 16.5q70 0 116 -46t46 -116q0 -41 -17.5 -76.5t-46 -64.5t-66.5 -45.5t-77 -16.5q-70 0 -116 46.5t-46 115.5zM909 1587 q0 39 17.5 76t46.5 65.5t65.5 45t77.5 16.5q70 0 116 -46t46 -116q0 -41 -17.5 -76.5t-46 -64.5t-66.5 -45.5t-77 -16.5q-70 0 -116 46.5t-46 115.5z" />
<glyph unicode="&#xcc;" horiz-adv-x="634" d="M0 0l301 1366h414l-301 -1366h-414zM180 1776h317l181 -295h-246z" />
<glyph unicode="&#xcd;" horiz-adv-x="634" d="M0 0l301 1366h414l-301 -1366h-414zM385 1481l312 295h321l-383 -295h-250z" />
<glyph unicode="&#xce;" horiz-adv-x="634" d="M0 0l301 1366h414l-301 -1366h-414zM188 1481l246 295h320l120 -295h-211l-98 149l-158 -149h-219z" />
<glyph unicode="&#xcf;" horiz-adv-x="634" d="M0 0l301 1366h414l-301 -1366h-414zM156 1587q0 39 17.5 76t46 65.5t65.5 45t78 16.5q70 0 116 -46t46 -116q0 -41 -17.5 -76.5t-46 -64.5t-66.5 -45.5t-77 -16.5q-70 0 -116 46.5t-46 115.5zM598 1587q0 39 17.5 76t46.5 65.5t65.5 45t77.5 16.5q70 0 116 -46t46 -116 q0 -41 -17.5 -76.5t-46 -64.5t-66.5 -45.5t-77 -16.5q-70 0 -116 46.5t-46 115.5z" />
<glyph unicode="&#xd0;" horiz-adv-x="1550" d="M18 520l72 326h139l115 520h600q113 0 224.5 -41t198.5 -118t141.5 -186.5t54.5 -244.5q0 -129 -45 -267t-151.5 -251t-281 -185.5t-434.5 -72.5h-608l115 520h-140zM537 360h196q94 0 169 32t127 84t79 122t27 147q0 55 -19.5 102.5t-54.5 82.5t-84 55.5t-109 20.5h-190 l-35 -160h262l-71 -326h-263z" />
<glyph unicode="&#xd1;" horiz-adv-x="1536" d="M0 0l301 1366h426l328 -664l147 664h414l-301 -1366h-397l-349 709l-155 -709h-414zM635 1489q29 141 85.5 207.5t174.5 66.5q51 0 87 -13t64 -30.5t51.5 -31t51.5 -13.5q39 0 58 76h184q-31 -141 -87 -207.5t-175 -66.5q-51 0 -86 13t-62.5 30.5t-51 31t-52.5 13.5 q-43 0 -57 -76h-185z" />
<glyph unicode="&#xd2;" horiz-adv-x="1568" d="M57 602q0 164 61.5 307.5t171 250t260 168t329.5 61.5q152 0 281.5 -45.5t225 -128t149.5 -197.5t54 -252q0 -164 -61.5 -307.5t-170 -251t-259 -170t-328.5 -62.5q-152 0 -283 46.5t-226 129t-149.5 197.5t-54.5 254zM485 631q0 -63 22.5 -116.5t62.5 -92.5t96.5 -60.5 t126.5 -21.5q82 0 149.5 31.5t116.5 86t75.5 126t26.5 149.5q0 63 -22.5 116.5t-62.5 92.5t-96 60.5t-126 21.5q-82 0 -149.5 -31.5t-116.5 -86t-76 -126t-27 -149.5zM645 1776h317l181 -295h-246z" />
<glyph unicode="&#xd3;" horiz-adv-x="1568" d="M57 602q0 164 61.5 307.5t171 250t260 168t329.5 61.5q152 0 281.5 -45.5t225 -128t149.5 -197.5t54 -252q0 -164 -61.5 -307.5t-170 -251t-259 -170t-328.5 -62.5q-152 0 -283 46.5t-226 129t-149.5 197.5t-54.5 254zM485 631q0 -63 22.5 -116.5t62.5 -92.5t96.5 -60.5 t126.5 -21.5q82 0 149.5 31.5t116.5 86t75.5 126t26.5 149.5q0 63 -22.5 116.5t-62.5 92.5t-96 60.5t-126 21.5q-82 0 -149.5 -31.5t-116.5 -86t-76 -126t-27 -149.5zM850 1481l312 295h321l-383 -295h-250z" />
<glyph unicode="&#xd4;" horiz-adv-x="1568" d="M57 602q0 164 61.5 307.5t171 250t260 168t329.5 61.5q152 0 281.5 -45.5t225 -128t149.5 -197.5t54 -252q0 -164 -61.5 -307.5t-170 -251t-259 -170t-328.5 -62.5q-152 0 -283 46.5t-226 129t-149.5 197.5t-54.5 254zM485 631q0 -63 22.5 -116.5t62.5 -92.5t96.5 -60.5 t126.5 -21.5q82 0 149.5 31.5t116.5 86t75.5 126t26.5 149.5q0 63 -22.5 116.5t-62.5 92.5t-96 60.5t-126 21.5q-82 0 -149.5 -31.5t-116.5 -86t-76 -126t-27 -149.5zM657 1481l246 295h320l120 -295h-211l-98 149l-158 -149h-219z" />
<glyph unicode="&#xd5;" horiz-adv-x="1568" d="M57 602q0 164 61.5 307.5t171 250t260 168t329.5 61.5q152 0 281.5 -45.5t225 -128t149.5 -197.5t54 -252q0 -164 -61.5 -307.5t-170 -251t-259 -170t-328.5 -62.5q-152 0 -283 46.5t-226 129t-149.5 197.5t-54.5 254zM485 631q0 -63 22.5 -116.5t62.5 -92.5t96.5 -60.5 t126.5 -21.5q82 0 149.5 31.5t116.5 86t75.5 126t26.5 149.5q0 63 -22.5 116.5t-62.5 92.5t-96 60.5t-126 21.5q-82 0 -149.5 -31.5t-116.5 -86t-76 -126t-27 -149.5zM655 1489q29 141 85.5 207.5t174.5 66.5q51 0 87 -13t64 -30.5t51.5 -31t51.5 -13.5q39 0 58 76h184 q-31 -141 -87 -207.5t-175 -66.5q-51 0 -86 13t-62.5 30.5t-51 31t-52.5 13.5q-43 0 -57 -76h-185z" />
<glyph unicode="&#xd6;" horiz-adv-x="1568" d="M57 602q0 164 61.5 307.5t171 250t260 168t329.5 61.5q152 0 281.5 -45.5t225 -128t149.5 -197.5t54 -252q0 -164 -61.5 -307.5t-170 -251t-259 -170t-328.5 -62.5q-152 0 -283 46.5t-226 129t-149.5 197.5t-54.5 254zM485 631q0 -63 22.5 -116.5t62.5 -92.5t96.5 -60.5 t126.5 -21.5q82 0 149.5 31.5t116.5 86t75.5 126t26.5 149.5q0 63 -22.5 116.5t-62.5 92.5t-96 60.5t-126 21.5q-82 0 -149.5 -31.5t-116.5 -86t-76 -126t-27 -149.5zM622 1587q0 39 17.5 76t46 65.5t65.5 45t78 16.5q70 0 116 -46t46 -116q0 -41 -17.5 -76.5t-46 -64.5 t-66.5 -45.5t-77 -16.5q-70 0 -116 46.5t-46 115.5zM1064 1587q0 39 17.5 76t46.5 65.5t65.5 45t77.5 16.5q70 0 116 -46t46 -116q0 -41 -17.5 -76.5t-46 -64.5t-66.5 -45.5t-77 -16.5q-70 0 -116 46.5t-46 115.5z" />
<glyph unicode="&#xd7;" horiz-adv-x="1044" d="M68 416l346 282l-209 267l172 139l205 -266l342 278l133 -164l-342 -282l205 -267l-170 -139l-207 266l-340 -278z" />
<glyph unicode="&#xd8;" horiz-adv-x="1568" d="M-74 0l252 236q-59 76 -90 168t-31 198q0 164 61.5 307.5t171 250t260 168t329.5 61.5q242 0 417 -111l95 88h282l-227 -213q68 -78 105.5 -175t37.5 -212q0 -164 -61.5 -307.5t-170 -251t-259 -170t-328.5 -62.5q-131 0 -244.5 34t-206.5 95l-110 -104h-283zM485 631 q0 -53 15 -96l493 460q-63 29 -139 29q-82 0 -149.5 -31.5t-116.5 -86t-76 -126t-27 -149.5zM621 383q35 -20 78 -31.5t94 -11.5q82 0 149.5 31.5t116.5 86t75.5 126t26.5 149.5q0 68 -28 129z" />
<glyph unicode="&#xd9;" horiz-adv-x="1570" d="M113 475q0 12 3 41t7 45l178 805h420l-176 -795q-4 -20 -4 -49q0 -33 14 -66.5t43 -60t71 -43t101 -16.5q127 0 194.5 68.5t90.5 166.5l176 795h420l-178 -803q-27 -123 -78.5 -230.5t-135 -187t-203.5 -125t-286 -45.5q-168 0 -292 37t-204.5 103.5t-120.5 158 t-40 201.5zM645 1776h317l181 -295h-246z" />
<glyph unicode="&#xda;" horiz-adv-x="1570" d="M113 475q0 12 3 41t7 45l178 805h420l-176 -795q-4 -20 -4 -49q0 -33 14 -66.5t43 -60t71 -43t101 -16.5q127 0 194.5 68.5t90.5 166.5l176 795h420l-178 -803q-27 -123 -78.5 -230.5t-135 -187t-203.5 -125t-286 -45.5q-168 0 -292 37t-204.5 103.5t-120.5 158 t-40 201.5zM848 1481l312 295h321l-383 -295h-250z" />
<glyph unicode="&#xdb;" horiz-adv-x="1570" d="M113 475q0 12 3 41t7 45l178 805h420l-176 -795q-4 -20 -4 -49q0 -33 14 -66.5t43 -60t71 -43t101 -16.5q127 0 194.5 68.5t90.5 166.5l176 795h420l-178 -803q-27 -123 -78.5 -230.5t-135 -187t-203.5 -125t-286 -45.5q-168 0 -292 37t-204.5 103.5t-120.5 158 t-40 201.5zM653 1481l246 295h320l120 -295h-211l-98 149l-158 -149h-219z" />
<glyph unicode="&#xdc;" horiz-adv-x="1570" d="M113 475q0 12 3 41t7 45l178 805h420l-176 -795q-4 -20 -4 -49q0 -33 14 -66.5t43 -60t71 -43t101 -16.5q127 0 194.5 68.5t90.5 166.5l176 795h420l-178 -803q-27 -123 -78.5 -230.5t-135 -187t-203.5 -125t-286 -45.5q-168 0 -292 37t-204.5 103.5t-120.5 158 t-40 201.5zM622 1587q0 39 17.5 76t46 65.5t65.5 45t78 16.5q70 0 116 -46t46 -116q0 -41 -17.5 -76.5t-46 -64.5t-66.5 -45.5t-77 -16.5q-70 0 -116 46.5t-46 115.5zM1064 1587q0 39 17.5 76t46.5 65.5t65.5 45t77.5 16.5q70 0 116 -46t46 -116q0 -41 -17.5 -76.5 t-46 -64.5t-66.5 -45.5t-77 -16.5q-70 0 -116 46.5t-46 115.5z" />
<glyph unicode="&#xdd;" horiz-adv-x="1359" d="M154 1366h444l152 -461l352 461h485l-690 -823l-119 -543h-413l118 543zM749 1481l312 295h321l-383 -295h-250z" />
<glyph unicode="&#xde;" horiz-adv-x="1355" d="M0 0l301 1366h414l-43 -197h307q88 0 163 -32.5t127 -89t81.5 -129t29.5 -152.5q0 -88 -31.5 -182.5t-103 -172t-186.5 -128t-281 -50.5h-313l-51 -233h-414zM545 594h252q68 0 111.5 36t43.5 89q0 45 -29.5 67.5t-82.5 22.5h-248z" />
<glyph unicode="&#xdf;" horiz-adv-x="1409" d="M-6 0l203 924q20 92 63 176t114.5 147.5t175 101t243.5 37.5q94 0 179 -22.5t149.5 -65.5t103.5 -102t39 -133q0 -70 -23.5 -121t-58.5 -88t-75 -63.5t-75 -47t-58.5 -38t-23.5 -35.5q0 -14 30 -23.5t75 -22t97 -29.5t97 -49t75 -81t30 -123q0 -76 -35 -142.5 t-96.5 -116.5t-143.5 -79t-176 -29q-135 0 -250.5 39t-208.5 133l187 228q53 -57 121.5 -91t156.5 -34q29 0 52.5 12t23.5 29q0 23 -29.5 36t-73.5 26.5t-96.5 28.5t-96.5 43t-73.5 72t-29.5 113q0 106 44 170t98 104t98 66.5t44 61.5t-33.5 57.5t-86.5 22.5 q-43 0 -75 -14.5t-53.5 -37t-35 -53.5t-21.5 -63l-203 -924h-368z" />
<glyph unicode="&#xe0;" d="M27 387q0 102 31.5 213t97 203t163 151.5t230.5 59.5q86 0 162.5 -32t124.5 -97l22 104h369l-219 -989h-369l25 104q-66 -72 -128.5 -100.5t-140.5 -28.5q-166 0 -267 105.5t-101 306.5zM387 1434h317l181 -295h-246zM408 465q0 -74 49 -119t114 -45q82 0 150 68l57 252 q-62 67 -164 67q-88 0 -147 -63.5t-59 -159.5z" />
<glyph unicode="&#xe1;" d="M27 387q0 102 31.5 213t97 203t163 151.5t230.5 59.5q86 0 162.5 -32t124.5 -97l22 104h369l-219 -989h-369l25 104q-66 -72 -128.5 -100.5t-140.5 -28.5q-166 0 -267 105.5t-101 306.5zM408 465q0 -74 49 -119t114 -45q82 0 150 68l57 252q-62 67 -164 67 q-88 0 -147 -63.5t-59 -159.5zM594 1139l312 295h321l-383 -295h-250z" />
<glyph unicode="&#xe2;" d="M27 387q0 102 31.5 213t97 203t163 151.5t230.5 59.5q86 0 162.5 -32t124.5 -97l22 104h369l-219 -989h-369l25 104q-66 -72 -128.5 -100.5t-140.5 -28.5q-166 0 -267 105.5t-101 306.5zM395 1139l246 295h320l120 -295h-211l-98 149l-158 -149h-219zM408 465 q0 -74 49 -119t114 -45q82 0 150 68l57 252q-62 67 -164 67q-88 0 -147 -63.5t-59 -159.5z" />
<glyph unicode="&#xe3;" d="M27 387q0 102 31.5 213t97 203t163 151.5t230.5 59.5q86 0 162.5 -32t124.5 -97l22 104h369l-219 -989h-369l25 104q-66 -72 -128.5 -100.5t-140.5 -28.5q-166 0 -267 105.5t-101 306.5zM395 1147q29 141 85.5 207.5t174.5 66.5q51 0 87 -13t64 -30.5t51.5 -31 t51.5 -13.5q39 0 58 76h184q-31 -141 -87 -207.5t-175 -66.5q-51 0 -86 13t-62.5 30.5t-51 31t-52.5 13.5q-43 0 -57 -76h-185zM408 465q0 -74 49 -119t114 -45q82 0 150 68l57 252q-62 67 -164 67q-88 0 -147 -63.5t-59 -159.5z" />
<glyph unicode="&#xe4;" d="M27 387q0 102 31.5 213t97 203t163 151.5t230.5 59.5q86 0 162.5 -32t124.5 -97l22 104h369l-219 -989h-369l25 104q-66 -72 -128.5 -100.5t-140.5 -28.5q-166 0 -267 105.5t-101 306.5zM360 1245q0 39 17.5 76t46 65.5t65.5 45t78 16.5q70 0 116 -46t46 -116 q0 -41 -17.5 -76.5t-46 -64.5t-66.5 -45.5t-77 -16.5q-70 0 -116 46.5t-46 115.5zM408 465q0 -74 49 -119t114 -45q82 0 150 68l57 252q-62 67 -164 67q-88 0 -147 -63.5t-59 -159.5zM802 1245q0 39 17.5 76t46.5 65.5t65.5 45t77.5 16.5q70 0 116 -46t46 -116 q0 -41 -17.5 -76.5t-46 -64.5t-66.5 -45.5t-77 -16.5q-70 0 -116 46.5t-46 115.5z" />
<glyph unicode="&#xe5;" d="M27 387q0 102 31.5 213t97 203t163 151.5t230.5 59.5q86 0 162.5 -32t124.5 -97l22 104h369l-219 -989h-369l25 104q-66 -72 -128.5 -100.5t-140.5 -28.5q-166 0 -267 105.5t-101 306.5zM408 465q0 -74 49 -119t114 -45q82 0 150 68l57 252q-62 67 -164 67 q-88 0 -147 -63.5t-59 -159.5zM543 1260q0 51 20.5 96t54.5 79t79 54.5t96 20.5q94 0 151.5 -57.5t57.5 -151.5q0 -51 -20.5 -96.5t-54.5 -79t-79 -54t-96 -20.5q-94 0 -151.5 57.5t-57.5 151.5zM703 1276q0 -29 18 -47t47 -18t51.5 22.5t22.5 50.5q0 29 -18.5 47.5 t-46.5 18.5q-29 0 -51.5 -22.5t-22.5 -51.5z" />
<glyph unicode="&#xe6;" horiz-adv-x="1822" d="M27 387q0 102 31.5 213t97 203t163 151.5t230.5 59.5q86 0 162.5 -32t124.5 -97l22 104h369l-17 -69q51 43 111.5 68.5t130.5 25.5q158 0 249 -98.5t91 -323.5q0 -57 -8 -119.5t-17 -91.5h-663v-2q0 -6 13 -24.5t42 -38t71 -36t101 -16.5q53 0 106.5 13.5t88.5 35.5 l110 -247q-76 -47 -157.5 -69t-141.5 -22q-117 0 -193.5 37t-113.5 90l-22 -102h-369l25 104q-66 -72 -128.5 -100.5t-140.5 -28.5q-166 0 -267 105.5t-101 306.5zM408 465q0 -74 49 -119t114 -45q82 0 150 68l57 252q-62 67 -164 67q-88 0 -147 -63.5t-59 -159.5zM1145 614 h323v2q0 12 -7 33t-25.5 39.5t-48 31.5t-72.5 13q-37 0 -66.5 -12t-51 -30.5t-35 -39t-17.5 -37.5z" />
<glyph unicode="&#xe7;" horiz-adv-x="1028" d="M31 434q0 123 46 228.5t126 183.5t188.5 123t235.5 45q170 0 276.5 -60.5t157.5 -144.5l-275 -211q-23 37 -63.5 63.5t-99.5 26.5q-96 0 -158 -64.5t-62 -164.5q0 -72 54.5 -115t128.5 -43q51 0 94 22.5t72 57.5l196 -244q-25 -27 -63.5 -55.5t-89 -52t-112.5 -39 t-134 -15.5h-2l-47 -71q27 18 59 18q51 0 87 -36t36 -97q0 -47 -19.5 -84t-52 -62.5t-77 -39t-93.5 -13.5q-90 0 -160.5 28t-105.5 63l88 122q39 -33 84 -53t92 -20q33 0 55.5 11t22.5 38q0 14 -11 24.5t-34 10.5q-29 0 -49 -25l-107 70l80 133q-174 39 -269 158.5 t-95 283.5z" />
<glyph unicode="&#xe8;" horiz-adv-x="1112" d="M31 426q0 119 43 225.5t120.5 187.5t186 128t237.5 47q92 0 176.5 -28t148 -84t101 -141t37.5 -198q0 -51 -7 -102t-15 -80h-664v-2q0 -6 11.5 -25.5t36 -41t63.5 -39t92 -17.5q59 0 119.5 13.5t95.5 35.5l113 -239q-76 -47 -170.5 -69t-184.5 -22q-121 0 -220 30 t-169.5 87.5t-110.5 141t-40 192.5zM383 1434h317l181 -295h-246zM430 614h326v7q0 10 -7.5 29.5t-24.5 38t-47 31.5t-73 13q-37 0 -66.5 -12t-52 -30.5t-37 -39t-18.5 -37.5z" />
<glyph unicode="&#xe9;" horiz-adv-x="1112" d="M31 426q0 119 43 225.5t120.5 187.5t186 128t237.5 47q92 0 176.5 -28t148 -84t101 -141t37.5 -198q0 -51 -7 -102t-15 -80h-664v-2q0 -6 11.5 -25.5t36 -41t63.5 -39t92 -17.5q59 0 119.5 13.5t95.5 35.5l113 -239q-76 -47 -170.5 -69t-184.5 -22q-121 0 -220 30 t-169.5 87.5t-110.5 141t-40 192.5zM430 614h326v7q0 10 -7.5 29.5t-24.5 38t-47 31.5t-73 13q-37 0 -66.5 -12t-52 -30.5t-37 -39t-18.5 -37.5zM588 1139l312 295h321l-383 -295h-250z" />
<glyph unicode="&#xea;" horiz-adv-x="1112" d="M31 426q0 119 43 225.5t120.5 187.5t186 128t237.5 47q92 0 176.5 -28t148 -84t101 -141t37.5 -198q0 -51 -7 -102t-15 -80h-664v-2q0 -6 11.5 -25.5t36 -41t63.5 -39t92 -17.5q59 0 119.5 13.5t95.5 35.5l113 -239q-76 -47 -170.5 -69t-184.5 -22q-121 0 -220 30 t-169.5 87.5t-110.5 141t-40 192.5zM393 1139l246 295h320l120 -295h-211l-98 149l-158 -149h-219zM430 614h326v7q0 10 -7.5 29.5t-24.5 38t-47 31.5t-73 13q-37 0 -66.5 -12t-52 -30.5t-37 -39t-18.5 -37.5z" />
<glyph unicode="&#xeb;" horiz-adv-x="1112" d="M31 426q0 119 43 225.5t120.5 187.5t186 128t237.5 47q92 0 176.5 -28t148 -84t101 -141t37.5 -198q0 -51 -7 -102t-15 -80h-664v-2q0 -6 11.5 -25.5t36 -41t63.5 -39t92 -17.5q59 0 119.5 13.5t95.5 35.5l113 -239q-76 -47 -170.5 -69t-184.5 -22q-121 0 -220 30 t-169.5 87.5t-110.5 141t-40 192.5zM358 1245q0 39 17.5 76t46 65.5t65.5 45t78 16.5q70 0 116 -46t46 -116q0 -41 -17.5 -76.5t-46 -64.5t-66.5 -45.5t-77 -16.5q-70 0 -116 46.5t-46 115.5zM430 614h326v7q0 10 -7.5 29.5t-24.5 38t-47 31.5t-73 13q-37 0 -66.5 -12 t-52 -30.5t-37 -39t-18.5 -37.5zM800 1245q0 39 17.5 76t46.5 65.5t65.5 45t77.5 16.5q70 0 116 -46t46 -116q0 -41 -17.5 -76.5t-46 -64.5t-66.5 -45.5t-77 -16.5q-70 0 -116 46.5t-46 115.5z" />
<glyph unicode="&#xec;" horiz-adv-x="573" d="M-8 0l219 989h369l-220 -989h-368zM78 1434h317l181 -295h-246z" />
<glyph unicode="&#xed;" horiz-adv-x="573" d="M-8 0l219 989h369l-220 -989h-368zM276 1139l312 295h321l-383 -295h-250z" />
<glyph unicode="&#xee;" horiz-adv-x="573" d="M-8 0l219 989h369l-220 -989h-368zM86 1139l246 295h320l120 -295h-211l-98 149l-158 -149h-219z" />
<glyph unicode="&#xef;" horiz-adv-x="573" d="M-8 0l219 989h369l-220 -989h-368zM53 1245q0 39 17.5 76t46 65.5t65.5 45t78 16.5q70 0 116 -46t46 -116q0 -41 -17.5 -76.5t-46 -64.5t-66.5 -45.5t-77 -16.5q-70 0 -116 46.5t-46 115.5zM495 1245q0 39 17.5 76t46.5 65.5t65.5 45t77.5 16.5q70 0 116 -46t46 -116 q0 -41 -17.5 -76.5t-46 -64.5t-66.5 -45.5t-77 -16.5q-70 0 -116 46.5t-46 115.5z" />
<glyph unicode="&#xf0;" horiz-adv-x="1181" d="M20 414q0 102 37 191t101.5 155.5t152.5 104.5t193 38q133 0 212 -61.5t120 -165.5q-8 82 -77 176t-161 186l-336 -100l-33 160l228 65l-86 68l256 266q70 -55 129 -107.5t110 -105.5l215 64l35 -156l-135 -41q98 -129 143 -257t45 -261q0 -131 -39.5 -250t-116.5 -210 t-189.5 -144.5t-260.5 -53.5q-123 0 -223 30t-171 87.5t-110 138t-39 183.5zM397 426q0 -125 172 -125q86 0 136.5 42t50.5 112q0 55 -47 90t-134 35q-86 0 -132 -46.5t-46 -107.5z" />
<glyph unicode="&#xf1;" horiz-adv-x="1243" d="M-8 0l219 989h369l-27 -112q27 25 57.5 49t68.5 43.5t84 32t101 12.5q156 0 241 -75t85 -185q0 -12 -3 -39t-7 -41l-150 -674h-368l114 520q4 14 8 36t4 40q0 51 -36.5 71.5t-81.5 20.5q-59 0 -102.5 -24.5t-71.5 -51.5l-136 -612h-368zM417 1147q29 141 85.5 207.5 t174.5 66.5q51 0 87 -13t64 -30.5t51.5 -31t51.5 -13.5q39 0 58 76h184q-31 -141 -87 -207.5t-175 -66.5q-51 0 -86 13t-62.5 30.5t-51 31t-52.5 13.5q-43 0 -57 -76h-185z" />
<glyph unicode="&#xf2;" horiz-adv-x="1181" d="M29 436q0 113 43 217.5t121.5 184.5t187 128t240.5 48q131 0 230 -36t164.5 -98.5t99.5 -146.5t34 -180q0 -115 -43 -219.5t-122 -184t-187.5 -127t-239.5 -47.5t-230.5 36t-165 98.5t-99 146.5t-33.5 180zM383 1434h317l181 -295h-246zM406 455q0 -74 43.5 -114 t121.5 -40q45 0 83 19.5t63.5 51t40 73.5t14.5 90q0 74 -44 113.5t-122 39.5q-47 0 -84 -19.5t-62.5 -51t-39.5 -74.5t-14 -88z" />
<glyph unicode="&#xf3;" horiz-adv-x="1181" d="M29 436q0 113 43 217.5t121.5 184.5t187 128t240.5 48q131 0 230 -36t164.5 -98.5t99.5 -146.5t34 -180q0 -115 -43 -219.5t-122 -184t-187.5 -127t-239.5 -47.5t-230.5 36t-165 98.5t-99 146.5t-33.5 180zM406 455q0 -74 43.5 -114t121.5 -40q45 0 83 19.5t63.5 51 t40 73.5t14.5 90q0 74 -44 113.5t-122 39.5q-47 0 -84 -19.5t-62.5 -51t-39.5 -74.5t-14 -88zM583 1139l312 295h321l-383 -295h-250z" />
<glyph unicode="&#xf4;" horiz-adv-x="1181" d="M29 436q0 113 43 217.5t121.5 184.5t187 128t240.5 48q131 0 230 -36t164.5 -98.5t99.5 -146.5t34 -180q0 -115 -43 -219.5t-122 -184t-187.5 -127t-239.5 -47.5t-230.5 36t-165 98.5t-99 146.5t-33.5 180zM391 1139l246 295h320l120 -295h-211l-98 149l-158 -149h-219z M406 455q0 -74 43.5 -114t121.5 -40q45 0 83 19.5t63.5 51t40 73.5t14.5 90q0 74 -44 113.5t-122 39.5q-47 0 -84 -19.5t-62.5 -51t-39.5 -74.5t-14 -88z" />
<glyph unicode="&#xf5;" horiz-adv-x="1181" d="M29 436q0 113 43 217.5t121.5 184.5t187 128t240.5 48q131 0 230 -36t164.5 -98.5t99.5 -146.5t34 -180q0 -115 -43 -219.5t-122 -184t-187.5 -127t-239.5 -47.5t-230.5 36t-165 98.5t-99 146.5t-33.5 180zM387 1147q29 141 85.5 207.5t174.5 66.5q51 0 87 -13t64 -30.5 t51.5 -31t51.5 -13.5q39 0 58 76h184q-31 -141 -87 -207.5t-175 -66.5q-51 0 -86 13t-62.5 30.5t-51 31t-52.5 13.5q-43 0 -57 -76h-185zM406 455q0 -74 43.5 -114t121.5 -40q45 0 83 19.5t63.5 51t40 73.5t14.5 90q0 74 -44 113.5t-122 39.5q-47 0 -84 -19.5t-62.5 -51 t-39.5 -74.5t-14 -88z" />
<glyph unicode="&#xf6;" horiz-adv-x="1181" d="M29 436q0 113 43 217.5t121.5 184.5t187 128t240.5 48q131 0 230 -36t164.5 -98.5t99.5 -146.5t34 -180q0 -115 -43 -219.5t-122 -184t-187.5 -127t-239.5 -47.5t-230.5 36t-165 98.5t-99 146.5t-33.5 180zM354 1245q0 39 17.5 76t46 65.5t65.5 45t78 16.5q70 0 116 -46 t46 -116q0 -41 -17.5 -76.5t-46 -64.5t-66.5 -45.5t-77 -16.5q-70 0 -116 46.5t-46 115.5zM406 455q0 -74 43.5 -114t121.5 -40q45 0 83 19.5t63.5 51t40 73.5t14.5 90q0 74 -44 113.5t-122 39.5q-47 0 -84 -19.5t-62.5 -51t-39.5 -74.5t-14 -88zM796 1245q0 39 17.5 76 t46.5 65.5t65.5 45t77.5 16.5q70 0 116 -46t46 -116q0 -41 -17.5 -76.5t-46 -64.5t-66.5 -45.5t-77 -16.5q-70 0 -116 46.5t-46 115.5z" />
<glyph unicode="&#xf7;" horiz-adv-x="1046" d="M78 584l47 215h928l-47 -215h-928zM332 336q0 33 13 63.5t37 54t54.5 37t65.5 13.5q59 0 100 -42t41 -102q0 -35 -14.5 -65.5t-37 -53t-54 -35.5t-64.5 -13q-59 0 -100 41.5t-41 101.5zM483 1020q0 33 13.5 63.5t37 54t54 37t65.5 13.5q59 0 100.5 -42t41.5 -102 q0 -35 -14.5 -65.5t-37 -53t-54 -35.5t-64.5 -13q-59 0 -100.5 42t-41.5 101z" />
<glyph unicode="&#xf8;" horiz-adv-x="1181" d="M-82 0l191 170q-80 111 -80 266q0 113 43 217.5t121.5 184.5t187 128t240.5 48q106 0 190 -23.5t150 -66.5l73 65h228l-193 -170q80 -115 80 -266q0 -115 -43 -219.5t-122 -184t-187.5 -127t-239.5 -47.5q-109 0 -193.5 24t-148.5 67l-76 -66h-221zM406 432l274 244 q-31 12 -74 12q-47 0 -84 -19.5t-62.5 -51t-39.5 -74.5t-14 -88v-23zM496 313q30 -12 75 -12t83 19.5t63.5 51t40 73.5t14.5 90q0 14 -2 20z" />
<glyph unicode="&#xf9;" horiz-adv-x="1241" d="M49 236q0 12 3 38.5t7 40.5l150 674h369l-121 -547q-6 -29 -6 -47q0 -51 37.5 -72.5t86.5 -21.5q55 0 97.5 25.5t70.5 52.5l136 610h368l-219 -989h-369l27 113q-27 -25 -57.5 -49.5t-68.5 -44t-84 -32t-101 -12.5q-156 0 -241 75t-85 186zM408 1434h317l181 -295h-246z " />
<glyph unicode="&#xfa;" horiz-adv-x="1241" d="M49 236q0 12 3 38.5t7 40.5l150 674h369l-121 -547q-6 -29 -6 -47q0 -51 37.5 -72.5t86.5 -21.5q55 0 97.5 25.5t70.5 52.5l136 610h368l-219 -989h-369l27 113q-27 -25 -57.5 -49.5t-68.5 -44t-84 -32t-101 -12.5q-156 0 -241 75t-85 186zM612 1139l312 295h321 l-383 -295h-250z" />
<glyph unicode="&#xfb;" horiz-adv-x="1241" d="M49 236q0 12 3 38.5t7 40.5l150 674h369l-121 -547q-6 -29 -6 -47q0 -51 37.5 -72.5t86.5 -21.5q55 0 97.5 25.5t70.5 52.5l136 610h368l-219 -989h-369l27 113q-27 -25 -57.5 -49.5t-68.5 -44t-84 -32t-101 -12.5q-156 0 -241 75t-85 186zM415 1139l246 295h320 l120 -295h-211l-98 149l-158 -149h-219z" />
<glyph unicode="&#xfc;" horiz-adv-x="1241" d="M49 236q0 12 3 38.5t7 40.5l150 674h369l-121 -547q-6 -29 -6 -47q0 -51 37.5 -72.5t86.5 -21.5q55 0 97.5 25.5t70.5 52.5l136 610h368l-219 -989h-369l27 113q-27 -25 -57.5 -49.5t-68.5 -44t-84 -32t-101 -12.5q-156 0 -241 75t-85 186zM383 1245q0 39 17.5 76 t46 65.5t65.5 45t78 16.5q70 0 116 -46t46 -116q0 -41 -17.5 -76.5t-46 -64.5t-66.5 -45.5t-77 -16.5q-70 0 -116 46.5t-46 115.5zM825 1245q0 39 17.5 76t46.5 65.5t65.5 45t77.5 16.5q70 0 116 -46t46 -116q0 -41 -17.5 -76.5t-46 -64.5t-66.5 -45.5t-77 -16.5 q-70 0 -116 46.5t-46 115.5z" />
<glyph unicode="&#xfd;" horiz-adv-x="1095" d="M-100 -375l116 314q18 -8 47 -11.5t58 -3.5q74 0 100 39l21 33l-164 993h379l61 -565l318 565h399l-678 -1112q-49 -80 -98 -133t-104.5 -86t-118 -46t-136.5 -13q-53 0 -105 6t-95 20zM526 1139l312 295h321l-383 -295h-250z" />
<glyph unicode="&#xfe;" horiz-adv-x="1218" d="M-92 -377l385 1743h369l-107 -481q66 72 128 100.5t140 28.5q166 0 267.5 -105.5t101.5 -306.5q0 -102 -32 -212.5t-97.5 -203t-163.5 -152t-229 -59.5q-86 0 -163 32t-124 97l-107 -481h-368zM440 369q62 -68 164 -68q88 0 147.5 63.5t59.5 159.5q0 74 -49 119t-115 45 q-82 0 -149 -67z" />
<glyph unicode="&#xff;" horiz-adv-x="1095" d="M-100 -375l116 314q18 -8 47 -11.5t58 -3.5q74 0 100 39l21 33l-164 993h379l61 -565l318 565h399l-678 -1112q-49 -80 -98 -133t-104.5 -86t-118 -46t-136.5 -13q-53 0 -105 6t-95 20zM299 1245q0 39 17.5 76t46 65.5t65.5 45t78 16.5q70 0 116 -46t46 -116 q0 -41 -17.5 -76.5t-46 -64.5t-66.5 -45.5t-77 -16.5q-70 0 -116 46.5t-46 115.5zM741 1245q0 39 17.5 76t46.5 65.5t65.5 45t77.5 16.5q70 0 116 -46t46 -116q0 -41 -17.5 -76.5t-46 -64.5t-66.5 -45.5t-77 -16.5q-70 0 -116 46.5t-46 115.5z" />
<glyph unicode="&#x152;" horiz-adv-x="2174" d="M57 602q0 178 63.5 322.5t170 247t248 158.5t297.5 56q133 0 232 -38.5t171 -112.5l29 131h1036l-80 -360h-622l-29 -136h608l-80 -360h-608l-33 -150h623l-80 -360h-1036l20 100q-63 -59 -151 -92t-207 -33q-115 0 -218.5 46.5t-181 129t-125 197.5t-47.5 254zM485 631 q0 -66 22.5 -119t61.5 -92t92.5 -59.5t114.5 -20.5q92 0 168 40t129 105l82 367q-39 82 -113.5 126t-171.5 44q-90 0 -161.5 -33t-120.5 -87t-76 -124.5t-27 -146.5z" />
<glyph unicode="&#x153;" horiz-adv-x="1845" d="M29 436q0 106 41 210t116.5 185.5t184 132t245.5 50.5q127 0 224.5 -48t150.5 -110q37 31 75 59.5t83 50t96 35t115 13.5q88 0 170 -26.5t146.5 -82t103.5 -140.5t39 -202q0 -51 -7.5 -100t-15.5 -82h-655v-2q0 -10 13 -30.5t38 -41t62.5 -36t86.5 -15.5q55 0 116 13.5 t95 35.5l111 -239q-59 -39 -149.5 -65t-200.5 -26q-135 0 -235.5 48.5t-151.5 107.5q-37 -31 -77 -59.5t-84 -50t-96.5 -34t-115.5 -12.5q-117 0 -213 31t-166 90.5t-107.5 144.5t-37.5 195zM406 455q0 -76 44 -115t117 -39q45 0 81 18.5t61.5 50t40 75t14.5 90.5 q0 78 -45 115.5t-117 37.5q-82 0 -139 -64.5t-57 -168.5zM1176 614h317v2q0 14 -7 35t-23.5 39.5t-45 30.5t-71.5 12q-35 0 -64 -12t-51.5 -29.5t-36.5 -38t-18 -39.5z" />
<glyph unicode="&#x178;" horiz-adv-x="1359" d="M154 1366h444l152 -461l352 461h485l-690 -823l-119 -543h-413l118 543zM522 1587q0 39 17.5 76t46 65.5t65.5 45t78 16.5q70 0 116 -46t46 -116q0 -41 -17.5 -76.5t-46 -64.5t-66.5 -45.5t-77 -16.5q-70 0 -116 46.5t-46 115.5zM964 1587q0 39 17.5 76t46.5 65.5 t65.5 45t77.5 16.5q70 0 116 -46t46 -116q0 -41 -17.5 -76.5t-46 -64.5t-66.5 -45.5t-77 -16.5q-70 0 -116 46.5t-46 115.5z" />
<glyph unicode="&#x2c6;" horiz-adv-x="686" d="M141 1139l246 295h320l120 -295h-211l-98 149l-158 -149h-219z" />
<glyph unicode="&#x2dc;" horiz-adv-x="698" d="M143 1147q29 141 85.5 207.5t174.5 66.5q51 0 87 -13t64 -30.5t51.5 -31t51.5 -13.5q39 0 58 76h184q-31 -141 -87 -207.5t-175 -66.5q-51 0 -86 13t-62.5 30.5t-51 31t-52.5 13.5q-43 0 -57 -76h-185z" />
<glyph unicode="&#x2000;" horiz-adv-x="932" />
<glyph unicode="&#x2001;" horiz-adv-x="1864" />
<glyph unicode="&#x2002;" horiz-adv-x="932" />
<glyph unicode="&#x2003;" horiz-adv-x="1864" />
<glyph unicode="&#x2004;" horiz-adv-x="621" />
<glyph unicode="&#x2005;" horiz-adv-x="466" />
<glyph unicode="&#x2006;" horiz-adv-x="310" />
<glyph unicode="&#x2007;" horiz-adv-x="310" />
<glyph unicode="&#x2008;" horiz-adv-x="233" />
<glyph unicode="&#x2009;" horiz-adv-x="372" />
<glyph unicode="&#x200a;" horiz-adv-x="103" />
<glyph unicode="&#x2010;" horiz-adv-x="614" d="M27 342l67 307h492l-68 -307h-491z" />
<glyph unicode="&#x2011;" horiz-adv-x="614" d="M27 342l67 307h492l-68 -307h-491z" />
<glyph unicode="&#x2012;" horiz-adv-x="614" d="M27 342l67 307h492l-68 -307h-491z" />
<glyph unicode="&#x2013;" horiz-adv-x="1214" d="M27 342l67 307h1092l-68 -307h-1091z" />
<glyph unicode="&#x2014;" horiz-adv-x="1705" d="M27 342l67 307h1583l-67 -307h-1583z" />
<glyph unicode="&#x2018;" horiz-adv-x="575" d="M150 901q0 70 26.5 140.5t75.5 135t115.5 120t146.5 92.5l123 -127q-27 -10 -60.5 -27.5t-65.5 -40.5t-59.5 -49.5t-43.5 -54.5q6 2 14 2h12q66 0 116 -42t50 -132q0 -47 -20.5 -89.5t-54 -74t-78 -50t-89.5 -18.5q-41 0 -77.5 13.5t-66.5 41t-47 67.5t-17 93z" />
<glyph unicode="&#x2019;" horiz-adv-x="575" d="M178 811q27 10 59.5 27.5t65.5 40t60.5 49t44.5 55.5q-6 -2 -14.5 -2h-12.5q-66 0 -116 42t-50 132q0 47 20.5 89t54.5 74t78 50t89 18q39 0 76.5 -13t67.5 -40.5t47.5 -68t17.5 -93.5q0 -70 -27 -140t-76 -135t-115.5 -120t-146.5 -92z" />
<glyph unicode="&#x201a;" horiz-adv-x="575" d="M-37 -162q27 10 59.5 27.5t65.5 40t60.5 49.5t44.5 55q-4 -2 -13.5 -2h-13.5q-66 0 -116 42t-50 132q0 47 20.5 89t54.5 74t78 50.5t89 18.5q39 0 76.5 -13.5t67.5 -41t47.5 -67.5t17.5 -93q0 -70 -27 -140.5t-76 -135t-115.5 -120t-146.5 -92.5z" />
<glyph unicode="&#x201c;" horiz-adv-x="1081" d="M141 901q0 70 27 140.5t76 135t115.5 120t146.5 92.5l123 -127q-27 -10 -60.5 -27.5t-65.5 -40.5t-59.5 -49.5t-44.5 -54.5q6 2 14.5 2h12.5q66 0 116 -42t50 -132q0 -47 -20.5 -89.5t-54.5 -74t-78 -50t-89 -18.5q-41 0 -77.5 13.5t-66.5 41t-47.5 67.5t-17.5 93z M647 901q0 70 26.5 140.5t76 135t116 120t146.5 92.5l123 -127q-27 -10 -61 -27.5t-65.5 -40.5t-59 -49.5t-44.5 -54.5q6 2 14.5 2h12.5q66 0 116 -42t50 -132q0 -47 -20.5 -89.5t-54.5 -74t-78 -50t-89 -18.5q-41 0 -78 13.5t-66.5 41t-47 67.5t-17.5 93z" />
<glyph unicode="&#x201d;" horiz-adv-x="1081" d="M178 811q27 10 59.5 27.5t65.5 40t60.5 49t44.5 55.5q-6 -2 -14.5 -2h-12.5q-66 0 -116 42t-50 132q0 47 20.5 89t54.5 74t78 50t89 18q39 0 76.5 -13t67.5 -40.5t47.5 -68t17.5 -93.5q0 -70 -27 -140t-76 -135t-115.5 -120t-146.5 -92zM684 811q27 10 59.5 27.5t65.5 40 t60.5 49t43.5 55.5q-6 -2 -14 -2h-12q-66 0 -116 42t-50 132q0 47 20.5 89t54 74t78 50t89.5 18q39 0 76.5 -13t67.5 -40.5t47 -68t17 -93.5q0 -70 -26.5 -140t-75.5 -135t-115.5 -120t-146.5 -92z" />
<glyph unicode="&#x201e;" horiz-adv-x="1081" d="M-37 -162q27 10 59.5 27.5t65.5 40t60.5 49.5t44.5 55q-4 -2 -13.5 -2h-13.5q-66 0 -116 42t-50 132q0 47 20.5 89t54.5 74t78 50.5t89 18.5q39 0 76.5 -13.5t67.5 -41t47.5 -67.5t17.5 -93q0 -70 -27 -140.5t-76 -135t-115.5 -120t-146.5 -92.5zM469 -162 q27 10 59.5 27.5t65.5 40t60.5 49.5t43.5 55q-4 -2 -13 -2h-13q-66 0 -116 42t-50 132q0 47 20.5 89t54 74t77.5 50.5t90 18.5q39 0 76.5 -13.5t67.5 -41t47 -67.5t17 -93q0 -70 -26.5 -140.5t-75.5 -135t-115.5 -120t-146.5 -92.5z" />
<glyph unicode="&#x2022;" horiz-adv-x="733" d="M98 471q0 59 23.5 112.5t64.5 93.5t95.5 62.5t113.5 22.5q104 0 172 -68t68 -172q0 -59 -23.5 -112.5t-64.5 -93.5t-95.5 -62.5t-113.5 -22.5q-104 0 -172 68t-68 172z" />
<glyph unicode="&#x2026;" horiz-adv-x="1732" d="M2 176q0 49 19.5 92t52 75t76 51.5t92.5 19.5q84 0 141 -59.5t57 -143.5q0 -49 -19.5 -92t-52 -75t-75.5 -51.5t-92 -19.5q-84 0 -141.5 59.5t-57.5 143.5zM580 176q0 49 19 92t52 75t76 51.5t92 19.5q84 0 141.5 -59.5t57.5 -143.5q0 -49 -19.5 -92t-52.5 -75t-76 -51.5 t-92 -19.5q-84 0 -141 59.5t-57 143.5zM1157 176q0 49 19.5 92t52.5 75t76 51.5t92 19.5q84 0 141 -59.5t57 -143.5q0 -49 -19.5 -92t-52 -75t-75.5 -51.5t-92 -19.5q-84 0 -141.5 59.5t-57.5 143.5z" />
<glyph unicode="&#x202f;" horiz-adv-x="372" />
<glyph unicode="&#x2039;" horiz-adv-x="778" d="M59 498l410 362h336l-418 -373l238 -358h-320z" />
<glyph unicode="&#x203a;" horiz-adv-x="778" d="M-23 129l418 373l-237 358h319l246 -368l-410 -363h-336z" />
<glyph unicode="&#x205f;" horiz-adv-x="466" />
<glyph unicode="&#x20ac;" horiz-adv-x="1478" d="M10 436l47 215h66q0 33 6 68h-57l49 215h67q47 106 124 190t174.5 142.5t213 90.5t242.5 32q150 0 262.5 -40t191.5 -104.5t128 -145.5t73 -163l-397 -125q-18 96 -93 154.5t-183 58.5q-72 0 -132.5 -24.5t-107.5 -65.5h375l-49 -215h-453q-4 -16 -6 -33.5t-2 -34.5h446 l-47 -215h-325q41 -45 99 -70.5t134 -25.5q39 0 81 12.5t80 34t67.5 50t48.5 61.5l323 -209q-63 -92 -142 -152.5t-163 -96.5t-165.5 -50.5t-151.5 -14.5q-125 0 -238 32t-204 91.5t-155.5 144.5t-95.5 193h-131z" />
<glyph unicode="&#x2122;" horiz-adv-x="929" d="M215 1313l10 53h312l-11 -53h-127l-88 -398h-57l88 398h-127zM512 915l98 451h88l60 -328l203 328h88l-99 -451h-57l82 373l-236 -373h-16l-72 373l-82 -373h-57z" />
<glyph unicode="&#x25fc;" horiz-adv-x="993" d="M0 0v993h993v-993h-993z" />
</font>
</defs>
</svg>
