<?xml version="1.0" standalone="no"?>
<!DOCTYPE svg PUBLIC "-//W3C//DTD SVG 1.1//EN" "http://www.w3.org/Graphics/SVG/1.1/DTD/svg11.dtd" >
<svg xmlns="http://www.w3.org/2000/svg">
<metadata></metadata>
<defs>
<font id="simpsoncondensedheavyregular" horiz-adv-x="921" >
<font-face units-per-em="2048" ascent="1638" descent="-410" />
<missing-glyph horiz-adv-x="368" />
<glyph horiz-adv-x="0" />
<glyph horiz-adv-x="682" />
<glyph unicode=" "  horiz-adv-x="368" />
<glyph unicode="&#x09;" horiz-adv-x="368" />
<glyph unicode="&#xa0;" horiz-adv-x="368" />
<glyph unicode="!" horiz-adv-x="368" d="M41 -16q0 -144 168 -144q40 0 98 64q68 71 68 162q0 67 -38.5 113t-100.5 46q-85 0 -144 -80q-51 -68 -51 -161zM150 389q0 -40 24 -55q6 -6 59 -27q30 -10 43 -10q55 0 76 90q3 23 10.5 69t10.5 70q109 417 145 543q13 48 43 154q3 14 43 69q35 47 35 68q0 40 -8 51 q-6 14 -70 41q-66 29 -74 29q-50 0 -71 -8q-56 -47 -56 -89q0 -13 7 -34q-24 -119 -45 -181q-172 -757 -172 -780z" />
<glyph unicode="&#x22;" horiz-adv-x="460" d="M213 793q0 -39 23 -39q4 0 18 4l14 4q96 15 111 49q2 10 12.5 60.5t16.5 76.5q10 40 29.5 114.5t27.5 108.5q33 127 43 226q2 7 -4 35q-11 11 -60 20q-47 12 -59 12q-54 0 -66 -53l-6 -92l-8 -49q-20 -122 -49 -271q-9 -38 -25 -100q-18 -79 -18 -106zM430 797 q0 -43 23 -43q3 0 17 4t15 4q94 15 113 51q5 22 14.5 67t14.5 68q24 113 39 164l55 242q4 24 4 43q0 7 -4 35q-11 11 -57 20q-47 12 -60 12q-57 0 -69 -73q-10 -104 -11 -121q-28 -149 -49 -271q-1 -3 -4 -13.5t-9 -36t-13 -50.5q-19 -68 -19 -102z" />
<glyph unicode="#" horiz-adv-x="569" d="M104 446q0 -34 31 -34q1 0 14.5 3t14.5 3q-5 -13 -16.5 -37t-16.5 -37q-20 -47 -20 -80q0 -71 88 -71q7 0 13.5 2t11 4t9 7t7.5 8t6 11t4.5 11t3.5 12.5t3 12.5t3 13.5t2 12.5l45 135l68 4q-6 -16 -19.5 -45t-15.5 -33q-23 -54 -23 -80q0 -75 91 -75q8 0 14.5 1.5t11.5 6 t9 8t7.5 11t5.5 12t4 14t3 13.5t3 14.5t3 13.5q5 16 12.5 37t18 49.5t16.5 46.5l55 -6q35 0 64 69q24 59 24 99q0 36 -30 36q-10 0 -19 -6l-35 -8l54 166l-11 -6q26 -7 44.5 -12t26.5 -7t7 -2q54 0 54 146q0 61 -33 61h-21l-10 -24q3 8 16.5 39t20.5 49q25 61 25 88 q0 36 -22 62t-54 26q-50 0 -68 -57q-6 -31 -18 -97q-30 -92 -31 -96h-51q-4 0 -6 2h-9h-2l-10 -18q64 149 64 166q0 100 -78 100q-42 0 -60 -55q-3 -14 -10 -42.5t-10 -43.5q-18 -65 -33 -105q-63 0 -76 8q-63 -15 -63 -147q0 -57 41 -57q4 0 18.5 5t18.5 5l-53 -150 q-22 2 -39 8q-44 -6 -70 -69q-23 -54 -23 -101zM365 598q20 77 59 170h76l-68 -170h-67z" />
<glyph unicode="$" horiz-adv-x="583" d="M135 416q0 -72 94 -72h82q-5 -16 -28 -139q-21 -123 -21 -170q0 -48 33 -62q38 8 53 68l39 158q16 75 29 147q237 52 237 238q0 53 -59 88q-18 9 -55.5 28.5t-55.5 28.5q-59 41 -59 105q0 81 35 165q43 94 102 134q4 -4 4 -11q0 -26 -12 -84q-10 -65 -10 -86q0 -68 4 -84 q12 -43 63 -43q62 0 86 58q19 43 37 112q23 90 23 107q0 80 -23 110q-17 20 -98 66q6 27 17 74t14 63q22 104 22 133q0 35 -35 35q-60 0 -84 -78q-25 -125 -41 -207q-130 -9 -213 -186q-69 -141 -69 -297q0 -64 4 -96q9 -49 94 -113q52 -37 125 -86q-12 -37 -80 -37 q-1 0 -65 11q-66 51 -95 51q-39 0 -66.5 -41.5t-27.5 -87.5z" />
<glyph unicode="%" d="M86 4q0 -17 6 -29l23 -20q12 -27 53 -27q45 0 72 43l880 1452q21 35 21 64q0 27 -32.5 47t-66.5 20q-35 0 -51 -28l-725 -1209q-50 -83 -178 -292q-2 -4 -2 -21zM276 1071q0 -59 23 -117q27 -66 82 -75l72 -15q30 -6 34 -6q127 0 201 238q47 155 47 219q0 244 -139 244 q-10 0 -42 2t-38 2q-12 0 -22.5 -4t-21.5 -14t-16.5 -16t-18 -22t-15.5 -20q-53 -64 -103 -199q-43 -125 -43 -217zM428 1069q0 64 37 182q44 140 88 140q41 0 41 -70q0 -74 -29 -184q-38 -133 -96 -133q-41 0 -41 65zM489 141q0 -156 129 -194q68 -19 82 -19q116 0 189 199 q57 152 57 297q0 205 -139 205h-21q-10 -2 -22 -2q-3 0 -17 3t-18 3q-42 0 -94 -76q-146 -214 -146 -416zM641 143q0 67 33 176q41 142 92 142q43 0 43 -70q0 -72 -29 -182q-40 -135 -96 -135q-43 0 -43 69z" />
<glyph unicode="&#x26;" horiz-adv-x="925" d="M43 137q0 -118 68 -198q71 -86 188 -86q158 0 399 192q11 -15 34.5 -43t35.5 -43q53 -53 88 -53q66 0 86 51q-3 32 -57 102q-62 77 -76 93q103 108 182 264q90 178 90 305q0 119 -57 119q-42 0 -57 -68q-33 -156 -88 -260q-51 -102 -166 -217q-8 11 -32 43.5t-34.5 47.5 t-31 44t-32 48t-26 44t-24.5 48t-17 46q236 275 268 318q191 247 191 356q0 76 -68 129q-65 47 -141 47q-72 0 -172 -65q-275 -183 -275 -582q0 -78 19 -143q-186 -231 -197 -248q-98 -148 -98 -291zM197 109q0 107 213 370q25 -59 90 -153q95 -135 100 -142 q-213 -139 -324 -139q-79 0 -79 64zM481 827q35 256 137 367q83 92 144 92q37 0 37 -24q0 -61 -318 -435z" />
<glyph unicode="'" horiz-adv-x="413" d="M59 797q0 -43 23 -43l15 4q15 4 18 4q96 15 112 51q5 23 14.5 68t14.5 67q24 113 39 164q59 248 59 285q0 23 -4 35q-11 11 -57 20q-47 12 -60 12q-57 0 -69 -73q-8 -82 -10 -121q-38 -198 -50 -271q-13 -53 -26 -100q-19 -68 -19 -102z" />
<glyph unicode="(" horiz-adv-x="757" d="M68 -74q0 -164 8 -211q21 -149 104 -149q46 0 86 49q39 45 39 96q0 37 -31 107q-30 68 -30 108q0 185 65 492q50 243 127 485q82 258 123 324q6 10 82 125q49 88 49 139q0 50 -17.5 66t-68.5 16q-121 0 -180 -146q-158 -398 -260 -870q-54 -265 -62 -321q-3 -26 -10 -78 t-10 -78q-14 -101 -14 -154z" />
<glyph unicode=")" horiz-adv-x="712" d="M45 -371q0 -54 49 -63q9 -6 37 -6q121 0 182 149q133 327 240 776q117 492 117 799q0 283 -113 283q-48 0 -85.5 -45.5t-37.5 -98.5q0 -31 29 -116q31 -82 31 -144q0 -153 -68 -469q-59 -269 -123 -467q-79 -247 -127 -323q-40 -64 -84 -129q-47 -83 -47 -146z" />
<glyph unicode="*" horiz-adv-x="368" d="M236 1081q0 -12 2 -22v-25q19 -22 36 -22q23 0 70 41q-8 -31 -8 -56q0 -57 47 -57q65 0 86 147q46 -40 70 -40q22 0 44.5 27.5t22.5 49.5q0 38 -10 55t-45 40q17 13 35.5 27t26.5 20t10 8q20 23 20 76q0 28 -37 28q-18 0 -57 -26l4 16q10 17 10 31q0 32 -6 59 q-13 19 -37 19q-55 0 -98 -138q-43 37 -72 37q-23 0 -43 -33.5t-20 -62.5q0 -36 51 -78q-102 -88 -102 -121z" />
<glyph unicode="+" d="M186 412q0 -99 45 -99q1 0 41 15q30 10 185 10l-62 -285q0 -2 -6 -16.5t-6 -22.5q0 -44 14.5 -59.5t57.5 -15.5q54 0 75 47q12 20 21 94q22 166 41 254q76 0 182 -4q4 0 28 -4t32 -4q84 0 84 129q0 54 -27 69q-13 8 -78 8q-73 0 -174 -8q23 114 39 178q11 33 27 82 q16 56 16 84q0 49 -33 49q-93 0 -127 -79q-5 -12 -33 -162l-26 -150q-10 1 -26 1.5t-39.5 1t-41.5 1.5q-94 4 -108 4l-34 9h1q-35 0 -53 -50q-15 -37 -15 -77z" />
<glyph unicode="," horiz-adv-x="368" d="M-43 -281q9 -67 55 -96q26 -16 37 -16q41 0 62 59q14 51 26 88q49 99 60 121q27 55 57 102q17 20 70 97q61 88 61 100q0 33 -49 82q-46 49 -78 49q-28 0 -49 -41q-234 -470 -252 -545z" />
<glyph unicode="-" horiz-adv-x="368" d="M92 348q0 -93 43 -90q79 8 94 10q47 8 109 8h27q12 0 20 -8q38 14 47 72q4 28 4 92q0 68 -37 68q8 0 -4 -2l-35 -4q-71 -9 -176 -9q-11 7 -26 7q-66 0 -66 -144z" />
<glyph unicode="." horiz-adv-x="368" d="M47 55q0 -129 154 -129h12q4 2 10 2q48 23 96 99q50 74 50 127q0 190 -101 190q-26 0 -121 -29q-45 -34 -73 -118q-27 -77 -27 -142z" />
<glyph unicode="/" horiz-adv-x="950" d="M2 -23q0 -28 20 -58t44 -30q44 0 92 91l272 512q72 138 196.5 373.5t133.5 252.5l172 330q13 23 16 37q0 51 -28 67q-23 13 -74 13q-31 0 -51 -33q-44 -83 -52 -102q-139 -281 -186 -371q-330 -635 -436 -819q-119 -219 -119 -263z" />
<glyph unicode="0" d="M125 381q0 -153 51 -275q64 -167 191 -167q110 0 116 -2q7 -2 37 -9q24 -8 39 -8q171 0 324 295q109 210 159 451q50 239 50 415q0 147 -43 254q-59 150 -183 150h-98q-8 0 -48.5 7t-53.5 7q-102 0 -209 -137q-56 -75 -138 -229q-109 -210 -161 -461q-33 -149 -33 -291z M324 438q0 116 26 234q47 210 137 399q132 270 269 270q164 0 164 -325q0 -194 -54 -402q-58 -218 -161 -370q-114 -166 -209 -166q-94 0 -140 141q-32 95 -32 219z" />
<glyph unicode="1" horiz-adv-x="460" d="M152 6q0 -58 26 -67q14 -1 41 -3.5t41 -3.5l33 -16q14 0 18 4q46 34 49 66q2 31 2 71q140 623 181 801l106 502q6 27 6 43q0 98 -110 98q-25 0 -37 -12q-70 -124 -131 -252q-44 -84 -98 -154q-33 -45 -43 -82v-8q-3 -3 -3 -8q0 -45 52 -45q28 0 59 43q21 27 23 29 l-209 -955q-6 -27 -6 -51z" />
<glyph unicode="2" d="M150 31q0 -69 88 -109h8q60 0 168 19l389 69q10 1 26.5 20.5t16.5 30.5q0 58 -76 76q-30 6 -121 6q-11 0 -51 -5t-53 -5q-141 0 -144 29q13 29 60 90q62 78 67 84q189 241 322 403q202 278 240 457q7 28 8 35v49q0 233 -289 233q-152 0 -281 -114q-124 -112 -159 -266 q-66 -305 -66 -320q0 -70 62 -70q49 0 77 25q29 26 47 129q26 142 43 203q40 118 121 184q94 76 187 76q98 0 98 -74q0 -159 -283 -541q-33 -42 -401 -501q-104 -131 -104 -213z" />
<glyph unicode="3" d="M123 59q0 -76 110 -125q90 -40 179 -40q159 0 274 77q123 85 150 234q8 46 10 43q0 112 -41 174q-35 50 -139 117q168 110 270 292q104 183 104 379q0 98 -36 166q-30 59 -99.5 97t-140.5 38q-180 0 -311 -227q-117 -200 -117 -393q0 -81 6 -96q15 -37 80 -37 q64 0 94 125q13 91 27 172q18 115 94 209q68 86 139 86q80 0 80 -131q0 -107 -51 -269q-58 -189 -125 -225l-213 -111q-127 -65 -127 -125q0 -51 49 -57q20 -1 57.5 -4t55.5 -4q75 -12 119 -68q36 -48 36 -106q0 -97 -68.5 -152t-176.5 -55q-63 0 -129 66q-61 67 -80 67 q-33 0 -56.5 -38t-23.5 -79z" />
<glyph unicode="4" d="M74 279q0 -50 73 -84q59 -27 119 -27l119 8h1h1h1h1h1h1h1h1h1h1h1h1h1h1h1l1 1h1h1h1h1h1h1h1h1h1h1h1h1h1h1h1h1h1l1 1h1h1h1h1h1h1h1h1h1h1h1h1h1h1h1h1l1 1h1h1h1h1h1h1h1h1h1h1h1h1h1h1h1h1h1l1 1h1h1h1h1h1h1h1h1h1h1h1h1h1h1h1h1h1l1 1h1h1h1h1h1h1h1h1h1h1h1h1h1 h1h1h1h1l1 1h1h1h1h1h1h1h1h1q-5 -19 -14.5 -56.5t-14.5 -57.5q-18 -73 -18 -115q0 -31 18 -37q14 -14 80 -14q97 0 106 69l35 224l273 10q47 3 47 51q0 76 -33 82q-30 8 -160 14l-96 4l156 688q55 241 81 316q39 23 39 55q0 40 -61 64q-50 18 -96 18q-73 0 -103 -53 l-473 -832q-16 -28 -48.5 -82t-49.5 -81q-92 -157 -92 -170zM303 350l385 668l-147 -662z" />
<glyph unicode="5" d="M51 127q0 -107 203 -178q157 -53 295 -53q184 0 297 155q100 135 100 330q0 133 -104 231q-101 101 -238 101q-62 0 -127 -19q37 114 70 277q15 73 28.5 141t20 100t8.5 39q18 9 164 15q154 3 231 24q119 34 119 115q0 49 -69 49l-553 -4q-59 0 -74 -76q-7 -45 -14 -114 l-158 -734q-2 -4 -2 -22q0 -27 9 -39.5t48 -34.5q42 -22 57 -22q18 10 97 90q53 53 127 53q72 0 131 -62q59 -59 59 -131q0 -125 -94 -213t-221 -88q-63 0 -168 54q-133 70 -162 86q-24 0 -52 -23.5t-28 -46.5z" />
<glyph unicode="6" d="M150 246q0 -245 180 -309q104 -39 157 -39q183 0 359 262q162 241 162 434q0 101 -72 167t-178 66q-144 0 -350 -96q110 378 272 543q58 61 92 61q35 0 35 -82q0 -36 -10 -118q-12 -84 -19 -119q21 -78 94 -78q69 0 99 111q22 80 22 170q0 177 -114 245q-85 52 -148 52 q-110 0 -219 -148q-46 -62 -141 -246q-117 -226 -185 -549q-36 -174 -36 -327zM350 219q0 17 4 139q4 126 4 142q68 81 170 133q107 55 205 55q103 0 103 -113q0 -86 -54 -206q-55 -120 -116 -189q-121 -133 -203 -133q-113 0 -113 172z" />
<glyph unicode="7" d="M256 -31q0 -63 125 -63q61 0 82 88q42 176 121 360q89 204 256 504q47 81 141 244t141 244q0 124 -219 124q-106 0 -272 -26q-213 -30 -240 -74q-26 -42 -26 -86q0 -40 38 -37l453 13q-400 -776 -532 -1102q-68 -171 -68 -189z" />
<glyph unicode="8" d="M203 203q0 -125 102 -211q95 -80 223 -80q94 0 166.5 69t91.5 169l5 22q0 180 -170 412q300 347 512 495q57 41 108 105q0 5 -29 55q-4 2 -10 2q41 41 41 78q0 174 -235 174q-189 0 -525 -158q-243 -117 -243 -340q0 -95 63 -200q19 -29 59 -89.5t60 -89.5 q-123 -141 -152 -184q-67 -107 -67 -229zM373 201q0 90 145 270q107 -180 107 -248q0 -133 -129 -133q-51 0 -87 31.5t-36 79.5zM420 934q0 121 53 180q66 72 223 137q160 66 258 66q76 0 123 -33q45 -36 60 -51q-145 -91 -320 -240q-126 -106 -297 -266q-100 178 -100 207z " />
<glyph unicode="9" d="M20 127q0 -31 54 -88q93 -96 284 -96q248 0 437 219q158 190 213 454q41 199 41 361q0 118 -29 276q-41 207 -113 222l-92 24q-66 17 -96 17q-179 0 -354 -328q-160 -297 -160 -494q0 -137 94 -225t231 -88q122 0 252 106q-48 -152 -145 -266q-124 -145 -256 -145 q-69 0 -143 39q-22 13 -66.5 36.5t-65.5 36.5q-86 -27 -86 -61zM389 719q0 107 49 235q46 120 113 213q112 152 176 152q73 0 111 -133q24 -92 24 -195q0 -146 -33 -289q-111 -96 -145 -116q-91 -64 -170 -64q-125 0 -125 197z" />
<glyph unicode=":" horiz-adv-x="368" d="M51 63q0 -180 68 -180q171 0 209 158q13 38 16 47q10 30 10 49q0 46 -39 82q-36 39 -59 39q-22 0 -80 -18q-46 -14 -61 -33q-27 -45 -52 -96q-12 -24 -12 -48zM174 643q0 -178 68 -178q155 0 207 131q0 16 15 61t15 58q0 47 -39 86t-84 39q-16 -5 -46 -16.5t-46 -16.5 q-22 -6 -57 -74q-33 -62 -33 -90z" />
<glyph unicode=";" horiz-adv-x="368" d="M-43 -281q9 -67 55 -96q26 -16 37 -16q41 0 62 59q14 51 26 88q40 81 58 119q15 31 108 170q82 122 82 131q0 33 -49 82q-46 49 -78 49q-28 0 -49 -41q-234 -470 -252 -545zM186 645q0 -90 9 -117q15 -63 77 -63q127 0 191 131q-1 17 14 62t15 57q0 47 -39 86t-84 39h-1 q0 -1 -2.5 -1.5t-5.5 -2t-8 -3t-10.5 -3.5t-13 -4.5t-15.5 -5t-18.5 -6t-20.5 -7.5q-21 -9 -55 -72q-33 -62 -33 -90z" />
<glyph unicode="&#x3c;" horiz-adv-x="993" d="M137 662q0 -68 74 -115l219 -131q72 -43 268 -164l117 -80q113 -76 125 -76q66 0 107 123q0 50 -23 53l-647 400l-2 6q44 26 69 35l752 372q43 21 43 76q0 109 -41 109q-11 0 -166 -82q-140 -76 -174 -94q-10 -5 -348 -168l-289 -138q-84 -41 -84 -126z" />
<glyph unicode="=" d="M104 190q0 -86 62 -86q1 0 13.5 3.5t13.5 3.5q125 10 167 8q115 2 357 2q19 0 47 -5.5t49 -10.5t23 -5q73 0 73 140q0 92 -67 92q-26 0 -84 -6q-65 -7 -78 -7h-90q-21 0 -49 1t-69 2t-71 2q-141 6 -190 6q-23 10 -35 10q-72 0 -72 -150zM193 608q0 -94 59 -94q17 0 29 6 q126 10 168 8l184 2h178q24 0 68 -10t45 -10q62 0 71 139q6 96 -63 96q-30 0 -92 -6q-61 -6 -95 -6h-247l-199 4q-26 11 -37 11q-69 0 -69 -140z" />
<glyph unicode="&#x3e;" horiz-adv-x="993" d="M33 201q0 -30 14 -62q15 -43 43 -43q24 0 107 51q18 10 51 30.5t49 29.5l721 344q127 62 127 160q0 57 -39 77q-199 117 -234 138q-510 305 -516 334l-22 8q-29 -3 -45 -29q-4 -4 -27 -51q-29 -60 -29 -70q0 -29 25 -35l541 -338q99 -61 106 -65l-825 -410 q-47 -21 -47 -69z" />
<glyph unicode="?" horiz-adv-x="1136" d="M170 748q0 -94 20 -117q57 -66 101 -66q55 0 76 78q3 6 18 119q38 265 244 422q199 153 469 153q145 0 145 -65q0 -89 -180 -217q-8 -8 -236 -148q-497 -310 -497 -545q0 -61 37.5 -98t99.5 -37q32 0 60 17.5t28 44.5q0 32 -28 70.5t-29 43.5q12 45 217 183 q40 29 258 164q202 127 282 196q162 143 162 285v31q0 128 -110 198q-95 62 -230 62q-321 0 -577 -226q-108 -95 -197 -233q-95 -147 -125 -281zM242 -12q0 -51 28 -99q35 -53 80 -53q61 0 127 84t66 148q0 137 -127 137q-85 0 -131 -70q-43 -61 -43 -147z" />
<glyph unicode="@" horiz-adv-x="1536" d="M141 379q0 -445 377 -445q122 0 322 48q225 53 293 116q63 57 63 158q0 74 -49 74q-42 -13 -127 -64q-88 -49 -150 -65q-193 -54 -282 -54q-123 0 -195 97q-63 81 -63 213q0 82 20 166q120 518 522 755q168 101 297 101q122 0 188 -70.5t66 -196.5q0 -254 -276 -589 q-68 -80 -90 -86l-4 12q0 9 28 137q6 30 18 82.5t15 71.5q53 214 53 278v60q-4 65 -57 111t-125 54q-15 3 -86 3q-86 0 -170 -158q-72 -144 -72 -240q0 -82 74 -82l45 15q47 15 82 170q34 143 100 143q35 0 35 -59q0 -39 -47 -291q-46 16 -76 16q-15 0 -77 -4 q-88 -10 -175 -113q-88 -104 -88 -192q0 -59 54 -107q35 -27 86 -36q15 -1 46 -4.5t46 -4.5q13 -2 43.5 -7.5t46.5 -8.5q-15 -119 57 -119q79 0 232 144q203 191 327 415q146 265 146 502q0 170 -100.5 270.5t-270.5 100.5q-169 0 -397 -129q-299 -170 -502 -508t-203 -680z M702 565q0 16 31 58q49 67 187 67l-29 -141q-49 -12 -62 -12h-51q-67 0 -76 28z" />
<glyph unicode="A" horiz-adv-x="888" d="M2 -16q0 -22 16 -35q20 -40 38 -54t59 -14q44 0 71 56q5 15 15.5 44.5t15.5 45.5q36 106 47 131q73 154 78 164l330 30q-6 -314 -6 -315q0 -103 67 -103q23 0 80 31q51 0 64 8q24 15 24 58q0 11 -4 65q-8 49 -8 68q-10 153 -10 289q0 108 2 194q2 88 2 197q0 3 1 11 t1.5 19t2 29.5t2.5 38.5t3 49l4 58q2 67 4.5 155.5t3.5 112.5q4 82 4 92q0 61 -43 61q-8 0 -43 -8t-47 -8q-28 0 -74 12q-28 -6 -92 -161q-79 -192 -170 -377q-181 -372 -182 -373q-23 -48 -71.5 -145.5t-71.5 -145.5q-113 -235 -113 -280zM424 504l264 532l-16 -512z" />
<glyph unicode="B" horiz-adv-x="907" d="M96 33q0 -98 121 -125q115 -23 143 -23q4 0 9.5 0.5l16.5 1.5t20 2q121 15 176 33q67 22 155 86q130 90 183 273q14 49 14 55q0 206 -279 295q182 75 312 211q155 162 155 327q0 15 -3 59t-3 52q-3 125 -115 193q-89 57 -225 57q-84 0 -160 -6q-110 -9 -151 -21 q-94 -27 -94 -104q0 -25 8 -41l-281 -1299q-2 -6 -2 -26zM313 102l66 349q395 -58 395 -146q0 -83 -192 -147q-165 -56 -269 -56zM446 748l107 487q18 80 213 80q64 0 133 -29q82 -34 82 -92v-8q-2 -2 -2 -8q-28 -130 -219 -263q-133 -91 -314 -167z" />
<glyph unicode="C" horiz-adv-x="774" d="M123 279q0 -154 78 -261q84 -118 237 -118q104 0 228 80q135 86 135 182q0 63 -37 63q-24 -12 -39 -18l-129 -92q-62 -39 -150 -39q-129 0 -129 215q0 198 101 500q104 312 219 452q78 96 113 96q36 0 36 -53q0 -74 -38 -239q-18 -84 -54 -248q-4 -28 -4 -45 q0 -84 84 -84q34 0 49 12q53 41 105 301q43 225 43 342q0 96 -35.5 137.5t-132.5 61.5q-90 20 -105 20q-118 0 -290 -309q-114 -206 -197 -465q-88 -280 -88 -491z" />
<glyph unicode="D" horiz-adv-x="931" d="M68 -12q0 -60 63 -78q113 -29 150 -29q20 0 69 19q50 13 76 22q121 41 346 275q222 233 295 553q16 75 16 165q0 198 -79 363q-100 207 -271 207q-281 0 -319 -23q-43 -30 -43 -86l5 -21q5 -22 9 -38q-123 -590 -264 -1114q-5 -17 -16.5 -53.5t-16.5 -53.5 q-20 -61 -20 -108zM309 127q21 94 40.5 177.5t29 124t10.5 46.5q13 49 88 334q114 432 123 438q21 15 84 15q139 0 197 -70q53 -65 53 -203q0 -163 -84 -354q-81 -184 -207 -307q-189 -186 -334 -201z" />
<glyph unicode="E" horiz-adv-x="782" d="M86 -33q0 -90 84 -90q72 0 287 37q229 40 268 70q27 21 27 55q0 72 -60 72q-377 0 -381 2q20 121 51 243q185 0 318 39q100 26 100 121q0 55 -37 55l-331 9l163 659q15 18 164 33q31 3 93 8t92 8q31 4 53 34t22 64q0 60 -43 60q-196 3 -280 8q-6 1 -44.5 4t-72.5 6 q-73 9 -117 9q-68 0 -71 -115q-2 -29 -2 -45q-45 -203 -96 -437t-79 -361.5t-42 -190.5q-7 -30 -21.5 -88.5t-21.5 -88.5q-23 -118 -23 -180z" />
<glyph unicode="F" horiz-adv-x="737" d="M90 -33q0 -41 29 -41h106q51 0 86 142q2 14 2 24q6 26 15 86q12 81 14 88v2q0 3 -0.5 7t-1.5 8q105 18 180 22q129 20 148 23q102 15 102 82q0 83 -57 86l-320 8l199 715q15 53 131 65q165 19 207 23q106 27 106 112q0 57 -51 60l-397 16q-9 0 -45 8t-45 8 q-92 0 -92 -122q0 -48 -19 -129q-29 -103 -35 -130l-162 -720l-92 -394q0 -1 -4 -24.5t-4 -24.5z" />
<glyph unicode="G" horiz-adv-x="872" d="M104 225q0 -372 383 -372q164 0 308 172q137 162 137 331q0 107 -107 107q-194 0 -368 -68q-35 -35 -35 -84q0 -32 33 -58q31 -24 64 -24h5l213 11q-36 -92 -106 -162q-82 -82 -168 -82q-160 0 -160 262q0 167 82 412q71 216 174 385q135 217 191 217q67 0 67 -131 q0 -59 -10 -154q-4 -26 -21 -108q-14 -66 -14 -109q0 -78 74 -78q68 0 92 35q72 101 72 438q0 137 -54 203q-22 7 -102 59q-58 37 -98 37q-16 0 -68 -6q-16 -3 -59 -35q-156 -115 -310 -440q-140 -297 -188 -526q-27 -132 -27 -232z" />
<glyph unicode="H" horiz-adv-x="929" d="M74 0q0 -47 14 -53q18 -7 84 -19l48 -10h-1q69 0 84 100l66 418l329 13q-102 -340 -102 -437q0 -41 49 -41q9 0 44 6.5t44 6.5q51 0 73 12t32 51q4 40 4 45q3 80 32 244q90 470 193 778q79 233 98 258q21 27 21 45t-5.5 31t-11 20t-19.5 12.5t-21 7t-27 4t-25 3.5 q-70 18 -82 18q-38 0 -47 -47q-4 -36 -4 -41q-112 -410 -127 -477q-64 -273 -84 -338q-203 -3 -332 -18q64 309 99 409l106 324q2 10 5 24l3 11q0 31 -51 37h-76q-71 0 -94 -13q-29 -16 -41 -79q-22 -125 -43 -234l-65 -303q-18 -83 -90 -399q-80 -362 -80 -369z" />
<glyph unicode="I" horiz-adv-x="378" d="M76 41q0 -86 98 -86q115 0 115 98q0 7 -4 27q196 828 247 1032l41 168q1 4 27 51q25 39 25 55q0 37 -7 58q-39 45 -122 45q-31 0 -68 -16q-40 -21 -43 -54q-3 -61 -31 -190l-49 -197l-225 -960q-4 -24 -4 -31z" />
<glyph unicode="J" horiz-adv-x="550" d="M-70 31q0 -58 97 -109q84 -41 149 -41q147 0 236 111q69 83 110 250q27 150 51 266l68 338q64 283 92 387l25 86q14 49 14 86q0 5 -4 37q-21 35 -119 35q-87 0 -108 -78q-2 -20 -9 -71t-10 -79l-59 -325q-83 -429 -94 -478q-40 -189 -50 -217q-49 -135 -149 -135 q-17 0 -72.5 8.5t-70.5 8.5q-97 0 -97 -80z" />
<glyph unicode="K" horiz-adv-x="831" d="M78 12q0 -48 51 -57q2 -1 90 -4h8q52 0 54 39q4 33 8 67.5t5.5 49.5t2.5 18q14 62 33.5 149.5t25.5 114.5l105 146q20 -39 86 -154q54 -94 82 -152q9 -19 27 -53t22 -41q47 -84 76 -84q17 0 65 31q72 47 72 119q0 31 -135 262q-133 233 -133 282q0 26 149 236t209 270 q66 66 78 82q16 26 16 37q0 38 -45 64q-48 28 -82 28q-31 0 -74 -55q-307 -423 -436 -606q111 461 127 530q45 45 45 68q0 86 -118 86q-73 0 -91 -37q-4 -4 -22 -90l-221 -983q-11 -47 -47 -185q-33 -132 -33 -178z" />
<glyph unicode="L" horiz-adv-x="651" d="M102 43q0 -59 70 -172q117 41 215 53q17 3 234 15q42 3 53 59q-5 72 -21 88l-20 8q-22 -3 -60 6q-47 9 -59 9q-147 10 -201 10l222 1048q10 53 34 119q4 9 12.5 27.5t12.5 29t8 27t4 31.5q0 59 -57 59h-17q-6 -2 -16 -2q-59 19 -74 19q-50 0 -71 -103q-37 -190 -58 -313 q-106 -474 -198 -909q-13 -60 -13 -109z" />
<glyph unicode="M" horiz-adv-x="1044" d="M88 -76q0 -45 35 -45l108 -2h7q63 0 77 55q-6 35 -12 41q19 112 33 162q55 271 80 381q0 -336 43 -426q12 -24 47 -24q3 0 13 2t13 2q60 -13 62 -13q48 0 106 129q12 27 33.5 83t32.5 83l139 357l-125 -611q-2 -6 -2 -30q0 -38 23 -48q15 -6 55 -6q70 0 86 4q44 9 53 58 l-4 39l-4 4q57 312 103 528l143 709q39 39 39 71q0 68 -156 68q-49 0 -143 -229q-4 -11 -29.5 -76.5t-66.5 -171t-86 -223.5q-110 -291 -197 -463v86q-2 37 -2 84v198q0 88 29 306q30 203 30 303q0 52 -6 55q-19 16 -80 31q-66 16 -88 16q-28 0 -52 -16.5t-24 -40.5 q0 -17 5 -37q-68 -288 -95 -412l-110 -471q-91 -394 -109 -481q-4 -24 -4 -29z" />
<glyph unicode="N" horiz-adv-x="901" d="M94 -33q0 -73 119 -73q43 0 63 4q30 9 39 47l-20 37l14 -7v2q0 125 47 355q60 279 76 350q0 -381 57 -530q37 -102 72 -132t164 -30q87 0 139 243l160 779q42 182 47 209q35 155 35 225q0 29 -14 37q-1 0 -5 1t-13.5 3.5t-20.5 5.5q-42 10 -43 10q-68 0 -82 -26 q-10 -10 -13 -35q-39 -263 -71 -410q-3 -16 -10 -71q-122 -606 -154 -760q-33 39 -51 272l-19 295q-4 66 -8.5 129t-6 89t-1.5 28q0 170 37 260q24 62 24 82q0 74 -100 74q-122 0 -149 -37q-66 -301 -132 -607l-176 -782q-4 -24 -4 -37zM678 190l2 11q7 -7 10 -8z" />
<glyph unicode="O" horiz-adv-x="901" d="M117 199q0 -185 92 -250q60 -42 90 -49q53 -11 78 -25q3 -1 9 -2.5t18.5 -5t23.5 -6.5q27 -8 49 -8q151 0 314 245q164 250 231 576q29 148 29 278q0 71 -13 160q-24 164 -61 219q-53 71 -195 111q-121 31 -145 31q-50 0 -129 -70q-153 -135 -279 -567 q-112 -383 -112 -637zM319 180q0 230 56 469q59 257 162 441q108 194 194 194q30 0 82 -49q30 -27 51 -98q19 -62 19 -111q0 -207 -58 -436q-66 -260 -168 -406q-117 -166 -227 -166q-111 0 -111 162z" />
<glyph unicode="P" horiz-adv-x="747" d="M90 35q0 -37 47 -72q100 -18 100 -22h-1q33 6 50 27.5t27 78.5q37 221 78 402q217 0 402 262q168 241 168 471q0 160 -117 248q-107 79 -271 79q-168 0 -174 -41q-4 -54 -4 -57l-127 -598q-6 -26 -13 -52t-13.5 -50t-8.5 -33l-92 -406q-51 -205 -51 -237zM418 621l4 -13 q15 91 35 166q9 44 30 137q72 336 88 361q16 22 48 22q109 0 135 -26q28 -25 28 -142q0 -85 -55 -198q-53 -106 -117 -176q-119 -131 -196 -131z" />
<glyph unicode="Q" horiz-adv-x="901" d="M119 262q0 -196 24 -266q47 -133 205 -133q18 6 76 6q39 0 127 -174q89 -176 143 -176q32 0 58 30t26 66q0 34 -16 66q-72 154 -119 264q198 115 326 491q108 323 108 608q0 136 -63 259q-76 144 -197 159q-58 3 -84 6q-91 31 -115 31q-96 0 -176 -123 q-90 -143 -168 -350q-75 -202 -110 -373q-45 -210 -45 -391zM315 199q0 497 211 907q114 221 197 221q168 0 168 -336q0 -193 -64 -409q-65 -221 -168 -373q-132 -197 -235 -197q-109 0 -109 187z" />
<glyph unicode="R" horiz-adv-x="847" d="M82 16q0 -32 31 -47q17 -9 57 -20q139 9 139 88q0 4 -4 20q48 215 76 389q59 10 102 25q134 -235 197 -340q37 -70 68 -70q41 0 157 125q-46 28 -51 33q-27 56 -76 180q-60 150 -57 172q122 103 170 134q190 163 190 387q0 135 -92 262q-120 164 -416 164 q-176 0 -176 -103q0 -14 6 -29q-68 -326 -159 -704q-162 -654 -162 -666zM422 639q62 294 104 436q0 1 3.5 16t8.5 38t9 49q12 53 31 96q9 18 32 18q57 0 158 -8q160 -12 160 -147q0 -184 -217 -359q-177 -139 -289 -139z" />
<glyph unicode="S" horiz-adv-x="808" d="M-4 53q0 -50 22 -59q201 -75 238 -90q136 -43 248 -43q123 0 217 76q96 75 96 194q0 80 -92 195q-141 168 -174 213q-92 142 -92 286q0 213 139 387q94 117 158 117q61 0 61 -78q0 -73 -33 -272l-18 -119q0 -102 76 -102q13 0 41 14q32 14 39 21q38 38 59 204 q14 112 14 222q0 122 -39 180.5t-149 99.5q-85 33 -115 33q-67 0 -137 -70l-129 -127q-68 -69 -121 -256q-49 -168 -49 -288q0 -136 94 -279q46 -70 174 -225q94 -113 94 -160q0 -78 -135 -78q-78 0 -178 35q-29 11 -86 35t-86 35q-25 -7 -43 -7q-94 -37 -94 -94z" />
<glyph unicode="T" horiz-adv-x="858" d="M289 1411q0 -43 12 -70q26 -26 150 -47q125 -21 147 -49q-90 -382 -213 -919q-16 -70 -31 -119q-2 -7 -15.5 -44.5t-19.5 -56.5q-20 -56 -20 -104q0 -78 70 -78q108 0 114 2q58 12 58 78v8q-6 12 -6 25q47 263 131 610q38 161 73 307t52 216.5t20 82.5q9 45 141 54 q151 12 185 36q43 34 43 62q0 82 -275 82q-48 0 -260 -4q-188 -8 -262 -8q-7 0 -14.5 -2t-15 -6.5t-13 -8t-14.5 -11.5t-12.5 -11.5l-13 -13z" />
<glyph unicode="U" horiz-adv-x="882" d="M166 252q0 -289 266 -289q94 0 133 8l-12 -71q0 -36 17 -43t87 -7h25q30 0 63 23t33 41q2 10 2 76q0 70 70 366q121 515 190 758q7 20 20.5 60t20.5 59q29 92 29 127q0 17 -4 33q-17 39 -135 39q-12 0 -27 -5l-16 5q-46 -9 -49 -50q-12 -79 -21 -106l-221 -993 q-36 -155 -45 -162q-13 -10 -100 -10q-123 0 -123 204q0 253 123 637q9 27 28.5 83.5t28.5 84.5q49 148 49 193q0 68 -76 80q-72 10 -76 10q-70 0 -73 -103l4 -12q-170 -755 -189 -842q-22 -110 -22 -194z" />
<glyph unicode="V" horiz-adv-x="808" d="M274 1331q19 -561 19 -729q0 -79 -6 -235q-4 -208 -4 -236q0 -102 2 -106q9 -60 63 -72q83 -21 107 -21q44 0 59 43q73 209 141 361l453 993q0 50 -14 64q-7 4 -52 32q-5 1 -16 3t-16 2q-36 0 -74 -66l-43 -98q-286 -625 -397 -906v123q-2 55 -2 123q0 18 4 334 q5 161 5 259q0 42 -1 73q33 42 33 67q0 24 -11 35q-1 1 -5 2t-13 3.5t-17 4.5q-77 21 -112 21q-39 0 -68 -16q-35 -19 -35 -53v-5z" />
<glyph unicode="W" horiz-adv-x="1118" d="M176 2v-96q9 -60 57 -60q96 0 125 29q22 22 37 74q187 556 312 901q-9 -412 -23 -602q-11 -141 -25 -287q-3 -37 31 -49q43 0 105 10q46 9 151 320q188 556 422 1024q4 7 12.5 22.5t13.5 24.5t9 23t4 28q0 40 -21 49q-9 1 -26.5 4t-26.5 4q-47 13 -47 15q-58 0 -102 -93 q-254 -586 -322 -755q49 447 49 626q0 65 -34 80q-15 6 -97 6q-36 0 -57 -43q-94 -220 -121 -294q-131 -344 -196 -533l86 803q2 18 2 33q0 88 -60 88q-76 0 -100 -8q-55 -15 -55 -72q0 -163 -46 -670q-30 -300 -49 -514q-1 -9 -2 -18.5t-1.5 -17t-1 -14t-1 -12t-1 -10 t-1 -7.5t-0.5 -5.5v-3.5z" />
<glyph unicode="X" horiz-adv-x="825" d="M-8 -2q0 -59 104 -59q47 0 74 43q6 13 18.5 40t18.5 41q177 339 299 537q84 -328 201 -559q13 -23 41 -23q25 0 59.5 22.5t44.5 45.5l-4 49q-41 18 -135 334q-47 159 -92 326q292 424 387 540q8 9 18.5 22t15 18t13.5 12.5t22 13.5q56 33 56 61q0 39 -54 99 q-37 18 -78 18q-36 0 -67 -31q-11 -11 -49 -63l-129 -172l-187 -273q-15 62 -34.5 146t-20.5 90q-21 86 -27 98q-22 36 -86 51q-82 -46 -82 -77q0 -65 58 -275q38 -149 63 -231q-229 -380 -258 -430q-68 -132 -78 -154l-69 -123q-43 -82 -43 -137z" />
<glyph unicode="Y" horiz-adv-x="919" d="M274 1366q0 -16 13 -70q42 -176 84 -419q49 -295 49 -431q0 -82 -51 -296q-31 -136 -31 -148q0 -70 78 -70q97 0 119 54q6 49 22 147q43 239 57 289q21 64 238 401q69 106 192 297q23 36 109 142q61 73 61 90q0 23 -6 41l-24 16t-17 11.5t-6 4.5q-24 -1 -52 13t-34 14 q-32 -14 -57 -55q-149 -221 -316 -484q-101 -157 -133 -206q-53 319 -94 585q-15 102 -43 111q-30 24 -86 24q-27 0 -49.5 -18.5t-22.5 -42.5z" />
<glyph unicode="Z" horiz-adv-x="735" d="M39 51q-1 -49 37 -79q31 -25 72 -26q8 0 16 1q185 20 395 51q43 6 96 27q68 27 74 55q2 6 2 31q0 57 -131 63q-80 2 -178 2l-125 2q11 14 18 43q116 180 217 348l363 594q92 151 92 215q0 55 -67 70q-27 6 -113 6q-98 0 -215 -8q-207 -13 -213 -14q-88 -3 -88 -86 q0 -53 43 -68q15 -7 88 -10l315 -11l-659 -1069q-39 -62 -39 -137z" />
<glyph unicode="[" horiz-adv-x="487" d="M-18 -408q0 -34 36 -34q4 0 20.5 4t20.5 4q84 0 119 -2q4 0 20.5 -3t20.5 -3q60 0 82 22q59 146 66 184q-17 17 -35 17q-9 0 -33 -12l-109 12l336 1579l117 14l23 -16q57 9 57 125q0 10 -4 88q-19 19 -33 16q-77 -12 -90 -12q-162 0 -182 -2q-16 -22 -25 -60 q-28 -139 -59 -288.5t-67 -320t-54 -255.5l-209 -968q-18 -85 -18 -89z" />
<glyph unicode="\" horiz-adv-x="460" d="M244 1481q17 -136 28 -307q16 -172 62 -609l61 -585q9 -91 60 -91q18 0 53 35q30 30 40.5 50.5t10.5 52.5q0 13 -16 213q-105 937 -119 1284q-3 41 -41 41q-127 0 -139 -84z" />
<glyph unicode="]" horiz-adv-x="487" d="M4 -350q0 -56 2 -60q6 -32 39 -32q10 0 96 4t97 4l8 -2q20 -3 37 -6q45 9 57 71q59 305 125 621l274 1261l9 35q0 30 -80 33h-105q-23 2 -53.5 4.5t-38.5 3.5q-11 0 -37 -16q-63 -123 -63 -176q0 -35 28 -35q19 0 31 12l107 -12l-336 -1579l-115 -12q-12 12 -25 12 q-57 0 -57 -131z" />
<glyph unicode="^" horiz-adv-x="458" d="M209 1028q9 -90 39 -90q22 0 98 49q16 12 49 33t49 33q11 -9 34.5 -29t35.5 -29q45 -35 78 -47q21 5 36.5 21.5t33.5 44.5q2 4 2 16q0 21 -11 39l-135 211l-20 14q-31 -7 -82 -55l-66 -65q-109 -96 -117 -103z" />
<glyph unicode="_" horiz-adv-x="876" d="M-88 -309h922l32 155h-921z" />
<glyph unicode="`" horiz-adv-x="356" d="M250 1243q0 -56 65 -151q78 -111 101 -142q19 -28 45 -28q14 0 102 55l8 47q3 23 -92 141q-28 44 -47 80q-3 5 -9.5 17.5t-9.5 17.5t-9.5 15t-12 14.5t-13 10t-16.5 7.5t-20 2q-37 0 -64.5 -25t-27.5 -61z" />
<glyph unicode="a" horiz-adv-x="606" d="M53 147q0 -101 119 -131q55 -14 201 -14q-37 -78 -37 -88q0 -37 37 -37q8 0 29.5 2t25.5 2h18q3 -1 23 -6q49 0 70 96q111 517 112 521q39 133 39 233q0 97 -24 127q-8 10 -105 72q-83 6 -84 6l-61 10q-87 0 -166 -149q-72 -138 -72 -232q0 -96 70 -96q71 0 106 84 l43 160q24 81 82 81q31 0 31 -69q0 -51 -43 -279q-46 17 -96 17q-113 0 -215 -99q-103 -100 -103 -211zM223 162q0 31 51 76q53 47 136 47h30l-30 -140q-62 -10 -70 -10h-31q-86 0 -86 27z" />
<glyph unicode="b" horiz-adv-x="581" d="M39 -35q0 -59 74 -59q106 0 127 108v-22q47 -8 77 -8q143 0 213 114q56 88 101 252q43 157 43 275q0 89 -41 151q-46 70 -135 70q-42 0 -82 -19q98 362 98 420q0 28 -9 35t-44 12q-59 9 -72 9q-75 0 -78 -62q-16 -130 -35 -221q-27 -122 -53.5 -242t-51.5 -230t-34 -151 q-29 -131 -65 -315q-2 -8 -21 -57q-12 -34 -12 -60zM252 115q-3 7 37 172l43 190q47 232 125 232q35 0 35 -58q0 -143 -46 -311q-58 -229 -157 -229q-4 0 -18.5 2t-18.5 2z" />
<glyph unicode="c" horiz-adv-x="536" d="M68 203q0 -236 213 -236q91 0 145 31q35 19 117 96q39 33 39 74q0 23 -19 41t-43 18q-27 0 -98 -65q-70 -64 -123 -64q-59 0 -59 107q0 93 57 264q59 175 111 246q35 47 51 47t16 -31q0 -33 -18 -110q-19 -78 -19 -95q0 -71 8 -84q16 -28 76 -28q55 0 70 18q16 19 37 133 q18 108 18 152q0 207 -225 207q-81 0 -119 -35q-76 -70 -158 -324q-77 -242 -77 -362z" />
<glyph unicode="d" horiz-adv-x="612" d="M68 102q0 -85 22 -110q25 -28 107 -49q30 -9 59 -9q36 0 125 13q0 -8 -8 -42.5t-8 -43.5v-21q15 -30 57 -30q87 0 104 20q11 11 29 98q31 143 62.5 290t45.5 211t17 79q81 300 123 440q7 24 21.5 70t21.5 69q22 90 22 146q0 69 -37 78q-10 3 -41.5 22t-41.5 19 q-66 0 -93 -144l-75 -366q-140 35 -144 35q-26 0 -98 -60q-49 -43 -127 -190q-57 -105 -98 -254q-45 -151 -45 -271zM240 137q0 106 82 316q88 235 167 235q35 0 35 -55q0 -64 -57 -307l-49 -207q-62 -45 -127 -45q-51 0 -51 63z" />
<glyph unicode="e" horiz-adv-x="555" d="M53 88q0 -123 80 -164q51 -26 199 -26q61 0 147 59t107 117q-6 57 -64 57q-31 0 -110 -55q-80 -53 -119 -53q-76 0 -76 100q0 33 6 67q97 5 264 5q68 0 95 147q47 249 47 315q0 122 -31 150q-28 28 -149 43q-2 0 -18.5 4t-24.5 4q-83 0 -136 -92q-103 -182 -131 -260 q-86 -244 -86 -418zM254 326q21 89 80 213q73 163 127 163q16 0 16 -30q0 -191 -55 -334q-114 -9 -168 -12z" />
<glyph unicode="f" horiz-adv-x="409" d="M57 -66q0 -43 45 -43l52 9q21 -9 55 -9q38 0 47 43q8 51 10 72q9 61 13 70l114 524q82 -4 94 -4q140 0 140 78q0 80 -111 80q-68 0 -88 -2q67 277 127 292q70 -61 92 -61q26 0 55 45q3 6 3 16q0 61 -66 130q-63 69 -127 69q-129 0 -178 -162q-61 -237 -80 -344 q-82 -3 -94 -8q-39 -14 -39 -76q0 -47 26 -59q16 -4 70 -4q-99 -421 -143 -584q-4 -17 -8.5 -35.5t-6.5 -26t-2 -10.5z" />
<glyph unicode="g" horiz-adv-x="679" d="M-86 -293q0 -85 88 -119q131 -49 311 -49q152 0 267 53q145 71 145 205q0 90 -94 148q-57 36 -158 69q-95 33 -168 33q-27 0 -47 -4q16 32 115 74q124 54 184 114q103 100 141 289q9 40 9 82q0 86 -9 133q187 108 187 148q0 82 -72 82q-50 0 -108 -43q-82 -29 -152 -29 q-11 0 -52.5 6t-54.5 6q-102 0 -204 -243q-90 -218 -90 -338q0 -84 43 -127q-113 -76 -113 -181q0 -39 24 -57q-192 -119 -192 -252zM88 -260q0 36 74 92q76 55 114 55q42 0 154 -47q113 -49 113 -78q0 -36 -125 -63q-106 -25 -160 -25q-170 0 -170 66zM313 340 q0 154 103 299q69 96 102 96q37 0 37 -78q0 -101 -43 -231q-58 -166 -137 -166q-62 0 -62 80z" />
<glyph unicode="h" horiz-adv-x="679" d="M49 -27q0 -57 88 -57q70 0 84 14t29 84l53 262q7 36 17 83t12 57q20 118 39 157q37 76 127 76q61 0 61 -47q0 -46 -16 -121q-1 -2 -31 -121q-51 -226 -57 -249q-1 -1 -17 -54q-12 -34 -12 -53q0 -52 6 -67q12 -27 55 -27h11q6 2 10 2q9 -6 20 -6q3 0 7.5 -2t7.5 -2 q38 0 53 51l12 80q17 88 23 112q50 203 76 297q14 89 24 140q1 9 1 18q0 36 -18 76q-23 52 -59 69l-77 39q-39 17 -78 17q-48 0 -68 -13q88 307 119 342q7 9 16 21.5t11 15.5q14 20 14 33q0 62 -49 80q-27 12 -107 12q-73 0 -82 -82q-14 -76 -41 -190q-92 -382 -143 -578 q-33 -129 -65 -252.5t-44 -169.5t-12 -47z" />
<glyph unicode="i" horiz-adv-x="391" d="M72 -8q0 -47 80 -47q103 0 118 41q3 15 11.5 58t13.5 67l80 301q60 233 96 321q21 52 21 70q0 50 -41 53q-67 9 -74 14q-53 0 -78.5 -23t-30.5 -71q-24 -269 -110 -532l-58 -176q-4 -11 -18 -37q-10 -23 -10 -39zM317 1024q0 -43 28 -74.5t69 -31.5q52 0 104 81 q47 77 47 131q0 42 -26 73.5t-64 31.5q-53 0 -90 -49l-55 -92q-13 -67 -13 -70z" />
<glyph unicode="j" horiz-adv-x="391" d="M25 -356q0 -47 34 -47q7 0 27 3t25 3q21 -15 41 -15q58 0 67 78q42 244 78 408q94 411 127 540q14 48 39 115q29 76 29 107q0 63 -95 63h-47q-61 0 -76 -61q-19 -96 -26 -164l-162 -740q-30 -122 -35 -147q-26 -104 -26 -143zM342 1079q0 -42 29 -76t67 -34 q137 73 137 192q0 85 -77 115q-57 0 -107 -68q-49 -67 -49 -129z" />
<glyph unicode="k" horiz-adv-x="606" d="M68 -23q-2 -7 -2 -13q0 -18 14 -34q18 -20 45 -20q16 -4 41 -4q58 0 76 35q6 11 22 84l45 229q111 -293 176 -293q53 0 115 33q68 35 68 72q0 42 -27 45q-78 9 -121 129q-40 110 -43 211q61 107 137 190q18 17 53 53t52 54q98 104 98 139q0 36 -45 39l-10 6q-5 8 -29 8 q-81 0 -348 -340q72 310 150 582q13 39 14 41q0 65 -66 65q-54 0 -108 -4q-38 -3 -62 -125q-7 -56 -22 -158q-40 -234 -117 -573z" />
<glyph unicode="l" horiz-adv-x="391" d="M98 -12v-6q10 -26 31 -29q16 0 41 2q5 0 23 -2t22 -2q41 0 66.5 26.5t25.5 67.5q0 10 -2 18v19q21 116 60 274q158 672 167 709q1 5 22 48.5t21 64.5q0 39 -32 53q-19 0 -66.5 14.5t-58.5 14.5q-30 0 -45 -43q-1 -1 -17 -70q-6 -32 -16 -78.5t-15.5 -76t-9.5 -50.5 l-206 -874q-11 -53 -11 -80z" />
<glyph unicode="m" horiz-adv-x="1067" d="M96 57q0 -61 135 -61q26 0 47 21.5t23 48.5q1 13 1.5 30.5t1 28.5t1.5 18q9 159 101 445q23 66 61 102.5t80 36.5q24 0 24 -53q0 -129 -59 -348q-7 -22 -21.5 -63.5t-21.5 -63.5q-25 -83 -25 -133t14.5 -62t67.5 -12h17q6 2 14 2q12 -6 25 -6q57 0 57 82q0 131 55 329 q62 231 137 289q48 39 64 39q63 0 63 -88q0 -60 -32 -174q-44 -193 -47 -207q-49 -200 -60 -215q-20 -23 -28 -45q0 -61 40 -61q46 0 82 8q6 -3 21 -6q65 0 74 67q18 114 36 213q18 80 54 244q32 134 32 248q0 54 -55 94q-56 41 -110 41q-23 10 -70 10q-69 0 -178 -74 q-40 70 -170 70q-5 0 -33 -4q-7 -1 -15 -2t-12.5 -1.5t-7.5 -0.5h-10q3 9 18 33q11 18 11 38q0 31 -60 66q-3 -13 -86 -16q-82 -3 -82 -64q0 -1 4 -29q-56 -280 -81 -368l-82 -369q-15 -65 -15 -78z" />
<glyph unicode="n" horiz-adv-x="714" d="M78 31q0 -49 119 -49q27 0 53 17t26 40q0 82 27 199q7 33 22.5 98t22.5 98q19 94 64 162q58 94 135 94q45 0 45 -43q0 -13 -35 -203q-51 -260 -61 -303q-5 -22 -29 -78q-18 -49 -18 -79q0 -56 77 -56q1 0 7.5 1.5t23 5t33.5 6.5q40 9 49 51q1 14 4 40t4 40q28 126 53 237 q62 275 62 346q0 164 -137 164q-99 0 -146 -12q-15 71 -33 92q-25 31 -92 31q-35 0 -88 -39q0 -41 4 -39l-94 -449q-53 -244 -86 -335q-12 -35 -12 -37z" />
<glyph unicode="o" horiz-adv-x="573" d="M55 104q0 -98 47 -139q36 -28 107 -37q72 -8 100 -26q138 0 215 145q55 106 103 295q51 188 51 301q0 208 -115 229q-103 19 -149 35q-7 2 -14 2q-48 0 -111 -88q-93 -132 -162 -346q-72 -222 -72 -371zM242 102q0 124 61 347q74 268 154 268q49 0 49 -84 q0 -117 -62 -330q-76 -258 -159 -258q-43 0 -43 57z" />
<glyph unicode="p" horiz-adv-x="587" d="M-29 -426q0 -3 4 -31q21 -30 60 -30q11 0 43 4l26 -23q65 9 74 78q28 265 66 428q28 -9 48 -15t28.5 -9t7.5 -3q150 0 258 217q88 180 88 353q0 218 -53 239q-108 49 -132 49q-18 0 -51 -10q49 131 49 140q0 48 -11 65.5t-50 17.5q-24 0 -74 -12q-58 -15 -73 -55 q-2 -10 -9 -43.5t-10 -52.5q-74 -340 -88 -404l-125 -547q-11 -48 -23 -102t-25.5 -116.5t-21.5 -98.5q-6 -18 -6 -39zM274 141q0 -5 6 20t18.5 86.5t29.5 145.5q58 301 131 301q51 0 51 -78q0 -110 -55 -284q-65 -215 -150 -215q-31 0 -31 24z" />
<glyph unicode="q" horiz-adv-x="618" d="M84 186q0 -133 66 -174q46 -32 186 -32l-94 -406q-14 -62 -17 -59q0 -58 56 -58q151 0 151 76v18q-2 10 -2 21l-4 8l121 541q12 48 80 321q29 133 35 166q18 83 47 162q34 66 34 92q0 51 -51 66q-21 6 -96 6q-31 0 -53.5 -21t-22.5 -51q0 -8 4 -35.5t4 -35.5l4 18 q-56 18 -83 18q-257 0 -330 -374q-35 -178 -35 -267zM250 201q0 123 53 284q65 201 162 201q27 0 39 -18l-78 -340q-50 -213 -127 -213q-49 0 -49 86z" />
<glyph unicode="r" horiz-adv-x="436" d="M53 -25q0 -22 13 -32q21 -27 127 -27q55 0 73 80q9 58 15 117q48 245 67 329q15 75 72 123l-10 10q3 -75 4 -77q9 -39 57 -39q32 0 74 33q43 34 43 61q0 22 -45 102q-47 84 -107 84q-6 0 -8 -2l-2 -2h2q34 40 35 41q22 28 22 47q0 49 -67 58q-18 1 -53.5 3t-53.5 3 q-25 -5 -43 -24.5t-18 -43.5q0 -140 -125 -594q-23 -66 -39 -125q-33 -98 -33 -125z" />
<glyph unicode="s" horiz-adv-x="536" d="M20 35q0 -51 54 -66q6 -3 94 -12q50 -6 80 -6q231 0 284 164q9 24 9 47q0 63 -76 121q-115 76 -125 82q-23 20 -23 67q0 164 97 266q41 41 49 41q4 0 6 -2v-16q0 -51 -16 -109q-21 -73 -21 -104t24 -55.5t56 -24.5q55 0 82 59q5 18 15.5 52t15.5 51q26 74 26 155 q0 140 -123 140q-22 0 -66 10t-56 10q-117 0 -203 -207q-70 -168 -70 -307q0 -94 57 -151q32 -32 109 -68q57 -26 57 -43q0 -39 -94 -39q-40 0 -84 33t-67 33q-11 -2 -39 -11q-52 -37 -52 -110z" />
<glyph unicode="t" horiz-adv-x="415" d="M92 14q0 -51 58 -51h61q33 0 58.5 17t25.5 45q0 69 29 208l116 498q84 8 133 10q48 12 48 115q0 41 -39 41q-15 0 -101 -4l37 137q10 19 17 31q14 17 14 31q0 71 -76 71q-17 -2 -35 -8l-26 4l-19 23q-21 0 -38 -17.5t-17 -40.5q-17 -161 -37 -252q-79 -11 -94 -16 q-33 -14 -33 -76q0 -40 10.5 -58t30.5 -15l45 6q-66 -264 -145 -611q-3 -3 -15 -43q-8 -24 -8 -45z" />
<glyph unicode="u" horiz-adv-x="710" d="M115 139q0 -182 204 -182q43 0 105 27q-12 -46 -12 -66q0 -65 127 -65q31 0 58.5 18.5t27.5 46.5q0 8 -5.5 31t-5.5 28q0 20 56 277q80 356 94 410q23 39 49 73q2 6 2 25q0 42 -31 51l-104 25l-12 6q-73 -15 -76 -70v-31l-115 -563q-82 -61 -135 -61q-41 0 -41 57 q0 176 92 438q66 192 66 193q0 16 -10 43q-7 0 -33 -3t-33 -3t-32 3t-32 3q-51 0 -67 -29q-7 -46 -14 -76l-113 -514q-10 -52 -10 -92z" />
<glyph unicode="v" horiz-adv-x="512" d="M145 33q0 -8 1.5 -15t6 -12.5t7.5 -10t10.5 -8t11.5 -5.5t14 -4.5t13.5 -3t15 -3t13.5 -2.5l34 8q9 -6 21 -10q52 0 65 8q30 15 45 76q40 161 123 377q117 297 127 313q39 65 39 82q0 42 -7.5 56.5t-39.5 27.5h-24l-11 6q-6 2 -30 2t-45 -43q-23 -75 -27 -90 q-28 -87 -78 -217l-115 -295q19 259 37 422q1 4 10 41.5t9 50.5q0 62 -76 62q-131 0 -131 -66q0 -538 -6 -661q-3 -20 -6.5 -43t-5 -32t-1.5 -11z" />
<glyph unicode="w" horiz-adv-x="741" d="M94 23q0 -50 70 -50q74 0 94 4q52 12 61 64q2 14 6.5 30.5t4.5 18.5l98 252q-10 -113 -10 -188q0 -15 2 -68t2 -70q0 -44 6 -53q10 -16 49 -16q21 0 35 -2h35q70 0 92 22q9 13 31 90q37 128 143 443q55 166 94 245q0 1 2.5 4.5t8.5 12t12 18.5q16 26 16 35q0 37 -14 51 t-49 27q-4 4 -29 10q-34 0 -74 -24q-34 -87 -43 -117l-151 -486q1 11 4 76t6 123q6 120 6 197q0 18 -2 22q-10 17 -39 17q-96 0 -112 4q-11 -3 -19.5 -9t-15 -17.5t-9.5 -18.5t-8.5 -24.5t-7.5 -22.5l-88 -217q46 192 61 290q9 27 21 60q16 43 16 53q0 48 -47 63 q-28 7 -88 7q-23 0 -52.5 -24.5t-33.5 -47.5q4 -28 4 -33v-1q0 -1 -0.5 -4.5t-1 -8.5t-1 -12.5t-1.5 -16t-2 -20t-2 -23.5q-7 -72 -24 -230.5t-23 -213.5q-2 -12 -18 -115q-15 -85 -15 -106z" />
<glyph unicode="x" horiz-adv-x="557" d="M6 -23q0 -38 72 -47l18 7h-8q10 -17 33 -17q6 0 26 4q28 16 31 33q6 35 8 37q87 167 127 225q69 -210 74 -225q16 -19 33 -19q4 0 41 11q123 24 123 77q0 15 -6 27q-9 26 -50 98q-37 67 -45 101l-34 125l155 211q91 126 101 129q45 15 45 63q0 23 -48 45q-16 25 -67 25 q-59 0 -68 -53q-10 -10 -22 -24t-20.5 -23t-14.5 -15q-61 -76 -102 -139q-2 6 -2 26l-5 93q-9 57 -53 57q-12 -3 -32.5 -8t-32.5 -8q-42 -10 -54 -25.5t-12 -60.5q0 -47 49 -285q-260 -409 -260 -445z" />
<glyph unicode="y" horiz-adv-x="704" d="M4 -295q0 -37 21 -49l53 -10q200 -37 219 -37q127 0 215 110q79 98 100 232q3 24 8.5 65.5t6.5 55.5l90 440q21 109 43 213q1 6 16 34.5t15 37.5q0 41 -25 57q-11 1 -29 3l-37 5q-102 0 -120 -67q-2 -19 -9 -73.5t-10 -84.5l-88 -467q-104 -55 -137 -55q-41 0 -41 30 q0 33 49 277q50 245 55 256q1 2 4.5 8.5t10 18t12.5 22.5q12 24 12 55q0 33 -32 41q-6 2 -60 2l-16 11q-65 -20 -80 -32q-16 -14 -21 -36q-1 -7 -4 -24t-4 -27q-99 -510 -100 -516q-3 -14 -6 -30l-2 -9q0 -203 202 -203q37 0 117 27q-17 -104 -45 -152q-43 -67 -133 -67 q-39 0 -94 22q-54 23 -66 23q-90 0 -90 -107z" />
<glyph unicode="z" horiz-adv-x="569" d="M39 39q0 -70 98 -70h70q35 2 69 2l201 2q88 0 88 107q0 27 -14.5 51t-36.5 23l-219 -27l231 305q3 3 92 113q89 115 89 131q0 45 -40.5 87t-84.5 42l-213 -4q-108 -3 -129 -15q-45 -20 -45 -112q0 -64 38 -78q59 25 91 31q32 -4 141 -4q-166 -205 -279 -349 q-147 -188 -147 -235z" />
<glyph unicode="{" horiz-adv-x="368" d="M82 -74q0 -86 22 -182q31 -130 31 -137q0 -39 51 -39q55 0 94 48.5t39 107.5q0 38 -51 106q-20 26 -20 166q0 171 121 620q0 11 51 205q26 110 59 203q80 222 150 338q7 12 21.5 35.5t21.5 34.5q24 44 24 77q0 54 -65 54q-121 0 -133 -142q-154 -266 -262 -655 q-2 -13 -17 -27q-13 -11 -38.5 -33t-39.5 -34q-39 -39 -39 -94q0 -33 26 -80t26 -54q0 -77 -37 -256q-35 -181 -35 -262z" />
<glyph unicode="|" horiz-adv-x="270" d="M33 -78q0 -44 8.5 -58t44.5 -24q27 -8 37 -8q46 0 61 49q3 13 8.5 40t8.5 40l321 1434q4 15 12.5 45t12.5 45q14 52 14 92q0 39 -45 51q-110 -15 -145 -102q18 -55 -287 -1374q-5 -20 -15.5 -58t-15.5 -57q-20 -73 -20 -115z" />
<glyph unicode="}" horiz-adv-x="368" d="M-88 -340q0 -92 84 -92q42 0 88 70q12 18 33.5 53.5t32.5 52.5q96 146 118 225l125 467q47 63 101 117q24 35 24 80q0 42 -33 78q-32 38 -32 55q0 16 10 66t10 51q10 92 10 182q0 129 -2 209q0 6 -4 72q-4 70 -4 77q0 8 4 33.5t4 32.5q0 48 -17.5 61t-74.5 13 q-41 0 -66.5 -31.5t-25.5 -75.5q0 -5 14.5 -95.5t14.5 -189.5q0 -173 -25 -335q-21 -113 -43 -222q-74 -442 -143 -620q-51 -129 -107 -174q-96 -81 -96 -160z" />
<glyph unicode="~" horiz-adv-x="417" d="M207 1008l3 -13l5 -30q18 -27 39 -27q61 43 82 70q128 -76 162 -76q54 0 118 82q66 84 66 123q0 84 -53 84q-30 0 -64 -58l-6 -2q-73 32 -80 35q-58 25 -84 25q-73 0 -153 -136q-35 -59 -35 -77z" />
<glyph horiz-adv-x="1867" d="M29 676h258q79 -278 319 -477q159 -141 398 -199h376q242 59 379 178l19 240q-316 -338 -774 -258q-438 199 -537 516h973l100 160h-1114v157h1153l41 41l39 119l-1192 21q178 377 555 497q458 59 756 -260l59 160q-276 299 -815 258q-495 -99 -735 -676h-219l-39 -160 h239l19 -157q-258 58 -258 -119v-41z" />
<glyph unicode="&#xa1;" horiz-adv-x="368" d="M10 -70q0 -29 25 -45q1 -1 47 -22q75 -35 82 -35q59 0 69 10q56 27 56 92q0 1 -4 29q16 82 41 178l108 467q5 20 19 74.5t22 83.5q25 109 25 158q0 39 -23 55q-7 7 -59 26q-33 11 -45 11q-28 0 -51 -26t-25 -56q-6 -107 -49 -271q-58 -223 -115 -419q-50 -166 -72 -209 q-51 -51 -51 -101zM274 1233q0 -6 2 -12v-13q27 -125 136 -125q85 0 145 78q53 71 53 158q0 149 -172 149q-42 0 -96 -63q-68 -77 -68 -172z" />
<glyph unicode="&#xa2;" horiz-adv-x="583" d="M176 604q0 -199 143 -217q-43 -212 -43 -260q0 -78 37 -78q39 0 54 64l43 188l20 86q127 20 238 174q20 26 20 41q0 14 -16 27q-15 24 -62 24q-25 0 -92 -67q-68 -68 -112 -68q-58 0 -58 100q0 81 35 203q35 115 78 191q55 98 80 98q32 0 32 -41q0 -30 -16 -92t-16 -90 q0 -48 39 -62q19 -8 77 -8q45 0 72 113q21 86 21 162q0 90 -132 161q58 256 58 271q0 45 -43 45q-15 0 -27 -6q-11 -7 -19 -15t-14.5 -19.5t-10.5 -19t-7.5 -23.5t-5 -22t-4.5 -25.5t-4 -23.5l-31 -147q-144 -18 -246 -277q-88 -210 -88 -387z" />
<glyph unicode="&#xa3;" d="M80 57q12 -131 110 -131q52 0 117 35q68 35 105 35q53 0 153 -53q102 -54 170 -54q80 0 139 74q54 69 54 152q0 47 -41 47q-72 -72 -84 -72q-14 0 -133 64q-123 63 -158 69q35 113 53 221l142 -2q34 0 43 35q16 52 22 58q6 18 6 36q0 59 -63 68q-35 2 -107 2 q89 410 221 410q23 0 56 -23.5t43 -23.5q40 0 67 35.5t27 80.5q0 68 -68 121q-65 53 -135 53q-99 0 -188 -133q-87 -134 -127 -250q-34 -94 -64 -280l-75 -13q-120 -19 -134 -26q-61 -27 -61 -107q0 -26 17.5 -46.5t41.5 -20.5q73 0 187 20q-11 -53 -26.5 -129.5 t-20.5 -99.5l4 -4q-211 -24 -277 -115q-16 -22 -16 -33z" />
<glyph unicode="&#xa4;" d="M174 715q0 -12 10.5 -35t20.5 -23h49q-21 -89 -21 -135q0 -57 78 -153q80 -99 135 -113q-8 -33 -8 -53q0 -56 62 -56q50 0 71 62v33q3 0 16 -3l13 -3q48 0 96 51q73 80 76 82q160 121 209 278q27 15 39 21q20 10 36.5 48t16.5 68q0 47 -33 47q-15 -3 -24 -6 q15 223 -96 305q-11 2 -60 48q-42 45 -65 55l12 67q0 43 -39 43q-33 0 -70.5 -26t-38.5 -55q-3 -32 -6 -43q-92 -48 -143 -58q-54 -9 -96 -63q-26 -38 -58 -105q-48 -105 -53 -135q7 -14 10 -18q-88 3 -114 -17q-25 -22 -25 -108zM377 618q0 7 14 56q52 197 96 293 q9 15 52 30l61 19q11 4 37 24q24 17 37 17q59 0 82 -10q9 -10 17.5 -20.5t16.5 -20.5t11 -13q6 -8 43 -90q35 -78 35 -86q0 -62 -35 -158q-41 -113 -88 -127q-13 -11 -35 -31.5t-29 -27.5q-58 -49 -82 -49q-12 0 -100 14q-35 6 -86 72q-47 68 -47 108z" />
<glyph unicode="&#xa5;" horiz-adv-x="919" d="M166 653q0 -80 65 -80q16 0 84 7q59 9 91 6q8 -76 8 -125q0 -118 -45 -311q-3 -13 -10.5 -37.5t-10.5 -36.5q-12 -46 -12 -74q0 -70 80 -70q95 0 116 52q4 28 13 79t12 70q48 272 59 291q60 114 93 164q128 0 155 -10q27 -9 35 -9q68 0 68 105q0 5 -4 51q-24 35 -62 35 q-12 0 -110 -4l20 2l70 116q11 0 41 -6q24 -6 39 -6q26 0 46.5 22.5t20.5 49.5q0 102 -33 113l88 131q1 3 76 90q55 64 55 84t-6 41q-43 32 -47 32q-24 -1 -52 13t-34 14q-25 -8 -41 -31l-252 -379h-26q-12 -2 -29 -2h-111l-98 4l-47 283q-15 100 -125 100q-72 0 -72 -73 l13 -58q33 -158 43 -247q-13 8 -37 8q-66 0 -66 -113q0 -80 66 -80q8 0 35 3t34 3l17 -114h-115q-21 8 -35 8q-63 0 -63 -111zM545 879h137l-82 -129l-37 2z" />
<glyph unicode="&#xa6;" horiz-adv-x="270" d="M33 -78q0 -44 8.5 -58t44.5 -24q27 -8 37 -8q46 0 61 49q3 13 8.5 40t8.5 40q1 2 7.5 33t22.5 106t33 154q52 224 72 291q-21 44 -43 41l-41 -4q-12 12 -23 14q-27 -11 -53 -47l-92 -397q-5 -20 -15.5 -58t-15.5 -57q-20 -73 -20 -115zM262 954q-5 -14 4.5 -33.5 t22.5 -19.5l28 14q37 -16 50 -16q45 0 57 57l98 439q4 15 12.5 45t12.5 45q14 52 14 92q0 39 -45 51q-110 -15 -145 -102q5 -19 -109 -572z" />
<glyph unicode="&#xa7;" horiz-adv-x="542" d="M25 57q0 -106 221 -106q112 0 180 35q47 25 80 76t33 100q0 103 -119 143q55 9 80 37q60 60 112 221q52 152 52 244q0 75 -60 135q-36 36 -108 74q-60 31 -60 47q0 33 82 33q5 0 37 -4q121 -56 133 -56q36 0 60 37.5t24 79.5q0 59 -76 74q-31 8 -123 8q-152 0 -223 -39 q-100 -54 -100 -195q0 -47 41 -77q7 -7 82 -50q-109 -84 -154 -157q-35 -58 -72 -213q-14 -60 -14 -129q0 -83 57 -137q40 -35 109 -66q57 -26 57 -43q0 -37 -69 -37q-43 0 -101 27q-61 28 -86 28q-31 0 -53 -28t-22 -62zM324 496q4 15 8 29.5t5.5 23t2.5 10.5q8 37 45 100 q41 68 78 80l4 -4l-2 -4q0 -75 -19 -125.5t-75 -124.5q-23 -23 -33 -26q-14 0 -14 41z" />
<glyph unicode="&#xa8;" horiz-adv-x="466" d="M211 1026q0 -111 98 -111q73 0 111 74q29 63 29 137q0 48 -19 69.5t-70 35.5q-66 -9 -110 -74q-39 -56 -39 -131zM469 1022q0 -107 98 -107q73 0 111 74q29 63 29 137q0 48 -19 69.5t-70 35.5q-68 -9 -110 -76q-39 -56 -39 -133z" />
<glyph unicode="&#xa9;" horiz-adv-x="768" d="M82 197q0 -72 31 -136q39 -70 100 -90q58 -15 86 -18q118 -23 125 -23q27 0 53 13l101 49q124 61 241 364q60 157 60 310q0 123 -50 215q-56 108 -163 135q-76 20 -111 20q-228 0 -365 -321q-108 -255 -108 -518zM193 250q0 48 26 192q26 159 94 283q91 162 230 162 q110 0 172 -86q53 -77 53 -193q0 -139 -92 -321q-108 -205 -234 -205q-6 0 -88 18q-82 21 -112 45q-49 34 -49 105zM242 287q0 -187 149 -187q62 0 121 41q59 44 59 101q0 28 -22 37q-1 0 -70 -39q-47 -27 -73 -27q-50 0 -50 90q0 86 41 211q43 124 97 197q27 37 38 37l5 -7 q0 -41 -21 -123q-20 -76 -20 -116q0 -56 45 -56q65 0 92 183q12 76 12 86q0 96 -14 116q-17 23 -103 41q-66 15 -155 -149q-77 -140 -119 -324q-12 -56 -12 -112z" />
<glyph unicode="&#xaa;" horiz-adv-x="460" d="M266 985q0 -98 191 -98v8q-21 -27 -21 -49q0 -35 31 -35h59q35 0 56 84q3 17 8 49t8 47q33 137 37 162q33 141 33 180q0 70 -24 98t-95 35q-3 0 -24 4.5t-29 4.5q-56 0 -109 -99q-47 -86 -47 -151q0 -49 49 -64l37 13q30 10 51 100q18 84 49 84q17 0 17 -25 q0 -4 -27 -157q-43 6 -45 6q-76 0 -141 -62q-64 -58 -64 -135zM387 993q21 62 105 62l-11 -62q-20 -4 -45 -4l-21 4q-21 4 -24 4z" />
<glyph unicode="&#xab;" horiz-adv-x="522" d="M117 449q0 -40 53 -146q59 -113 94 -121l21 2q67 45 75 82q-6 37 -12 49q-5 9 -16.5 27t-16.5 27q-26 53 -36 71q9 8 33 28t35 29.5t29.5 28.5t27 34t15.5 35.5t7 41.5q0 72 -41 72q-15 0 -123 -97q-20 -19 -117 -112q-28 -25 -28 -51zM307 449q0 -43 55 -150 q56 -108 93 -117l20 2q68 45 78 82q-7 39 -14 51q-19 30 -31 52q-33 61 -39 71q9 8 33 27.5t35 29.5t28.5 29t26 33.5t15.5 35t7 42.5q0 72 -39 72q-16 0 -237 -209q-31 -28 -31 -51z" />
<glyph unicode="&#xac;" horiz-adv-x="991" d="M166 700q0 -61 67 -61q13 0 54 10t49 10h620q-53 -295 -53 -344q0 -26 2 -34l23 -27l6 -2q10 -3 18 -6q33 0 54 71q60 233 75 304q1 2 4 9.5t10 24t15 33.5q16 43 16 68q0 58 -38.5 98t-94.5 39q-158 -3 -327 -7l-54 -1h-168q-114 0 -161 2q-5 0 -26 3t-26 3 q-29 0 -41 -51l-12 -74q-12 -46 -12 -68z" />
<glyph unicode="&#xad;" horiz-adv-x="368" d="M92 348q0 -93 43 -90q79 8 94 10q47 8 109 8h27q12 0 20 -8q38 14 47 72q4 28 4 92q0 68 -37 68q8 0 -4 -2l-35 -4q-71 -9 -176 -9q-11 7 -26 7q-66 0 -66 -144z" />
<glyph unicode="&#xae;" horiz-adv-x="768" d="M82 197q0 -72 31 -136q39 -70 100 -90q58 -15 86 -18q118 -23 125 -23q27 0 53 13l101 49q124 61 241 364q60 157 60 310q0 123 -50 215q-56 108 -163 135q-76 20 -111 20q-228 0 -365 -321q-108 -255 -108 -518zM193 250q0 48 26 192q26 159 94 283q91 162 230 162 q110 0 172 -86q53 -77 53 -193q0 -139 -92 -321q-108 -205 -234 -205q-6 0 -88 18q-82 21 -112 45q-49 34 -49 105zM240 168q-5 -17 8.5 -30.5t44.5 -20.5q59 -3 74 65q6 29 17.5 86t14.5 76l27 6q92 -182 123 -182q25 0 92 76q-66 66 -84 168q162 107 162 239q0 97 -74 156 q-63 51 -168 51q-81 0 -96 -67l4 -13zM422 463q17 68 38 156.5t25 103.5q15 -1 43.5 -4t42.5 -4q52 -12 52 -58q0 -56 -70 -120q-72 -62 -131 -74z" />
<glyph unicode="&#xaf;" horiz-adv-x="368" d="M272 1057q0 -80 47 -80l195 24q12 -9 25 -12q47 9 47 70v37q0 49 -2 55q-9 27 -41 27q-15 0 -71 -5.5t-73 -5.5q-8 0 -39.5 2t-40.5 2q-47 -15 -47 -114z" />
<glyph unicode="&#xb0;" horiz-adv-x="460" d="M244 1102q0 -89 49.5 -143t134.5 -54q128 0 211 135q72 119 72 252q0 209 -187 209q-71 0 -155 -78q-125 -113 -125 -321zM385 1171q0 50 39 101q41 53 88 53q63 0 63 -88q0 -59 -26 -104q-35 -56 -88 -56q-76 0 -76 94z" />
<glyph unicode="&#xb1;" d="M66 14q0 -90 61 -90q17 0 29 6q93 17 387 17q109 0 184 -10q1 -1 14 -4.5t23 -6.5q21 -6 35 -6q71 0 71 139q0 93 -65 93q-18 0 -86 -7q-59 -6 -78 -6h-90q-57 0 -221 6q-160 6 -170 11q-4 4 -21 4q-73 0 -73 -146zM231 625q0 -99 43 -99q7 0 45 12.5t50 12.5q27 2 135 2 l-64 -287q0 -3 -6 -18t-6 -19q0 -46 13 -60.5t59 -14.5q55 0 75 45q12 24 21 94q22 166 41 254q119 0 178 -2q13 0 42.5 -6.5t35.5 -6.5q72 0 72 142q0 47 -33 61q-19 8 -74 8q-69 0 -176 -8q2 17 47 180q37 133 37 162q0 49 -33 49q-92 0 -127 -77q-14 -43 -33 -160 l-24 -150h-78q-15 0 -69.5 2t-71.5 2l-17 9q-62 0 -71 -68q-9 -62 -11 -59z" />
<glyph unicode="&#xb2;" horiz-adv-x="477" d="M180 670q0 -51 56 -72h6q60 0 155 18q25 5 76 15.5t76 15.5q10 1 24.5 17.5t14.5 27.5q0 58 -101 58q-11 0 -51 -4.5t-53 -4.5q-18 0 -39 7q25 34 62 81q168 207 194 244q125 177 125 295q0 133 -168 133q-70 0 -151 -63q-71 -53 -99 -144q-20 -82 -39 -178v-10 q-2 -6 -2 -12q0 -43 41 -43q64 0 88 116q27 141 76 181q53 41 98 41t45 -33q0 -98 -217 -367t-217 -319z" />
<glyph unicode="&#xb3;" horiz-adv-x="464" d="M178 686q0 -51 64 -78q50 -24 104 -24q112 0 183 66t71 175q0 50 -20 76q-8 8 -66 51q71 50 129 154q62 106 62 182q0 99 -19 135q-41 78 -141 78q-85 0 -158 -94q-66 -84 -78 -174l-14 -103q-2 -18 6.5 -40.5t20.5 -28.5q14 -2 59 8q27 15 39 80q1 7 3.5 28t4 30t5.5 28 t8.5 31.5t12 29t17.5 31.5q37 57 74 57t37 -59q0 -33 -7 -65q-41 -173 -94 -199q-14 -7 -50 -25.5t-56 -27.5q-78 -47 -78 -88q0 -38 57 -41q75 -3 101 -39q20 -26 20 -54q0 -41 -37 -67.5t-84 -26.5q-35 0 -69 37t-49 37q-23 0 -40.5 -26.5t-17.5 -53.5z" />
<glyph unicode="&#xb4;" horiz-adv-x="378" d="M197 989q55 -55 82 -55q13 0 30 10q63 44 176 150q148 139 148 194q0 53 -68 53q-48 0 -71 -26q-59 -65 -136 -139q-25 -23 -51 -46t-51.5 -45t-36.5 -32q-13 -18 -15 -25t-7 -39z" />
<glyph unicode="&#xb6;" horiz-adv-x="747" d="M252 897q0 -92 37 -199q36 -104 96 -170q-44 -177 -55 -225q-64 -271 -64 -313q0 -53 47 -53q118 0 158 196l66 316h38q-14 -97 -59 -265q-5 -17 -15.5 -51t-15.5 -51q-18 -62 -18 -105q0 -14 2 -16q15 -24 37 -24q21 0 43 16q105 -9 145 84q13 30 41 184q11 54 27 129.5 t20 98.5q27 141 66 364q80 389 129 600q8 33 8 41q0 57 -117 57q-52 0 -250 -38q-116 -21 -223 -164q-99 -132 -125 -256q-18 -83 -18 -156zM436 940q0 172 82 291l-72 -377q-10 52 -10 86zM573 633q68 409 121 655q37 0 45 -8q2 -2 2 -12q0 -29 -57 -326q-58 -311 -74 -326 z" />
<glyph unicode="&#xb7;" horiz-adv-x="368" d="M166 602q0 -127 151 -127q7 0 13 2h10q50 26 98 98q49 70 49 127q0 191 -102 191q-18 0 -100 -16q-50 -9 -88 -119q-31 -91 -31 -156z" />
<glyph unicode="&#xb8;" horiz-adv-x="333" d="M-113 -406q0 -92 72 -92q58 0 199 66q145 71 145 221q0 60 -43 93.5t-108 33.5q1 2 30 59q19 36 19 66q0 20 -12 36.5t-29 16.5q-53 0 -88 -65q-27 -51 -59 -109.5t-38 -69.5q-24 -46 -24 -59q0 -9 6 -19.5t12 -16.5t20 -19.5t17 -16.5q53 33 76 33q44 0 61 -26 q-61 -43 -127 -43q-62 0 -84 -11q-17 -11 -45 -78z" />
<glyph unicode="&#xb9;" horiz-adv-x="395" d="M279 657q0 -16 4 -26t13.5 -15.5t16 -7.5t21.5 -3.5t20 -2.5q15 0 26 4.5t17 10t10.5 17t5.5 18.5t2.5 23t2.5 21l96 432q64 283 64 302q0 55 -68 67q-15 -3 -33 -18q-17 -24 -26 -47q-65 -123 -107 -183q-18 -27 -18 -43q0 -45 36 -45q22 0 35 25l-8 -10 q-54 -258 -61 -291q-6 -22 -17 -62t-14 -51q-18 -76 -18 -115z" />
<glyph unicode="&#xba;" horiz-adv-x="460" d="M268 993q0 -135 90 -135q3 0 31 -4q21 -7 33 -10q87 0 139 94q41 77 66 180q28 118 28 191q0 86 -28 114q-20 20 -109 41q-15 9 -26 9q-83 0 -160 -201q-64 -168 -64 -279zM393 983q0 61 35 195q40 155 82 155q25 0 25 -41q0 -61 -37 -188q-44 -150 -84 -150 q-21 0 -21 29z" />
<glyph unicode="&#xbb;" horiz-adv-x="522" d="M98 244q12 -72 43 -72q148 119 240 211q27 24 27 45q0 40 -54 154q-58 116 -96 116q-16 0 -20 -2q-32 -23 -45 -34q-27 -24 -27 -50q0 -33 82 -170q-57 -47 -103 -88q-31 -27 -47 -110zM289 244q1 -3 3.5 -13.5t3.5 -14.5t4 -13t6 -13t7 -9t9.5 -7t11.5 -2q17 5 119 96 q7 7 118 115q27 24 27 45q0 45 -53 154q-58 116 -96 116q-17 0 -21 -2q-72 -54 -72 -84q0 -33 82 -170q-61 -54 -102 -88q-31 -27 -47 -110z" />
<glyph unicode="&#xbc;" horiz-adv-x="915" d="M70 -8q0 -64 43 -64q11 0 35 21.5t32 36.5q334 550 477 782q428 707 428 735q0 19 -49 53q-34 -9 -55 -47l-877 -1446q-34 -58 -34 -71zM283 653q0 -30 11 -38.5t44 -10.5q8 -2 20 -6q46 0 56 29q1 12 4 33t4 32q25 114 61 276t58.5 263.5t38.5 171.5q2 4 2 20 q0 61 -68 70q-15 -3 -33 -18q-21 -27 -28 -48l-45 -92q-1 -3 -6 -10.5t-17 -25t-23 -33.5q-32 -43 -32 -64q0 -45 35 -45q13 0 38 25l-8 -11q-30 -124 -65 -290q-5 -19 -14.5 -57.5t-14.5 -57.5q-18 -74 -18 -113zM373 147q10 -28 43 -48.5t65 -20.5q52 0 125 8 q-24 -111 -24 -119q0 -35 61 -35q64 0 64 33q19 65 26 127l139 6q39 3 39 62q0 43 -65 49h-92q96 428 143 559l-10 49q-27 21 -78 21q-48 0 -68 -39l-188 -336q-157 -277 -180 -316zM530 207l168 291l-61 -289z" />
<glyph unicode="&#xbd;" horiz-adv-x="931" d="M76 45q0 -72 43 -72l33 17l32 41l807 1329q101 146 101 188q0 19 -50 54q-37 -10 -57 -48l-876 -1445q-33 -50 -33 -64zM274 649q0 -15 4 -24.5t13.5 -14t17 -6.5t21.5 -3.5t20 -2.5q46 0 56 29q1 12 4 33t4 32l96 432q6 26 18.5 76t18.5 76q26 107 26 145q0 60 -67 72 q-36 -10 -66 -70q-20 -40 -41 -88q-3 -4 -20 -26.5t-25 -36.5q-32 -43 -32 -70q0 -45 32 -45q17 0 39 25l-8 -11q-39 -160 -66 -290q-5 -19 -14 -57.5t-14 -57.5q-17 -83 -17 -117zM463 12q0 -49 57 -69q183 31 311 49q10 1 23.5 17.5t13.5 27.5q0 55 -100 55q-11 0 -50 -3 t-52 -3q-27 0 -39 6q40 61 59 82q165 210 195 250q125 174 125 285q0 137 -166 137q-85 0 -162 -68q-74 -68 -92 -155q-37 -170 -37 -187q0 -41 41 -41q63 0 84 115q26 138 84 186q46 37 92 37q47 0 47 -33q0 -81 -113 -233q-35 -44 -104.5 -131t-104.5 -131 q-112 -139 -112 -193z" />
<glyph unicode="&#xbe;" horiz-adv-x="1011" d="M195 -10q0 -56 43 -56q31 0 65 58l807 1329q8 8 53 84q47 83 47 104q0 20 -49 54q-33 -12 -55 -47l-879 -1446q-32 -49 -32 -80zM197 688q0 -53 61 -80q52 -22 104 -22q113 0 183.5 66.5t70.5 176.5q0 51 -20 74q-7 7 -66 51q87 67 141 168.5t54 204.5q0 80 -42.5 128 t-119.5 48q-107 0 -184 -135q-66 -120 -66 -235q0 -54 25 -70q14 -2 59 8q19 14 41 100q23 108 39 144q30 71 86 71q37 0 37 -57q0 -40 -6 -67q-40 -167 -98 -201l-142 -76q-39 -20 -39 -63q0 -38 58 -41q72 -3 98 -39q21 -27 21 -54q0 -43 -35.5 -68.5t-85.5 -25.5 q-34 0 -68 37t-49 37q-23 0 -40 -26t-17 -54zM485 154q21 -70 109 -70q9 0 63 4q13 1 28 2t23.5 1.5t12.5 0.5q-29 -110 -29 -117q0 -36 60 -36q57 0 75 55l19 104l139 6q39 3 39 62q0 43 -68 49h-92q102 438 144 559l-11 49q-40 21 -75 21q-48 0 -68 -39l-190 -336 q-51 -90 -96 -169.5t-63.5 -112t-19.5 -33.5zM643 213l168 291l-66 -289z" />
<glyph unicode="&#xbf;" horiz-adv-x="1136" d="M16 59q0 -124 113 -194q100 -62 227 -62q314 0 576 226q128 115 217 262q111 182 111 317q0 53 -31 101q-36 51 -86 51q-57 0 -78 -76q-12 -82 -18 -121q-19 -120 -88 -237t-164 -191q-191 -147 -459 -147q-146 0 -146 63q0 88 179 217q11 11 233 150q502 317 502 536 q0 64 -38.5 104t-100.5 40q-28 0 -57 -19t-29 -43q0 -39 28 -67t31 -47q-16 -53 -367 -281q-377 -238 -440 -305q-115 -124 -115 -277zM893 1253q0 -133 123 -133q86 0 133 68q43 58 43 147q0 53 -27 99q-34 55 -82 55q-33 0 -86 -41q-54 -41 -73 -76q-31 -51 -31 -119z" />
<glyph unicode="&#xc0;" horiz-adv-x="888" d="M2 -16q0 -22 16 -35q20 -40 38 -54t59 -14q44 0 71 56q5 15 15.5 44.5t15.5 45.5q36 106 47 131q73 154 78 164l330 30q-6 -314 -6 -315q0 -103 67 -103q23 0 80 31q51 0 64 8q24 15 24 58q0 11 -4 65q-8 49 -8 68q-10 153 -10 289q0 108 2 194q2 88 2 197q0 3 1 11 t1.5 19t2 29.5t2.5 38.5t3 49l4 58q2 67 4.5 155.5t3.5 112.5q4 82 4 92q0 61 -43 61q-8 0 -43 -8t-47 -8q-28 0 -74 12q-28 -6 -92 -161q-79 -192 -170 -377q-181 -372 -182 -373q-23 -48 -71.5 -145.5t-71.5 -145.5q-113 -235 -113 -280zM424 504l264 532l-16 -512z M604 1915q0 -45 84 -186q83 -136 125 -136q25 0 105 56l8 47q0 16 -6 22q-35 53 -89 119q-59 100 -75 137q-15 27 -60 27q-33 0 -62.5 -27t-29.5 -59z" />
<glyph unicode="&#xc1;" horiz-adv-x="888" d="M2 -16q0 -22 16 -35q20 -40 38 -54t59 -14q44 0 71 56q5 15 15.5 44.5t15.5 45.5q36 106 47 131q73 154 78 164l330 30q-6 -314 -6 -315q0 -103 67 -103q23 0 80 31q51 0 64 8q24 15 24 58q0 11 -4 65q-8 49 -8 68q-10 153 -10 289q0 108 2 194q2 88 2 197q0 3 1 11 t1.5 19t2 29.5t2.5 38.5t3 49l4 58q2 67 4.5 155.5t3.5 112.5q4 82 4 92q0 61 -43 61q-8 0 -43 -8t-47 -8q-28 0 -74 12q-28 -6 -92 -161q-79 -192 -170 -377q-181 -372 -182 -373q-23 -48 -71.5 -145.5t-71.5 -145.5q-113 -235 -113 -280zM424 504l264 532l-16 -512z M725 1649q56 -56 80 -56q30 0 61 31q109 92 164 145q131 131 131 181q0 51 -67 51q-48 0 -72 -27q-19 -22 -137 -139q-34 -32 -135 -121q-22 -29 -25 -65z" />
<glyph unicode="&#xc2;" horiz-adv-x="888" d="M2 -16q0 -22 16 -35q20 -40 38 -54t59 -14q44 0 71 56q5 15 15.5 44.5t15.5 45.5q36 106 47 131q73 154 78 164l330 30q-6 -314 -6 -315q0 -103 67 -103q23 0 80 31q51 0 64 8q24 15 24 58q0 11 -4 65q-8 49 -8 68q-10 153 -10 289q0 108 2 194q2 88 2 197q0 3 1 11 t1.5 19t2 29.5t2.5 38.5t3 49l4 58q2 67 4.5 155.5t3.5 112.5q4 82 4 92q0 61 -43 61q-8 0 -43 -8t-47 -8q-28 0 -74 12q-28 -6 -92 -161q-79 -192 -170 -377q-181 -372 -182 -373q-23 -48 -71.5 -145.5t-71.5 -145.5q-113 -235 -113 -280zM424 504l264 532l-16 -512z M588 1679q6 -88 43 -88q18 0 192 113q13 -9 37 -28.5t37 -28.5q57 -45 74 -45q21 0 69 63q2 6 2 10q0 41 -63 133q-14 20 -41 61t-41 62q-9 15 -27 15q-32 0 -256 -224q-7 -10 -26 -43z" />
<glyph unicode="&#xc3;" horiz-adv-x="888" d="M2 -16q0 -22 16 -35q20 -40 38 -54t59 -14q44 0 71 56q5 15 15.5 44.5t15.5 45.5q36 106 47 131q73 154 78 164l330 30q-6 -314 -6 -315q0 -103 67 -103q23 0 80 31q51 0 64 8q24 15 24 58q0 11 -4 65q-8 49 -8 68q-10 153 -10 289q0 108 2 194q2 88 2 197q0 3 1 11 t1.5 19t2 29.5t2.5 38.5t3 49l4 58q2 67 4.5 155.5t3.5 112.5q4 82 4 92q0 61 -43 61q-8 0 -43 -8t-47 -8q-28 0 -74 12q-28 -6 -92 -161q-79 -192 -170 -377q-181 -372 -182 -373q-23 -48 -71.5 -145.5t-71.5 -145.5q-113 -235 -113 -280zM424 504l264 532l-16 -512z M614 1667q0 -70 50 -70q24 11 77 70q128 -76 164 -76q58 0 123 86q62 80 62 138q0 65 -54 65q-27 0 -69 -59q-142 59 -164 59q-49 0 -88 -39q-21 -21 -60 -86q-41 -68 -41 -88z" />
<glyph unicode="&#xc4;" horiz-adv-x="888" d="M2 -16q0 -22 16 -35q20 -40 38 -54t59 -14q44 0 71 56q5 15 15.5 44.5t15.5 45.5q36 106 47 131q73 154 78 164l330 30q-6 -314 -6 -315q0 -103 67 -103q23 0 80 31q51 0 64 8q24 15 24 58q0 11 -4 65q-8 49 -8 68q-10 153 -10 289q0 108 2 194q2 88 2 197q0 3 1 11 t1.5 19t2 29.5t2.5 38.5t3 49l4 58q2 67 4.5 155.5t3.5 112.5q4 82 4 92q0 61 -43 61q-8 0 -43 -8t-47 -8q-28 0 -74 12q-28 -6 -92 -161q-79 -192 -170 -377q-181 -372 -182 -373q-23 -48 -71.5 -145.5t-71.5 -145.5q-113 -235 -113 -280zM424 504l264 532l-16 -512z M600 1700q0 -67 53 -94q27 -15 43 -15q68 0 109 66q35 56 35 127q0 61 -16.5 84.5t-73.5 40.5q-68 -9 -111 -76q-39 -56 -39 -133zM858 1700q0 -67 53 -94q27 -15 43 -15q68 0 109 66q35 56 35 127q0 61 -16.5 84.5t-73.5 40.5q-67 -10 -108.5 -71.5t-41.5 -137.5z" />
<glyph unicode="&#xc5;" horiz-adv-x="888" d="M2 -16q0 -22 16 -35q20 -40 38 -54t59 -14q44 0 71 56q5 15 15.5 44.5t15.5 45.5q36 106 47 131q73 154 78 164l330 30q-6 -314 -6 -315q0 -103 67 -103q23 0 80 31q51 0 64 8q24 15 24 58q0 11 -4 65q-8 49 -8 68q-10 153 -10 289q0 108 2 194q2 88 2 197q0 3 1 11 t1.5 19t2 29.5t2.5 38.5t3 49l4 58q2 67 4.5 155.5t3.5 112.5q4 82 4 92q0 61 -43 61q-8 0 -43 -8t-47 -8q-28 0 -74 12q-28 -6 -92 -161q-79 -192 -170 -377q-181 -372 -182 -373q-23 -48 -71.5 -145.5t-71.5 -145.5q-113 -235 -113 -280zM424 504l264 532l-16 -512z M692 1731q0 -138 127 -138q89 0 152 93q53 83 53 176q0 65 -36 109t-97 44q-91 0 -148 -100q-51 -83 -51 -184zM817 1782q0 26 16.5 49.5t38.5 23.5q27 0 27 -38q0 -68 -47 -68q-35 0 -35 33z" />
<glyph unicode="&#xc6;" horiz-adv-x="1232" d="M4 -10q0 -71 57 -94q12 -15 54 -15q38 0 59 41q6 6 31 72l65 160q28 67 86 168l287 26q-58 -239 -72 -307q-8 -33 -8 -64q0 -104 109 -104q6 0 88 16q167 22 178 23l188 37q109 21 109 90q0 72 -59 72h-379q-1 0 -4 12q0 10 53 233q416 0 416 138v51q-9 26 -37 26l-330 9 l162 659q15 18 164 33q30 3 91.5 8t92.5 8q32 4 55 33.5t23 64.5q0 57 -43 60q-117 10 -293 22q-29 2 -221 2q-4 0 -28.5 -5t-33.5 -5q-57 0 -71 2q-20 1 -37 -19t-35 -63q-50 -104 -82 -159l-569 -1055q-66 -126 -66 -176zM449 506l364 635l-133 -617z" />
<glyph unicode="&#xc7;" horiz-adv-x="774" d="M121 283q0 -134 57 -230q64 -114 182 -143q-88 -175 -88 -178q0 -16 23 -39q5 -5 16.5 -15.5t16.5 -15.5q44 33 75 33q36 0 60 -27q-64 -43 -123 -43q-67 0 -84 -10q-23 -13 -47 -78q0 -92 70 -92q12 0 55 14q20 6 56 18t50 15q75 25 130 95.5t55 144.5q0 60 -43 93.5 t-111 33.5q1 2 11 18.5t18 30.5q102 24 190 88q111 77 111 164q0 68 -37 65q-24 -12 -39 -18l-129 -92q-62 -39 -150 -39q-129 0 -129 215q0 198 101 500q104 312 219 452q78 96 113 96q36 0 36 -53q0 -74 -38 -239q-18 -84 -54 -248q-4 -28 -4 -45q0 -84 84 -84q34 0 49 12 q53 41 105 301q43 225 43 342q0 96 -35.5 137.5t-132.5 61.5q-90 20 -105 20q-115 0 -290 -309q-111 -194 -195 -463q-92 -291 -92 -489z" />
<glyph unicode="&#xc8;" horiz-adv-x="782" d="M86 -33q0 -90 84 -90q72 0 287 37q229 40 268 70q27 21 27 55q0 72 -60 72q-377 0 -381 2q20 121 51 243q185 0 318 39q100 26 100 121q0 55 -37 55l-331 9l163 659q15 18 164 33q31 3 93 8t92 8q31 4 53 34t22 64q0 60 -43 60q-196 3 -280 8q-6 1 -44.5 4t-72.5 6 q-73 9 -117 9q-68 0 -71 -115q-2 -29 -2 -45q-45 -203 -96 -437t-79 -361.5t-42 -190.5q-7 -30 -21.5 -88.5t-21.5 -88.5q-23 -118 -23 -180zM528 1923q0 -74 62 -160l100 -141q23 -29 45 -29q25 0 105 56l12 47q-2 10 -7 20t-13.5 21.5t-13.5 18t-18 20.5t-16 18 q-78 124 -104 180q-15 27 -59 27q-31 0 -62 -25t-31 -53z" />
<glyph unicode="&#xc9;" horiz-adv-x="782" d="M86 -33q0 -90 84 -90q76 0 285 37q234 41 268 70q29 19 29 55q0 72 -60 72q-377 0 -381 2q20 121 51 243q180 0 316 39q102 27 102 121q0 55 -37 55l-331 9l163 659q15 18 164 33q31 3 93 8t92 8q30 4 52.5 35t22.5 63q0 60 -43 60q-196 3 -280 8q-6 1 -44.5 4t-72.5 6 q-73 9 -117 9q-68 0 -71 -115q-2 -29 -2 -45q-45 -203 -96 -437t-79 -361.5t-42 -190.5q-7 -30 -21.5 -88.5t-21.5 -88.5q-23 -118 -23 -180zM625 1649q65 -56 82 -56q25 0 61 31q295 261 295 326q0 51 -68 51q-41 0 -65 -21q-80 -78 -144 -145q-34 -32 -135 -121 q-5 -6 -8 -9.5t-6 -8.5t-4 -6.5t-2.5 -7.5t-2 -7.5t-1.5 -11t-2 -14.5z" />
<glyph unicode="&#xca;" horiz-adv-x="782" d="M86 -33q0 -90 84 -90q72 0 287 37q229 40 268 70q27 21 27 55q0 72 -60 72q-377 0 -381 2q20 121 51 243q185 0 318 39q100 26 100 121q0 55 -37 55l-331 9l163 659q15 18 164 33q31 3 93 8t92 8q31 4 53 34t22 64q0 60 -43 60q-196 3 -280 8q-6 1 -44.5 4t-72.5 6 q-73 9 -117 9q-68 0 -71 -115q-2 -29 -2 -45q-45 -203 -96 -437t-79 -361.5t-42 -190.5q-7 -30 -21.5 -88.5t-21.5 -88.5q-23 -118 -23 -180zM496 1683q3 -46 6 -55q9 -33 37 -33q10 0 190 113q12 -9 37 -28.5t37 -28.5q57 -45 76 -45q21 0 69 63q2 2 2 14q0 20 -12 41 l-133 211q-9 15 -29 15q-18 0 -51 -33q-7 -7 -20.5 -21.5t-20.5 -21.5q-70 -64 -164 -148q-6 -6 -24 -43z" />
<glyph unicode="&#xcb;" horiz-adv-x="782" d="M86 -33q0 -90 84 -90q72 0 287 37q229 40 268 70q27 21 27 55q0 72 -60 72q-377 0 -381 2q20 121 51 243q185 0 318 39q100 26 100 121q0 55 -37 55l-331 9l163 659q15 18 164 33q31 3 93 8t92 8q31 4 53 34t22 64q0 60 -43 60q-196 3 -280 8q-6 1 -44.5 4t-72.5 6 q-73 9 -117 9q-68 0 -71 -115q-2 -29 -2 -45q-45 -203 -96 -437t-79 -361.5t-42 -190.5q-7 -30 -21.5 -88.5t-21.5 -88.5q-23 -118 -23 -180zM494 1700q0 -70 55 -94q10 -3 20 -6.5t14 -5t5 -1.5q16 0 63 21q82 40 82 186q0 91 -90 109q-69 -12 -109 -71.5t-40 -137.5z M752 1700q0 -70 55 -94q10 -3 20 -6.5t14 -5t5 -1.5q16 0 63 21q82 40 82 186q0 91 -90 109q-67 -12 -108 -72.5t-41 -136.5z" />
<glyph unicode="&#xcc;" horiz-adv-x="378" d="M76 41q0 -86 98 -86q115 0 115 98q0 7 -4 27q196 828 247 1032l41 168q1 4 27 51q25 39 25 55q0 37 -7 58q-39 45 -122 45q-31 0 -68 -16q-40 -21 -43 -54q-3 -61 -31 -190l-49 -197l-225 -960q-4 -24 -4 -31zM330 1923q0 -75 61 -160l101 -141q23 -29 47 -29t104 56 l8 47q3 16 -43 80q-42 52 -51 61q-15 22 -47 80q-15 27 -31 59q-19 25 -57 25q-30 0 -61 -25t-31 -53z" />
<glyph unicode="&#xcd;" horiz-adv-x="378" d="M76 41q0 -86 98 -86q115 0 115 98q0 7 -4 27q196 828 247 1032l41 168q1 4 27 51q25 39 25 55q0 37 -7 58q-39 45 -122 45q-31 0 -68 -16q-40 -21 -43 -54q-3 -61 -31 -190l-49 -197l-225 -960q-4 -24 -4 -31zM444 1649q62 -56 82 -56q31 0 62 31q68 54 162 145 q131 128 131 181q0 51 -66 51q-45 0 -72 -27q-114 -119 -186 -184q-23 -20 -53 -45.5t-35 -30.5q-22 -29 -25 -65z" />
<glyph unicode="&#xce;" horiz-adv-x="378" d="M76 41q0 -86 98 -86q115 0 115 98q0 7 -4 27q196 828 247 1032l41 168q2 9 27 51t25 55q0 37 -7 58q-39 45 -122 45q-31 0 -68 -16q-40 -21 -43 -54q-3 -61 -31 -190l-49 -197l-225 -960q-4 -24 -4 -31zM346 1683q6 -88 45 -88q11 0 191 113q13 -9 37 -28.5t36 -28.5 q57 -45 76 -45q20 0 41 24q21 29 29 39q0 4 2 8v6q0 20 -12 41l-134 211q-6 15 -28 15q-16 0 -49 -33l-43 -43q-70 -64 -164 -148q-12 -17 -27 -43z" />
<glyph unicode="&#xcf;" horiz-adv-x="378" d="M76 41q0 -86 98 -86q115 0 115 98q0 7 -4 27q196 828 247 1032l41 168q2 9 27 51t25 55q0 37 -7 58q-39 45 -122 45q-31 0 -68 -16q-40 -21 -43 -54q-3 -61 -31 -190l-49 -197l-225 -960q-4 -24 -4 -31zM313 1700q0 -43 9.5 -59.5t42.5 -34.5q34 -15 45 -15q18 0 59 21 q55 28 70 100q14 63 14 72q0 62 -17 87t-73 38q-71 -9 -113 -76q-37 -58 -37 -133zM571 1700q0 -66 54 -94q27 -15 43 -15q18 0 59 21q55 28 70 100q14 63 14 72q0 62 -17 87t-73 38q-71 -9 -113 -76q-37 -58 -37 -133z" />
<glyph unicode="&#xd0;" horiz-adv-x="1171" d="M180 709q18 -65 27 -74q23 -30 69 -27l173 4l-68 -252l-55 -190q-39 -130 -39 -184q0 -57 37 -72l92 -18q71 -15 84 -15q20 0 69 19q131 39 230 116q63 47 192 179q216 223 293 555q16 75 16 165q0 192 -77 363q-103 207 -271 207q-287 0 -317 -21q-47 -35 -47 -86 q0 -18 16 -61q-30 -144 -119 -549h-157q-27 0 -52 2q-26 0 -36 -2q-23 -3 -52 -12zM528 127q23 96 49.5 208.5t42 178t23.5 102.5q62 0 111 2h108q70 0 82 3q46 9 55 53q-4 41 -37 71.5t-71 30.5q-11 0 -105 -4q-47 -2 -104 -2q20 76 58.5 223t52.5 199q13 49 31 59.5 t79 10.5q138 0 197 -74q53 -65 53 -207q0 -164 -88 -350q-85 -186 -205 -303q-189 -186 -332 -201z" />
<glyph unicode="&#xd1;" horiz-adv-x="901" d="M94 -33q0 -73 119 -73q43 0 63 4q30 9 39 47l-20 37l14 -7v2q0 98 27 236l49 233q33 170 53 263q-2 -49 -2 -224q0 -103 29 -245q38 -168 96 -220q35 -30 164 -30q87 0 139 243l160 779l49 209q33 146 33 225q0 29 -14 37q-1 0 -5 1t-13.5 3.5t-20.5 5.5q-42 10 -43 10 q-68 0 -82 -26q-10 -10 -13 -35q-39 -263 -71 -410q-3 -16 -10 -71q-100 -510 -154 -760q-17 35 -35 127q-32 317 -35 440q-14 164 -14 246q0 122 12 180q0 2 27 84q20 53 20 78q0 74 -100 74q-122 0 -149 -37q-66 -301 -132 -607l-176 -782q-4 -24 -4 -37zM573 1667 q15 -70 50 -70q64 49 79 70q134 -76 162 -76q52 0 99 56q13 16 65 98q21 34 21 49q0 86 -54 86q-27 0 -63 -57l-6 -2q-26 3 -78 30q-56 29 -86 29q-66 0 -119 -80q-23 -33 -70 -133z" />
<glyph unicode="&#xd2;" horiz-adv-x="901" d="M117 199q0 -185 92 -250q60 -42 90 -49q53 -11 78 -25q3 -1 9 -2.5t18.5 -5t23.5 -6.5q27 -8 49 -8q151 0 314 245q164 250 231 576q29 148 29 278q0 71 -13 160q-24 164 -61 219q-53 71 -195 111q-121 31 -145 31q-50 0 -129 -70q-153 -135 -279 -567 q-112 -383 -112 -637zM319 180q0 230 56 469q59 257 162 441q108 194 194 194q30 0 82 -49q30 -27 51 -98q19 -62 19 -111q0 -207 -58 -436q-66 -260 -168 -406q-117 -166 -227 -166q-111 0 -111 162zM598 1925q0 -77 61 -162l101 -141q23 -29 45 -29q24 0 104 56l9 47 q3 13 -9 33q-29 39 -55 65q-78 124 -104 180q-15 27 -62 27q-27 0 -58.5 -25.5t-31.5 -50.5z" />
<glyph unicode="&#xd3;" horiz-adv-x="901" d="M117 199q0 -185 92 -250q60 -42 90 -49q53 -11 78 -25q3 -1 9 -2.5t18.5 -5t23.5 -6.5q27 -8 49 -8q151 0 314 245q164 250 231 576q29 148 29 278q0 71 -13 160q-24 164 -61 219q-53 71 -195 111q-121 31 -145 31q-50 0 -129 -70q-153 -135 -279 -567 q-112 -383 -112 -637zM319 180q0 230 56 469q59 257 162 441q108 194 194 194q30 0 82 -49q30 -27 51 -98q19 -62 19 -111q0 -207 -58 -436q-66 -260 -168 -406q-117 -166 -227 -166q-111 0 -111 162zM719 1649q65 -56 82 -56q22 0 61 31q293 240 293 326q0 51 -65 51 q-48 0 -72 -27q-19 -22 -137 -139q-33 -29 -80 -70t-58 -51q-13 -18 -16 -26.5t-8 -38.5z" />
<glyph unicode="&#xd4;" horiz-adv-x="901" d="M117 199q0 -185 92 -250q60 -42 90 -49q53 -11 78 -25q3 -1 9 -2.5t18.5 -5t23.5 -6.5q27 -8 49 -8q151 0 314 245q164 250 231 576q29 148 29 278q0 71 -13 160q-24 164 -61 219q-53 71 -195 111q-121 31 -145 31q-50 0 -129 -70q-153 -135 -279 -567 q-112 -383 -112 -637zM319 180q0 230 56 469q59 257 162 441q108 194 194 194q30 0 82 -49q30 -27 51 -98q19 -62 19 -111q0 -207 -58 -436q-66 -260 -168 -406q-117 -166 -227 -166q-111 0 -111 162zM582 1683q0 -88 43 -88q10 0 190 113q12 -9 37 -28.5t37 -28.5 q57 -45 76 -45q21 0 69 63q2 2 2 14q0 20 -12 41l-133 211q-9 15 -29 15q-18 0 -51 -33q-7 -7 -20.5 -21.5t-20.5 -21.5q-70 -64 -164 -148q-6 -6 -24 -43z" />
<glyph unicode="&#xd5;" horiz-adv-x="901" d="M117 199q0 -185 92 -250q60 -42 90 -49q53 -11 78 -25q3 -1 9 -2.5t18.5 -5t23.5 -6.5q27 -8 49 -8q151 0 314 245q164 250 231 576q29 148 29 278q0 71 -13 160q-24 164 -61 219q-53 71 -195 111q-121 31 -145 31q-50 0 -129 -70q-153 -135 -279 -567 q-112 -383 -112 -637zM319 180q0 230 56 469q59 257 162 441q108 194 194 194q30 0 82 -49q30 -27 51 -98q19 -62 19 -111q0 -207 -58 -436q-66 -260 -168 -406q-117 -166 -227 -166q-111 0 -111 162zM582 1667q15 -70 49 -70q37 19 78 70q134 -76 163 -76q58 0 123 86 q62 80 62 138q0 65 -53 65q-28 0 -70 -59l-80 37q-58 22 -84 22q-59 0 -119 -78q-50 -62 -69 -135z" />
<glyph unicode="&#xd6;" horiz-adv-x="868" d="M117 199q0 -185 92 -250q60 -42 90 -49q53 -11 78 -25q3 -1 9 -2.5t18.5 -5t23.5 -6.5q27 -8 49 -8q151 0 314 245q164 250 231 576q29 148 29 278q0 71 -13 160q-24 164 -61 219q-53 71 -195 111q-121 31 -145 31q-50 0 -129 -70q-153 -135 -279 -567 q-112 -383 -112 -637zM319 180q0 230 56 469q59 257 162 441q108 194 194 194q30 0 82 -49q30 -27 51 -98q19 -62 19 -111q0 -207 -58 -436q-66 -260 -168 -406q-117 -166 -227 -166q-111 0 -111 162zM535 1700q0 -67 53 -94q27 -15 43 -15q19 0 59 21q55 28 70 100 q14 63 14 72q0 62 -17 87t-73 38q-71 -9 -113 -76q-36 -56 -36 -133zM793 1700q0 -67 53 -94q27 -15 43 -15q15 0 59 21q84 41 84 172q0 62 -17 87t-73 38q-71 -9 -113 -76q-36 -56 -36 -133z" />
<glyph unicode="&#xd7;" d="M135 442q0 -3 3 -13.5t3 -14.5l6 -80q6 -32 43 -55q15 -9 27 -9q35 0 105 6q82 7 106 7q141 0 391 4q131 3 131 80q0 16 -26 67q-27 53 -27 55q-16 19 -59 19q-12 0 -47.5 -3t-42.5 -3q-213 -8 -459 -8q-9 6 -66 6q-5 0 -55 -11q-33 -20 -33 -47z" />
<glyph unicode="&#xd8;" horiz-adv-x="901" d="M4 -47q0 -45 41 -80l45 -14q47 21 103 104q37 -44 94 -63q92 -24 112 -29q67 -18 78 -18q38 0 80 26l117 72q79 49 196 295q181 380 181 715q0 99 -19 204q5 7 28.5 44.5t37.5 56.5q63 97 63 114q0 32 -6 42.5t-35 27.5q-27 18 -45 18q-32 0 -67 -47q-8 -15 -23.5 -40 t-21.5 -35q-38 51 -125 88q-85 0 -115 10q-13 4 -39.5 14.5t-40.5 14.5q-103 0 -242 -213q-157 -245 -262 -836q-4 -25 -8.5 -50t-6 -35t-1.5 -11v-181q-119 -155 -119 -194zM330 147q203 274 334 463q137 197 213 320q0 -164 -62 -383q-63 -226 -158 -363 q-117 -166 -225 -166q-90 0 -102 129zM336 430q0 172 123 488q141 362 276 362q54 0 113 -109q-299 -442 -512 -741z" />
<glyph unicode="&#xd9;" horiz-adv-x="882" d="M166 252q0 -289 266 -289q94 0 133 8l-12 -71q0 -36 17 -43t87 -7h25q30 0 63 23t33 41q2 10 2 76q0 70 70 366q121 515 190 758q7 20 20.5 60t20.5 59q29 92 29 127q0 17 -4 33q-17 39 -135 39q-12 0 -27 -5l-16 5q-46 -9 -49 -50q-12 -79 -21 -106l-221 -993 q-36 -155 -45 -162q-13 -10 -100 -10q-123 0 -123 204q0 253 123 637q9 27 28.5 83.5t28.5 84.5q49 148 49 193q0 68 -76 80q-72 10 -76 10q-70 0 -73 -103l4 -12q-170 -755 -189 -842q-22 -110 -22 -194zM594 1929q0 -32 10 -65q13 -43 70 -123q20 -30 84 -115 q19 -29 47 -29q27 0 104 56l6 47q3 15 -45 78q-65 85 -96 143q-15 27 -31 59q-19 25 -57 25q-32 0 -62 -24t-30 -52z" />
<glyph unicode="&#xda;" horiz-adv-x="882" d="M166 252q0 -289 266 -289q94 0 133 8l-12 -71q0 -36 17 -43t87 -7h25q30 0 63 23t33 41q2 10 2 76q0 70 70 366q121 515 190 758q7 20 20.5 60t20.5 59q29 92 29 127q0 17 -4 33q-17 39 -135 39q-12 0 -27 -5l-16 5q-46 -9 -49 -50q-12 -79 -21 -106l-221 -993 q-36 -155 -45 -162q-13 -10 -100 -10q-123 0 -123 204q0 253 123 637q9 27 28.5 83.5t28.5 84.5q49 148 49 193q0 68 -76 80q-72 10 -76 10q-70 0 -73 -103l4 -12q-170 -755 -189 -842q-22 -110 -22 -194zM711 1649q65 -56 82 -56q25 0 61 31q295 261 295 326q0 51 -68 51 q-41 0 -65 -21q-80 -78 -144 -145q-34 -32 -135 -121q-5 -6 -8 -9.5t-6 -8.5t-4 -6.5t-2.5 -7.5t-2 -7.5t-1.5 -11t-2 -14.5z" />
<glyph unicode="&#xdb;" horiz-adv-x="882" d="M166 252q0 -289 266 -289q94 0 133 8l-12 -71q0 -36 17 -43t87 -7h25q30 0 63 23t33 41q2 10 2 76q0 70 70 366q121 515 190 758q7 20 20.5 60t20.5 59q29 92 29 127q0 17 -4 33q-17 39 -135 39q-12 0 -27 -5l-16 5q-46 -9 -49 -50q-12 -79 -21 -106l-221 -993 q-36 -155 -45 -162q-13 -10 -100 -10q-123 0 -123 204q0 253 123 637q9 27 28.5 83.5t28.5 84.5q49 148 49 193q0 68 -76 80q-72 10 -76 10q-70 0 -73 -103l4 -12q-170 -755 -189 -842q-22 -110 -22 -194zM571 1683q6 -88 43 -88q25 0 193 113q12 -9 37 -28.5t37 -28.5 q57 -45 73 -45q25 0 70 63q2 4 2 17q0 21 -10 38l-133 211q-9 15 -29 15q-16 0 -141 -119q-101 -93 -115 -105q-12 -17 -27 -43z" />
<glyph unicode="&#xdc;" horiz-adv-x="882" d="M166 252q0 -289 266 -289q94 0 133 8l-12 -71q0 -36 17 -43t87 -7h25q30 0 63 23t33 41q2 10 2 76q0 70 70 366q121 515 190 758q7 20 20.5 60t20.5 59q29 92 29 127q0 17 -4 33q-17 39 -135 39q-12 0 -27 -5l-16 5q-46 -9 -49 -50q-12 -79 -21 -106l-221 -993 q-36 -155 -45 -162q-13 -10 -100 -10q-123 0 -123 204q0 253 123 637q9 27 28.5 83.5t28.5 84.5q49 148 49 193q0 68 -76 80q-72 10 -76 10q-70 0 -73 -103l4 -12q-170 -755 -189 -842q-22 -110 -22 -194zM565 1700q0 -70 53 -94q30 -15 44 -15q16 0 59 21q84 41 84 172 q0 62 -17 87t-73 38q-69 -9 -111 -76q-39 -56 -39 -133zM823 1700q0 -66 54 -94q27 -15 43 -15q18 0 59 21q55 28 70 100q14 63 14 72q0 61 -17.5 86.5t-72.5 38.5q-71 -9 -113 -76q-37 -58 -37 -133z" />
<glyph unicode="&#xdd;" horiz-adv-x="919" d="M274 1366q0 -16 13 -70q42 -176 84 -419q49 -295 49 -431q0 -82 -51 -296q-31 -136 -31 -148q0 -70 78 -70q97 0 119 54q6 49 22 147q43 239 57 289q21 64 238 401q69 106 192 297q23 36 109 142q61 73 61 90q0 23 -6 41l-24 16t-17 11.5t-6 4.5q-24 -1 -52 13t-34 14 q-32 -14 -57 -55q-149 -221 -316 -484q-101 -157 -133 -206q-53 319 -94 585q-15 102 -43 111q-30 24 -86 24q-27 0 -49.5 -18.5t-22.5 -42.5zM664 1649q65 -56 81 -56q20 0 62 31q295 237 295 326q0 51 -68 51q-47 0 -71 -27q-73 -76 -138 -139q-24 -23 -49.5 -45l-51 -44 t-36.5 -32q-21 -27 -24 -65z" />
<glyph unicode="&#xde;" horiz-adv-x="587" d="M41 -219q0 -76 33 -76q4 0 12 3l8 3h25l33 -18q46 9 61 67q4 13 14 101l-10 16l27 123q68 -27 84 -27q152 0 258 220q88 180 88 352q0 216 -53 237q-108 49 -132 49q-18 0 -51 -10q49 131 49 140q0 48 -8 61q-13 22 -53 22q-16 0 -84 -12q-50 -9 -70 -57q-1 -3 -3 -13.5 t-7 -35t-10 -47.5l-119 -582q-61 -291 -78 -416q-14 -85 -14 -100zM274 141q0 8 54 252q9 37 19 79t14.5 62.5t7.5 28.5q40 131 90 131q51 0 51 -78q0 -110 -55 -284q-65 -215 -150 -215q-9 0 -26 10q-1 2 -2 5t-2 5t-1 4z" />
<glyph unicode="&#xdf;" horiz-adv-x="907" d="M147 4q0 -68 41 -86l111 -31l170 781q106 -66 178 -160q80 -109 80 -219q0 -93 -84 -146q-70 -43 -174 -43l2 13q-6 45 -33 45q-43 0 -61 -43q-11 -33 -21 -80q-22 -99 -22 -119q0 -35 33 -35q209 0 366 142q160 142 160 346q0 124 -56.5 237t-154.5 182q302 107 358 386 l2 12l1.5 9t0.5 5v25q0 124 -98 215q-98 94 -221 94q-138 0 -215 -92q-58 -67 -94 -213q-7 -40 -20.5 -120t-20.5 -120q-27 -137 -101 -487l-53 -262q-31 -157 -45 -177q-29 -50 -29 -59zM528 967l50 202q41 164 129 164q58 0 104 -55q45 -54 45 -115q0 -67 -90 -145 q-60 -51 -238 -51z" />
<glyph unicode="&#xe0;" horiz-adv-x="606" d="M53 147q0 -101 119 -131q55 -14 201 -14q-37 -78 -37 -88q0 -37 37 -37q8 0 29.5 2t25.5 2h18q3 -1 23 -6q49 0 70 96q111 517 112 521q39 133 39 233q0 97 -24 127q-8 10 -105 72q-83 6 -84 6l-61 10q-87 0 -166 -149q-72 -138 -72 -232q0 -96 70 -96q71 0 106 84 l43 160q24 81 82 81q31 0 31 -69q0 -51 -43 -279q-46 17 -96 17q-113 0 -215 -99q-103 -100 -103 -211zM223 162q0 31 51 76q53 47 136 47h30l-30 -140q-62 -10 -70 -10h-31q-86 0 -86 27zM291 1249q0 -28 10 -55q20 -52 88 -152q77 -114 111 -114q16 0 104 55l8 47 q-6 28 -41 76q-9 11 -26.5 32t-26.5 33q-61 103 -76 138q-14 26 -59 26q-31 0 -61.5 -28t-30.5 -58z" />
<glyph unicode="&#xe1;" horiz-adv-x="606" d="M53 147q0 -101 119 -131q55 -14 201 -14q-37 -78 -37 -88q0 -37 37 -37q8 0 29.5 2t25.5 2h18q3 -1 23 -6q49 0 70 96q111 517 112 521q39 133 39 233q0 97 -24 127q-8 10 -105 72q-83 6 -84 6l-61 10q-87 0 -166 -149q-72 -138 -72 -232q0 -96 70 -96q71 0 106 84 l43 160q24 81 82 81q31 0 31 -69q0 -51 -43 -279q-46 17 -96 17q-113 0 -215 -99q-103 -100 -103 -211zM223 162q0 31 51 76q53 47 136 47h30l-30 -140q-62 -10 -70 -10h-31q-86 0 -86 27zM410 989q55 -55 82 -55q30 0 186 141q166 150 166 215q0 51 -66 51q-48 0 -71 -26 q-62 -65 -136 -139q-71 -64 -137 -117q-15 -15 -18 -33q-3 -6 -6 -37z" />
<glyph unicode="&#xe2;" horiz-adv-x="606" d="M53 147q0 -101 119 -131q55 -14 201 -14q-37 -78 -37 -88q0 -37 37 -37q8 0 29.5 2t25.5 2h18q3 -1 23 -6q49 0 70 96q111 517 112 521q39 133 39 233q0 97 -24 127q-8 10 -105 72q-83 6 -84 6l-61 10q-87 0 -166 -149q-72 -138 -72 -232q0 -96 70 -96q71 0 106 84 l43 160q24 81 82 81q31 0 31 -69q0 -51 -43 -279q-46 17 -96 17q-113 0 -215 -99q-103 -100 -103 -211zM223 162q0 31 51 76q53 47 136 47h30l-30 -140q-62 -10 -70 -10h-31q-86 0 -86 27zM276 1014q1 -9 4.5 -26.5t4.5 -26.5q9 -35 34 -35q17 0 97 51l98 61q50 -39 72 -55 q59 -47 73 -47q21 0 72 63q0 35 -12 56l-133 211q-8 14 -27 14q-18 0 -51 -33q-7 -7 -20.5 -21.5t-20.5 -21.5q-29 -27 -164 -147q-12 -17 -27 -43z" />
<glyph unicode="&#xe3;" horiz-adv-x="606" d="M53 147q0 -101 119 -131q55 -14 201 -14q-37 -78 -37 -88q0 -37 37 -37q8 0 29.5 2t25.5 2h18q3 -1 23 -6q49 0 70 96q32 151 65 307l33 156q30 118 35 141q18 76 18 150q0 97 -24 127q-8 10 -105 72q-83 6 -84 6l-61 10q-87 0 -166 -149q-72 -138 -72 -232q0 -96 70 -96 q71 0 106 84l43 160q24 81 82 81q33 0 33 -69q0 -50 -45 -279q-46 17 -96 17q-113 0 -215 -99q-103 -100 -103 -211zM223 162q0 31 51 76q53 47 136 47h30l-30 -140q-62 -10 -70 -10h-31q-86 0 -86 27zM266 999q0 -69 45 -69q64 48 82 69q132 -75 164 -75q52 0 117 80 t65 124q0 84 -53 84q-21 0 -68 -59q-13 2 -81 35q-53 24 -84 24q-83 0 -154 -139q-33 -62 -33 -74z" />
<glyph unicode="&#xe4;" horiz-adv-x="606" d="M53 147q0 -101 119 -131q55 -14 201 -14q-37 -78 -37 -88q0 -37 37 -37q8 0 29.5 2t25.5 2h18q3 -1 23 -6q49 0 70 96q111 517 112 521q39 133 39 233q0 97 -24 127q-8 10 -105 72q-83 6 -84 6l-61 10q-87 0 -166 -149q-72 -138 -72 -232q0 -96 70 -96q71 0 106 84 l43 160q24 81 82 81q31 0 31 -69q0 -51 -43 -279q-46 17 -96 17q-113 0 -215 -99q-103 -100 -103 -211zM223 162q0 31 51 76q53 47 136 47h30l-30 -140q-62 -10 -70 -10h-31q-86 0 -86 27zM272 1032q0 -72 54 -94q32 -14 45 -14q2 0 4 2h4q57 14 81 37.5t36 80.5 q16 82 16 93q0 86 -90 104q-67 -12 -108.5 -72.5t-41.5 -136.5zM530 1032q0 -72 54 -94q32 -14 45 -14q2 0 4 2h4q57 14 81 37.5t36 80.5q16 82 16 93q0 86 -90 104q-70 -12 -110 -71.5t-40 -137.5z" />
<glyph unicode="&#xe5;" horiz-adv-x="606" d="M53 147q0 -101 119 -131q55 -14 201 -14q-37 -78 -37 -88q0 -37 37 -37q8 0 29.5 2t25.5 2h18q3 -1 23 -6q49 0 70 96q32 151 65 307l33 156q30 118 35 141q18 76 18 150q0 97 -24 127q-8 10 -105 72q-4 1 -14 2t-26.5 3t-33.5 5q-46 6 -71 6q-87 0 -166 -149 q-72 -138 -72 -232q0 -96 70 -96q71 0 106 84l43 160q24 81 82 81q33 0 33 -69q0 -50 -45 -279q-46 17 -96 17q-113 0 -215 -99q-103 -100 -103 -211zM223 162q0 31 51 76q53 47 136 47h30l-30 -140q-62 -10 -70 -10h-31q-86 0 -86 27zM371 1065q0 -137 127 -137 q95 0 153 94q51 77 51 180q0 62 -37 105t-96 43q-88 0 -147 -103q-51 -83 -51 -182zM498 1120v8q24 64 53 64q27 0 27 -37q0 -72 -50 -72q-5 0 -26 15q-4 20 -4 22z" />
<glyph unicode="&#xe6;" d="M51 141q0 -24 2 -32q63 -86 76 -95q21 -18 104 -18q20 0 138 4q-3 -3 -23 -39q-16 -29 -16 -37q0 -45 106 -45q52 0 78 33q27 -12 135 -12q60 0 66 2q48 9 131 65q96 62 96 101q0 65 -67 65q-21 -6 -39 -12q-143 -98 -185 -98q-47 0 -63 28q-12 21 -12 72q0 33 6 67 q39 -1 116 -2t115 -2q92 12 127 164q47 227 47 244v94q0 10 -10 62q-9 48 -18 57q-15 21 -74 33q-21 3 -82 12q-9 1 -23 3l-26 5q-21 0 -43 -16l-23 -6q-23 4 -78 53q-54 45 -149 45q-148 0 -225 -182q-58 -137 -66 -213q-1 -22 24.5 -45t53.5 -31l53 14q38 8 76 164 q35 145 100 145q31 0 31 -69q0 -49 -43 -277q-37 13 -84 13q-94 0 -150 -39q-182 -120 -182 -275zM223 162q17 54 70.5 88.5t112.5 34.5h34l-30 -142q-70 -4 -80 -4h-51q5 0 -2 1q-3 1 -19 3l-31 4q0 11 -4 15zM612 326q39 132 54 174q17 46 65 116q59 86 86 86q23 0 23 -38 q0 -61 -21 -166q-16 -94 -41 -160q-111 -12 -116 -12h-50z" />
<glyph unicode="&#xe7;" horiz-adv-x="536" d="M47 -410q9 -94 70 -94q65 0 200 66q144 70 144 221q0 59 -44 92t-110 33q17 24 37 65q66 12 148 72q90 66 90 123q0 23 -19 41t-43 18q-27 0 -98 -65q-70 -64 -123 -64q-59 0 -59 107q0 93 55 264q59 178 113 246q35 47 51 47t16 -31q0 -33 -18 -110q-19 -78 -19 -95 q0 -71 8 -84q16 -28 76 -28q55 0 70 18q16 19 37 133q18 108 18 152q0 207 -225 207q-81 0 -119 -35q-75 -72 -156 -322q-79 -241 -79 -360q0 -195 137 -232q-3 -6 -21 -39t-26 -51q-45 -83 -45 -104q0 -16 20 -39q5 -5 16.5 -15.5t16.5 -15.5q31 22 47 31h16q6 2 15 2 q22 0 57 -27q-59 -41 -125 -41q-65 0 -82 -10q-11 -8 -47 -76z" />
<glyph unicode="&#xe8;" horiz-adv-x="555" d="M53 88q0 -123 80 -164q51 -26 199 -26q61 0 147 59t107 117q-6 57 -64 57q-31 0 -110 -55q-80 -53 -119 -53q-76 0 -76 100q0 33 6 67q97 5 264 5q68 0 95 147q47 249 47 315q0 122 -31 150q-28 28 -149 43q-2 0 -18.5 4t-24.5 4q-83 0 -136 -92q-103 -182 -131 -260 q-86 -244 -86 -418zM254 326q21 89 80 213q73 163 127 163q16 0 16 -30q0 -191 -55 -334q-114 -9 -168 -12zM295 1253q0 -71 63 -157l101 -142q22 -28 45 -28q16 0 104 55l8 47q3 17 -6 29q-36 52 -88 112q-51 86 -73 138q-14 26 -64 26q-36 0 -63 -23t-27 -57z" />
<glyph unicode="&#xe9;" horiz-adv-x="555" d="M53 88q0 -123 80 -164q51 -26 199 -26q61 0 147 59t107 117q-6 57 -64 57q-31 0 -110 -55q-80 -53 -119 -53q-76 0 -76 100q0 33 6 67q97 5 264 5q68 0 95 147q47 249 47 315q0 122 -31 150q-28 28 -149 43q-2 0 -18.5 4t-24.5 4q-83 0 -136 -92q-103 -182 -131 -260 q-86 -244 -86 -418zM254 326q21 89 80 213q73 163 127 163q16 0 16 -30q0 -191 -55 -334q-114 -9 -168 -12zM377 989q55 -55 82 -55q36 0 190 145q162 149 162 211q0 51 -66 51q-48 0 -71 -26q-39 -43 -135 -139q-33 -30 -81.5 -72t-58.5 -51q-3 -4 -5 -6.5t-4 -5.5t-3 -5.5 t-2 -4t-1.5 -4.5t-1 -5l-1.5 -6t-1.5 -6.5t-1 -9.5t-1.5 -11z" />
<glyph unicode="&#xea;" horiz-adv-x="555" d="M53 88q0 -123 80 -164q51 -26 199 -26q61 0 147 59t107 117q-6 57 -64 57q-31 0 -110 -55q-80 -53 -119 -53q-76 0 -76 100q0 33 6 67q97 5 264 5q68 0 95 147q47 249 47 315q0 122 -31 150q-28 28 -149 43q-2 0 -18.5 4t-24.5 4q-83 0 -136 -92q-103 -182 -131 -260 q-86 -244 -86 -418zM254 326q21 89 80 213q73 163 127 163q16 0 16 -30q0 -191 -55 -334q-114 -9 -168 -12zM274 1018q3 -49 7 -53q9 -35 34 -35q18 0 95 51l98 61q141 -102 149 -102q21 0 70 64q0 4 2 8v6q0 20 -12 41l-133 211q-8 14 -29 14q-18 0 -51 -33 q-7 -7 -20.5 -21.5t-20.5 -21.5q-29 -27 -164 -147q-18 -28 -25 -43z" />
<glyph unicode="&#xeb;" horiz-adv-x="555" d="M53 88q0 -123 80 -164q51 -26 199 -26q61 0 147 59t107 117q-6 57 -64 57q-31 0 -110 -55q-80 -53 -119 -53q-76 0 -76 100q0 33 6 67q97 5 264 5q68 0 95 147q47 249 47 315q0 122 -31 150q-28 28 -149 43q-2 0 -18.5 4t-24.5 4q-83 0 -136 -92q-103 -182 -131 -260 q-86 -244 -86 -418zM254 326q21 89 80 213q73 163 127 163q16 0 16 -30q0 -191 -55 -334q-114 -9 -168 -12zM272 1032q0 -72 54 -94q32 -14 45 -14q2 0 4 2h4q57 14 81 37.5t36 80.5q16 82 16 93q0 86 -90 104q-67 -12 -108.5 -72.5t-41.5 -136.5zM530 1032q0 -72 54 -94 q32 -14 45 -14q2 0 4 2h4q57 14 81 37.5t36 80.5q16 82 16 93q0 86 -90 104q-70 -12 -110 -71.5t-40 -137.5z" />
<glyph unicode="&#xec;" horiz-adv-x="391" d="M72 -8q0 -47 80 -47q103 0 118 41q3 15 11.5 58t13.5 67l80 301q60 233 96 321q21 52 21 70q0 50 -41 53q-67 9 -74 14q-53 0 -78.5 -23t-30.5 -71q-24 -269 -110 -532l-58 -176q-4 -11 -18 -37q-10 -23 -10 -39zM195 1253q0 -71 63 -157l100 -142q22 -28 45 -28 q17 0 105 55l10 47q3 17 -45 80q-29 39 -51 61q-23 32 -44 77.5t-38 63.5t-53 23q-31 0 -61.5 -25.5t-30.5 -54.5z" />
<glyph unicode="&#xed;" horiz-adv-x="391" d="M72 -8q0 -47 80 -47q103 0 118 41q3 15 11.5 58t13.5 67l80 301q60 233 96 321q21 52 21 70q0 50 -41 53q-67 9 -74 14q-53 0 -78.5 -23t-30.5 -71q-24 -269 -110 -532l-58 -176q-4 -11 -18 -37q-10 -23 -10 -39zM324 981q55 -55 79 -55q19 0 62 30q295 252 295 326 q0 51 -68 51q-48 0 -71 -26q-82 -86 -136 -140q-84 -75 -137 -116q-21 -24 -24 -70z" />
<glyph unicode="&#xee;" horiz-adv-x="391" d="M72 -8q0 -47 80 -47q103 0 118 41q3 15 11.5 58t13.5 67q5 16 82 301l72 268q3 11 24 61q19 40 19 62q0 50 -41 53q-67 9 -74 14q-53 0 -78.5 -23t-30.5 -71q-24 -269 -110 -532l-58 -176q-4 -11 -18 -37q-10 -23 -10 -39zM199 1016q1 -9 4 -26.5t4 -26.5q9 -35 37 -35 q22 0 194 112q22 -16 72 -55q62 -47 74 -47q26 0 71 63q2 6 2 11q0 35 -10 45l-133 211q-8 14 -29 14q-15 0 -94 -76q-18 -16 -51.5 -45.5t-50.5 -44.5q-61 -54 -90 -100z" />
<glyph unicode="&#xef;" horiz-adv-x="391" d="M72 -8q0 -47 80 -47q103 0 118 41q3 15 11.5 58t13.5 67l80 301q60 233 96 321q21 52 21 70q0 50 -41 53q-67 9 -74 14q-53 0 -78.5 -23t-30.5 -71q-24 -269 -110 -532l-58 -176q-4 -11 -18 -37q-10 -23 -10 -39zM196.5 1002.5q0.5 -4.5 2.5 -15t6 -16t12 -13t19 -14.5 q37 -18 59 -18q18 0 59 20q80 41 80 191q0 83 -88 104q-65 -10 -107 -69.5t-42 -131.5q0 -4 -0.5 -18.5t0 -19zM455 1038q0 -112 98 -112q18 0 59 20q80 41 80 191q0 83 -88 104q-29 -3 -53 -20q-52 -40 -68 -66q-7 -10 -22 -84q-6 -27 -6 -33z" />
<glyph unicode="&#xf0;" horiz-adv-x="817" d="M68 102q0 -85 22 -110q25 -28 107 -49q30 -9 59 -9q287 0 322 152q18 82 46.5 208t37.5 169q83 298 149 512q2 0 38 -2t52 -2q129 0 129 71q0 30 -29 60.5t-59 30.5q-74 0 -98 -7q0 -16 2 -20q20 114 20 145q0 50 -43 62q-5 3 -41 14q-56 0 -90 -137l2 -2 q0 -2 -4.5 -30.5t-5.5 -37.5q-12 -4 -29 -4q-27 0 -92 6q-61 6 -92 6q-1 0 -39 -6q-29 -16 -29 -39q0 -10 11 -36l2 -3l-4 -8q-1 -26 20 -47.5t47 -21.5l154 4l-49 -129q-1 1 -74 20q-50 15 -74 15q-26 0 -98 -60q-43 -35 -127 -190q-56 -104 -98 -252q-45 -151 -45 -273z M240 137q0 106 82 316q88 235 167 235q35 0 35 -55q0 -70 -57 -307l-49 -207q-62 -45 -127 -45q-51 0 -51 63z" />
<glyph unicode="&#xf1;" horiz-adv-x="714" d="M78 31q0 -49 119 -49q27 0 53 17t26 40q0 82 27 199q7 33 22.5 98t22.5 98q18 90 64 162q58 94 135 94q45 0 45 -43q0 -13 -35 -203q-51 -260 -61 -303q-5 -22 -29 -78q-18 -49 -18 -79q0 -56 77 -56q1 0 7.5 1.5t23 5t33.5 6.5q40 9 49 51q1 14 4 40t4 40q28 126 53 237 q62 275 62 346q0 164 -137 164q-113 0 -181 -24h-8l-6 -35q3 11 28 46.5t25 47.5q0 76 -129 76q-35 0 -88 -39q0 -41 4 -39l-94 -449q-53 -244 -86 -335q-12 -35 -12 -37zM348 1001q9 -69 49 -69q53 29 78 69q129 -75 164 -75q50 0 98 57q1 1 9.5 13t24 34.5t32.5 48.5 q18 27 18 49q0 86 -51 86q-17 0 -70 -59q-6 3 -33.5 16t-43.5 19q-58 24 -86 24q-112 0 -189 -213z" />
<glyph unicode="&#xf2;" horiz-adv-x="573" d="M55 104q0 -98 47 -139q36 -28 107 -37q72 -8 100 -26q138 0 215 145q55 106 103 295q51 188 51 301q0 208 -115 229q-103 19 -149 35q-52 15 -125 -86q-93 -132 -162 -346q-72 -222 -72 -371zM242 102q0 124 61 347q74 268 154 268q49 0 49 -84q0 -117 -62 -330 q-76 -258 -159 -258q-43 0 -43 57zM313 1249q0 -49 86 -188q85 -135 125 -135q29 0 105 55q1 5 2 15l6 32q0 21 -43 76q-9 12 -26.5 32.5t-26.5 32.5q-55 107 -56 109q-27 55 -79 55q-36 0 -64.5 -25t-28.5 -59z" />
<glyph unicode="&#xf3;" horiz-adv-x="573" d="M55 104q0 -98 47 -139q36 -28 107 -37q72 -8 100 -26q138 0 215 145q55 106 103 295q51 188 51 301q0 208 -115 229q-103 19 -149 35q-52 15 -125 -86q-93 -132 -162 -346q-72 -222 -72 -371zM242 102q0 124 61 347q74 268 154 268q49 0 49 -84q0 -117 -62 -330 q-76 -258 -159 -258q-43 0 -43 57zM424 983q73 -55 82 -55q8 0 31 10q42 19 178 152q145 145 145 194q0 51 -65 51q-49 0 -72 -26q-44 -47 -137 -140q-32 -29 -80 -70t-60 -52q-18 -40 -22 -64z" />
<glyph unicode="&#xf4;" horiz-adv-x="573" d="M55 104q0 -98 47 -139q31 -28 107 -37q72 -8 100 -26q138 0 215 145q49 94 103 295q53 198 53 301q0 208 -117 229q-103 19 -149 35q-52 15 -125 -86q-93 -132 -162 -346q-72 -222 -72 -371zM242 102q0 124 61 347q74 268 154 268q51 0 51 -84q0 -120 -64 -330 q-76 -258 -159 -258q-43 0 -43 57zM283 1016q1 -9 4 -26.5t4 -26.5q9 -35 35 -35q22 0 194 112q138 -102 146 -102q26 0 71 63q2 2 2 13q0 35 -145 254q-8 14 -29 14q-55 -22 -256 -223q-7 -10 -26 -43z" />
<glyph unicode="&#xf5;" horiz-adv-x="573" d="M55 104q0 -98 47 -139q36 -28 107 -37q72 -8 100 -26q138 0 215 145q55 106 103 295q51 188 51 301q0 208 -115 229q-103 19 -149 35q-52 15 -125 -86q-93 -132 -162 -346q-72 -222 -72 -371zM242 102q0 124 61 347q74 268 154 268q49 0 49 -84q0 -117 -62 -330 q-76 -258 -159 -258q-43 0 -43 57zM291 999q0 -69 45 -69q63 45 82 69q132 -75 164 -75q51 0 116 80q66 81 66 124q0 84 -53 84q-21 0 -68 -59q-14 2 -82 35q-53 24 -84 24q-85 0 -153 -139q-33 -53 -33 -74z" />
<glyph unicode="&#xf6;" horiz-adv-x="573" d="M55 104q0 -98 47 -139q36 -28 107 -37q72 -8 100 -26q138 0 215 145q55 106 103 295q51 188 51 301q0 208 -115 229q-103 19 -149 35q-52 15 -125 -86q-93 -132 -162 -346q-72 -222 -72 -371zM242 102q0 124 61 347q74 268 154 268q49 0 49 -84q0 -117 -62 -330 q-76 -258 -159 -258q-43 0 -43 57zM266 1032q0 -73 53 -94q32 -14 46 -14q2 0 4 2h4q57 14 80.5 37.5t35.5 80.5q17 87 17 93q0 86 -90 104q-67 -12 -108.5 -72.5t-41.5 -136.5zM524 1032q0 -72 54 -94q32 -14 45 -14q2 0 4 2h4q57 14 81 37.5t36 80.5q16 82 16 93 q0 86 -90 104q-67 -12 -108.5 -72.5t-41.5 -136.5z" />
<glyph unicode="&#xf7;" d="M156 395q0 -86 61 -86q1 0 14.5 3t14.5 3q131 11 168 9q115 2 354 2q12 0 61 -11q45 -10 58 -10q71 0 71 111v35q0 50 -12 68t-53 18q-16 0 -84 -7q-58 -6 -80 -6h-90q-28 0 -188 4q-161 7 -189 7l-10 4q-6 6 -23 6q-73 0 -73 -150zM385 102q0 -38 25 -68t61 -30 q51 0 98 80q43 73 43 129q0 32 -26 58t-58 26q-53 0 -100 -72q-43 -64 -43 -123zM500 668q0 -39 22.5 -70t57.5 -31h12q50 21 91.5 77t41.5 106q0 108 -82 108q-52 0 -98 -70q-45 -65 -45 -120z" />
<glyph unicode="&#xf8;" horiz-adv-x="573" d="M-20 -43q0 -35 30 -70q37 -6 41 -6q17 0 45 31q17 20 35 45q12 -10 27 -25q14 -14 73 -26q55 -10 76 -10q25 0 101 28q86 35 147 178q117 279 117 603q116 155 116 184q0 30 -45 63l-24 6q-27 -6 -37 -16q-15 -25 -20 -35q-4 -7 -46 -67q-33 26 -98 41q-31 9 -106 26 q-18 4 -45 -10q-87 -41 -181 -268q-79 -194 -102 -322l-27 -151q-3 -13 6 -78q-7 -9 -22.5 -29t-22.5 -29q-38 -46 -38 -63zM248 106q149 195 229 316q-20 -106 -65 -219q-65 -158 -127 -158q-28 0 -37 61zM276 356q24 109 64 209q62 152 117 152q34 0 43 -49 q-172 -236 -224 -312z" />
<glyph unicode="&#xf9;" horiz-adv-x="710" d="M115 139q0 -182 204 -182q43 0 105 27q-12 -46 -12 -66q0 -65 127 -65q31 0 58.5 18.5t27.5 46.5q0 8 -5.5 31t-5.5 28q0 20 56 277q80 356 94 410q23 39 49 73q2 6 2 25q0 42 -31 51l-104 25l-12 6q-73 -15 -76 -70v-31l-115 -563q-82 -61 -135 -61q-41 0 -41 57 q0 176 92 438q66 192 66 193q0 16 -10 43q-7 0 -33 -3t-33 -3t-32 3t-32 3q-51 0 -67 -29q-7 -46 -14 -76l-113 -514q-10 -52 -10 -92zM346 1257q0 -71 64 -159l100 -142q22 -28 47 -28q17 0 105 55l8 47q3 17 -43 78q-10 13 -27.5 34t-24.5 29q-10 18 -26 44.5t-21 35.5 l-30 58q-20 26 -58 26q-32 0 -63 -24t-31 -54z" />
<glyph unicode="&#xfa;" horiz-adv-x="710" d="M115 139q0 -182 204 -182q43 0 105 27q-12 -46 -12 -66q0 -65 127 -65q31 0 58.5 18.5t27.5 46.5q0 8 -5.5 31t-5.5 28q0 20 56 277q80 356 94 410q23 39 49 73q2 6 2 25q0 42 -31 51l-104 25l-12 6q-73 -15 -76 -70v-31l-115 -563q-82 -61 -135 -61q-41 0 -41 57 q0 176 92 438q66 192 66 193q0 16 -10 43q-7 0 -33 -3t-33 -3t-32 3t-32 3q-51 0 -67 -29q-7 -46 -14 -76l-113 -514q-10 -52 -10 -92zM498 983q64 -55 82 -55q7 0 30 10q42 19 178 152q146 146 146 194q0 51 -66 51q-48 0 -71 -26q-29 -32 -138 -140q-33 -29 -81 -71 t-58 -51q-18 -40 -22 -64z" />
<glyph unicode="&#xfb;" horiz-adv-x="710" d="M115 139q0 -182 204 -182q43 0 105 27q-12 -46 -12 -66q0 -65 127 -65q31 0 58.5 18.5t27.5 46.5q0 8 -5.5 31t-5.5 28q0 20 56 277q80 356 94 410q23 39 49 73q2 6 2 25q0 42 -31 51l-104 25l-12 6q-73 -15 -76 -70v-31l-115 -563q-82 -61 -135 -61q-41 0 -41 57 q0 176 92 438q66 192 66 193q0 16 -10 43q-7 0 -33 -3t-33 -3t-32 3t-32 3q-51 0 -67 -29q-7 -46 -14 -76l-113 -514q-10 -52 -10 -92zM360 1012q6 -88 43 -88q18 0 95 51l98 61q15 -11 41 -32t31 -25q60 -45 75 -45q22 0 70 63q0 39 -10 56l-133 211q-6 14 -27 14 q-32 -13 -141 -113q-97 -87 -117 -110q-16 -19 -25 -43z" />
<glyph unicode="&#xfc;" horiz-adv-x="710" d="M115 139q0 -182 204 -182q43 0 107 27q-14 -49 -14 -66q0 -65 127 -65q31 0 58.5 18.5t27.5 46.5q0 8 -5.5 31t-5.5 28q0 23 56 277q17 71 37.5 161t34.5 150t24 99q29 50 47 73q2 6 2 25q0 42 -31 51l-104 25l-12 6q-73 -15 -76 -70v-31l-115 -563q-82 -61 -135 -61 q-41 0 -41 57q0 164 92 438q68 151 68 193q0 16 -12 43q-7 0 -33 -3t-33 -3t-32 3t-32 3q-51 0 -67 -29q-7 -46 -14 -76l-111 -514q-12 -58 -12 -92zM342 1032q0 -106 98 -106q74 0 111 73q29 63 29 138q0 48 -18.5 69t-69.5 35q-69 -9 -111 -76q-39 -56 -39 -133zM600 1032 q0 -106 98 -106q74 0 111 73q29 63 29 138q0 48 -18.5 69t-69.5 35q-67 -10 -108.5 -71.5t-41.5 -137.5z" />
<glyph unicode="&#xfd;" horiz-adv-x="704" d="M4 -295q0 -37 21 -49l53 -10q200 -37 219 -37q127 0 215 110q79 98 100 232q3 24 8.5 65.5t6.5 55.5l90 440q21 109 43 213q1 6 16 34.5t15 37.5q0 41 -25 57q-11 1 -29 3l-37 5q-102 0 -120 -67q-2 -19 -9 -73.5t-10 -84.5l-88 -467q-104 -55 -137 -55q-41 0 -41 30 q0 33 49 277q13 64 26.5 130t18.5 90.5t6 27.5l4.5 9t10.5 20.5t14 27.5q14 25 14 55q0 33 -32 41q-6 2 -60 2l-16 11q-14 -4 -38 -12t-34 -11q-12 -7 -20 -26.5t-10 -30t-7 -39.5q-99 -510 -100 -516q-3 -14 -6 -30l-2 -9q0 -203 202 -203q37 0 117 27q-21 -112 -45 -152 q-40 -67 -133 -67q-39 0 -94 22q-54 23 -66 23q-90 0 -90 -107zM449 983q64 -55 81 -55q4 0 31 10q51 28 178 152q146 143 146 194t-66 51q-48 0 -71 -26q-180 -189 -230 -222q-28 -18 -44.5 -37.5t-18.5 -29.5q-3 -6 -6 -37z" />
<glyph unicode="&#xfe;" horiz-adv-x="587" d="M90 0q0 -18 6 -39q9 -28 25 -22l31 8l22 -4q12 -13 25 -15q47 6 65 68q9 34 12 100l-10 15l27 122q77 -26 84 -26q152 0 258 213q88 180 88 354q0 221 -53 242l-78 33q-44 18 -51 16l-54 -10q6 15 17 40.5t14 34.5q19 49 19 80q0 68 -60 68q-99 0 -133 -37 q-22 -29 -43 -129q-27 -132 -66.5 -325t-52.5 -255l-78 -409q-14 -71 -14 -123zM324 379l53 248q64 301 131 301q51 0 51 -78q0 -111 -55 -285q-65 -215 -150 -215q-9 0 -26 10z" />
<glyph unicode="&#xff;" horiz-adv-x="704" d="M4 -295q0 -37 21 -49l53 -10q200 -37 219 -37q127 0 215 110q79 98 100 232q3 24 8.5 65.5t6.5 55.5l88 440q42 210 43 213q7 20 16 35q17 27 17 37q0 41 -25 57q-11 1 -29 3l-37 5q-102 0 -120 -67q-2 -19 -9 -73.5t-10 -84.5l-88 -467q-104 -55 -137 -55q-41 0 -41 30 q0 33 49 277q13 64 26.5 130t18.5 90.5t6 27.5l4.5 9t10.5 20.5t14 27.5q14 25 14 55q0 33 -32 41q-6 2 -60 2l-16 11q-65 -20 -80 -32q-16 -14 -21 -36q-1 -7 -4 -24t-4 -27q-99 -510 -100 -516q-3 -14 -6 -30l-2 -9q0 -203 202 -203q37 0 117 27q-21 -112 -45 -152 q-40 -67 -133 -67q-39 0 -94 22q-54 23 -66 23q-90 0 -90 -107zM307 1034q0 -67 53 -94q25 -14 43 -14q21 0 60 20q84 41 84 189q0 84 -90 108q-67 -10 -108.5 -71.5t-41.5 -137.5zM565 1034q0 -67 53 -94q25 -14 44 -14q20 0 59 20q84 41 84 189q0 84 -90 108 q-67 -10 -108.5 -71.5t-41.5 -137.5z" />
<glyph unicode="&#x152;" horiz-adv-x="1226" d="M117 188q0 -244 178 -290q166 -41 213 -41q24 0 98 47q27 -27 68 -27q75 0 287 37q231 40 264 70q30 27 30 55q0 72 -59 72q-377 0 -381 4q0 13 51 243l209 25q107 12 142 27q69 29 69 114q0 47 -39 47l-332 9l164 659q18 18 164 33q31 3 92 8t90 8q31 5 53.5 26.5 t22.5 49.5q0 79 -45 82q-71 2 -167 4.5t-120 3.5q-52 4 -124 10.5t-93 8.5q-28 1 -50.5 -21.5t-27.5 -54.5q-2 10 -2 43l13 -21q-28 14 -84 17q-53 3 -84 20q-7 0 -36.5 7t-37.5 7q-43 0 -141 -79q-27 -21 -68 -86q-105 -164 -168 -351q-50 -144 -96 -376q-53 -267 -53 -390 zM319 205q0 184 43.5 390t126.5 400q123 285 246 285q57 0 109 -106q-217 -978 -232 -1049q-98 -107 -180 -107q-113 0 -113 187z" />
<glyph unicode="&#x153;" horiz-adv-x="925" d="M66 176q0 -272 243 -272q89 0 146 51q35 -53 155 -53q191 0 287 96q45 45 51 76q-2 7 -6 20.5t-6 20.5q-12 18 -51 18q-34 0 -113 -55t-125 -55q-48 0 -57 57q-10 13 -10 37q0 5 10 73l262 5q51 0 78 79q2 6 24 119q39 195 39 244q0 176 -59 188q-31 6 -65 13t-46.5 9.5 t-13.5 2.5q-134 0 -160 -51q-59 96 -254 96q-97 0 -205 -250q-82 -184 -106 -315q-18 -94 -18 -154zM240 111q0 251 137 522q29 59 49 76q38 -5 57 -11q21 -9 21 -49q0 -194 -92 -436q-64 -168 -127 -168q-45 0 -45 66zM618 326l39 147q12 48 70 135q65 99 96 99 q19 -16 19 -54q0 -135 -58 -315q-111 -12 -116 -12h-50z" />
<glyph unicode="&#x178;" horiz-adv-x="919" d="M274 1366q0 -16 13 -70q42 -176 84 -419q49 -295 49 -431q0 -82 -51 -296q-31 -136 -31 -148q0 -70 78 -70q97 0 119 54q6 49 22 147q43 239 57 289q21 64 238 401q69 106 192 297q23 36 109 142q61 73 61 90q0 23 -6 41l-24 16t-17 11.5t-6 4.5q-24 -1 -52 13t-34 14 q-32 -14 -57 -55q-149 -221 -316 -484q-101 -157 -133 -206q-53 319 -94 585q-15 102 -43 111q-30 24 -86 24q-27 0 -49.5 -18.5t-22.5 -42.5zM567 1700q0 -70 56 -94q10 -3 20 -6.5t14 -5t5 -1.5q74 0 114 70q33 56 33 137q0 91 -92 109q-67 -12 -108.5 -72.5t-41.5 -136.5 zM825 1700q0 -70 56 -94q10 -3 20 -6.5t14 -5t5 -1.5q74 0 114 70q33 56 33 137q0 91 -92 109q-67 -12 -108.5 -72.5t-41.5 -136.5z" />
<glyph unicode="&#x2c6;" horiz-adv-x="458" d="M207 1026q6 -88 45 -88q18 0 192 113q12 -9 36.5 -29t37.5 -29q57 -45 74 -45q21 0 70 64q2 2 2 10q0 34 -11 45l-133 211q-8 14 -28 14q-18 0 -132 -102q-46 -43 -124 -121q-4 -6 -15 -21.5t-14 -21.5z" />
<glyph unicode="&#x2dc;" horiz-adv-x="417" d="M207 1008l3 -13l5 -30q18 -27 39 -27q61 43 82 70q128 -76 162 -76q54 0 118 82q66 84 66 123q0 84 -53 84q-30 0 -64 -58l-6 -2q-73 32 -80 35q-58 25 -84 25q-73 0 -153 -136q-35 -59 -35 -77z" />
<glyph unicode="&#x2000;" horiz-adv-x="1007" />
<glyph unicode="&#x2001;" horiz-adv-x="2015" />
<glyph unicode="&#x2002;" horiz-adv-x="1007" />
<glyph unicode="&#x2003;" horiz-adv-x="2015" />
<glyph unicode="&#x2004;" horiz-adv-x="671" />
<glyph unicode="&#x2005;" horiz-adv-x="503" />
<glyph unicode="&#x2006;" horiz-adv-x="335" />
<glyph unicode="&#x2007;" horiz-adv-x="335" />
<glyph unicode="&#x2008;" horiz-adv-x="251" />
<glyph unicode="&#x2009;" horiz-adv-x="403" />
<glyph unicode="&#x200a;" horiz-adv-x="111" />
<glyph unicode="&#x2010;" horiz-adv-x="368" d="M92 348q0 -93 43 -90q79 8 94 10q47 8 109 8h27q12 0 20 -8q38 14 47 72q4 28 4 92q0 68 -37 68q8 0 -4 -2l-35 -4q-71 -9 -176 -9q-11 7 -26 7q-66 0 -66 -144z" />
<glyph unicode="&#x2011;" horiz-adv-x="368" d="M92 348q0 -93 43 -90q79 8 94 10q47 8 109 8h27q12 0 20 -8q38 14 47 72q4 28 4 92q0 68 -37 68q8 0 -4 -2l-35 -4q-71 -9 -176 -9q-11 7 -26 7q-66 0 -66 -144z" />
<glyph unicode="&#x2012;" horiz-adv-x="368" d="M92 348q0 -93 43 -90q79 8 94 10q47 8 109 8h27q12 0 20 -8q38 14 47 72q4 28 4 92q0 68 -37 68q8 0 -4 -2l-35 -4q-71 -9 -176 -9q-11 7 -26 7q-66 0 -66 -144z" />
<glyph unicode="&#x2013;" d="M135 442q0 -3 3 -13.5t3 -14.5l6 -80q6 -32 43 -55q15 -9 27 -9q35 0 105 6q82 7 106 7q141 0 391 4q131 3 131 80q0 16 -26 67q-27 53 -27 55q-16 19 -59 19q-12 0 -47.5 -3t-42.5 -3q-213 -8 -459 -8q-9 6 -66 6q-5 0 -55 -11q-33 -20 -33 -47z" />
<glyph unicode="&#x2014;" horiz-adv-x="1382" d="M117 444q3 -14 8 -41t8 -41q14 -56 47 -69q61 -23 80 -23q586 13 989 17q189 3 189 65q0 59 -52 86q-40 70 -133 70q-7 0 -77 -4q-35 -2 -74 -2q-191 -2 -445.5 -4.5t-316.5 -3.5q-12 0 -52 3t-52 3q-104 0 -119 -56z" />
<glyph unicode="&#x2018;" horiz-adv-x="344" d="M328 1395q0 -33 24 -221q24 -194 33 -209q21 -47 57 -47q43 0 70 31t27 75q0 34 -11 135q-4 33 -8 64t-5.5 47.5t-2.5 21.5q-1 14 5.5 54t6.5 47q0 67 -133 67q-63 0 -63 -65z" />
<glyph unicode="&#x2019;" horiz-adv-x="344" d="M240 993q0 -19 10 -22q16 -31 61 -31q29 0 70 47q20 26 135 230q113 204 113 215q0 51 -43 51q-122 0 -156 -64q-58 -152 -61 -162q-8 -15 -23 -41.5t-28 -48.5t-25 -41q-53 -103 -53 -133z" />
<glyph unicode="&#x201a;" horiz-adv-x="344" d="M-12 -199q0 -51 71 -51q37 0 70 45q27 35 135 234q111 199 111 213q0 51 -41 51q-60 0 -119 -21q-14 -5 -32 -29t-19 -42q-8 -56 -94 -215q-82 -143 -82 -185z" />
<glyph unicode="&#x201c;" horiz-adv-x="522" d="M307 1397q0 -27 23 -226q20 -178 32 -206q21 -47 58 -47q41 0 68.5 28.5t27.5 67.5q0 50 -14 133q-13 96 -13 133q0 12 6.5 48t6.5 44q0 63 -35 78q-23 10 -96 10q-64 0 -64 -63zM498 1436q0 -18 26 -258q6 -54 17 -131q21 -93 71 -93q43 0 70 31.5t27 75.5q0 45 -15 133 q-12 88 -12 135q0 13 6 50t6 48q0 70 -135 70q-25 0 -43 -18t-18 -43z" />
<glyph unicode="&#x201d;" horiz-adv-x="522" d="M240 1004q0 -52 65 -52q43 0 78 47q27 35 135 234q109 201 109 213q0 51 -41 51q-66 0 -119 -20q-42 -33 -51 -74q-7 -43 -27 -88q-20 -36 -84 -156q-65 -121 -65 -155zM414 967q0 -52 65 -52q42 0 78 48q37 55 133 227q111 196 111 219q0 51 -39 51q-116 0 -156 -55 q-23 -61 -26 -94q-2 -5 -91 -174q-75 -135 -75 -170z" />
<glyph unicode="&#x201e;" horiz-adv-x="522" d="M-16 -219q0 -51 63 -51q37 0 78 47q29 36 137 233q109 201 109 226q0 36 -43 36q-64 0 -117 -20q-31 -9 -49 -72q-19 -58 -27 -88q-14 -25 -43 -75.5t-43 -75.5q-65 -121 -65 -160zM156 -258q0 -49 65 -49q38 0 78 49q29 41 135 233q109 195 109 209q0 52 -41 52 q-51 0 -121 -25q-9 -3 -15.5 -7.5t-11.5 -12t-8.5 -12.5t-6.5 -16t-4 -15.5t-3.5 -18t-3.5 -16.5q-45 -102 -66 -138l-61 -110q-45 -83 -45 -123z" />
<glyph unicode="&#x2022;" d="M328 606q0 -91 39 -162q50 -90 129 -90q112 0 149 13q32 11 72 43q3 2 61 55q154 145 154 356q0 130 -55 215q-65 103 -187 103q-178 0 -244 -97q-55 -81 -104 -317q-14 -66 -14 -119z" />
<glyph unicode="&#x2026;" horiz-adv-x="1382" d="M106 49q0 -123 154 -123h12q6 2 13 2q39 26 90 99q55 79 55 127q0 190 -100 190q-28 0 -123 -29q-43 -40 -72 -120q-29 -89 -29 -146zM561 49q0 -123 154 -123h12q6 2 12 2q38 23 92 101q54 79 54 125q0 190 -101 190q-20 0 -122 -29q-46 -39 -72 -120q-29 -89 -29 -146z M1026 55q0 -129 154 -129q44 0 106 86t62 142q0 190 -101 190q-28 0 -123 -29q-44 -38 -71 -120q-27 -74 -27 -140z" />
<glyph unicode="&#x202f;" horiz-adv-x="403" />
<glyph unicode="&#x2039;" horiz-adv-x="344" d="M119 446q0 -7 6 -22q15 -38 28.5 -74t18.5 -50t6 -15q27 -59 86 -109l19 4q82 58 82 96q0 26 -84 160q11 14 51 53l69 60q25 28 25 86q0 72 -41 72q-25 -11 -31 -17l-209 -194q-26 -23 -26 -50z" />
<glyph unicode="&#x203a;" horiz-adv-x="344" d="M88 250q0 -21 21 -46.5t41 -25.5q17 0 65 39q40 34 61 59l123 152q19 22 19 43q0 9 -12 27l-127 194q-8 12 -27 15q-35 -12 -58.5 -54.5t-23.5 -87.5q0 -21 31 -63q15 -21 49 -64q-39 -33 -62 -63q-29 -29 -59 -56q-41 -41 -41 -69z" />
<glyph unicode="&#x205f;" horiz-adv-x="503" />
<glyph unicode="&#x2122;" horiz-adv-x="937" d="M328 1442q0 -15 4 -27q37 -18 69 -26l72 -19q1 1 4 3t4 3q-65 -277 -106 -458q-1 -2 -4 -12.5t-9.5 -30.5t-13.5 -41q-16 -56 -16 -86q0 -7 2 -11v-12q19 -25 41 -25q74 0 88 17q3 15 8 45.5t8 46.5q97 457 131 567l-4 4q16 8 74 11q66 6 88 20q-4 -25 -35 -182 q-19 -70 -63 -256q-49 -197 -49 -240q0 -35 24 -35h66q17 0 31 17t14 35q0 13 -11 24q34 101 43 158l3 -64q0 -27 16 -51t39 -24q15 -5 35 -5q31 0 73 91q7 19 22.5 57.5t22.5 58.5q0 -1 -22 -94q-14 -57 -14 -94q0 -41 41 -41q82 0 94 49q-9 36 49 311l33 162t34 162 q21 21 21 37q0 49 -88 49q-34 0 -111 -195l-143 -356v137q0 55 14 140q15 92 15 137t-4 57q-6 19 -44 31q-21 8 -47 8q-12 0 -34 -16q-19 32 -156 32q-7 0 -36.5 -0.5t-89 -1.5t-122.5 -2q-16 0 -33 -10q0 -1 -3.5 -4.5t-9 -10t-11.5 -12.5q-4 -20 -4 -28z" />
<glyph unicode="&#x25fc;" horiz-adv-x="890" d="M0 0v891h891v-891h-891z" />
</font>
</defs>
</svg>
